<?xml version="1.0" encoding="UTF-8"?>
<svg xmlns="http://www.w3.org/2000/svg" width="1280" height="700" viewBox="0 0 1280 700" role="img" aria-labelledby="title-chapter-07-02-en desc-chapter-07-02-en">
  <title id="title-chapter-07-02-en">One Event Vocabulary, Multiple Transports</title>
  <desc id="desc-chapter-07-02-en">Hand-drawn whiteboard figure for One Event Vocabulary, Multiple Transports, showing the relationship between prompt + tools + options, HTTP request SSE frames, WebSocket session request messages, transport parser, ResponseEvent stream items, deltas, usage, errors.</desc>
  <defs>
    <marker id="arrow" markerWidth="12" markerHeight="12" refX="10" refY="6" orient="auto" markerUnits="strokeWidth">
      <path d="M 1 1 L 11 6 L 1 11 z" fill="#d97757" />
    </marker>
    <filter id="paper-chapter-07-02-en" x="-5%" y="-5%" width="110%" height="110%">
      <feTurbulence type="fractalNoise" baseFrequency="0.85" numOctaves="2" stitchTiles="stitch" result="noise" />
      <feColorMatrix type="saturate" values="0" />
      <feComponentTransfer>
        <feFuncA type="table" tableValues="0 0.045" />
      </feComponentTransfer>
    </filter>
  </defs>
  <rect x="0" y="0" width="1280" height="700" rx="30" fill="#fffdf7" />
  <path d="M 51.2 21.4 L 1228.2 23.7 L 1259.8 51.3 L 1257.6 651.1 L 1228.8 680.0 L 49.5 676.9 L 22.1 649.3 L 20.4 51.7 Z" fill="none" stroke="#171717" stroke-width="2" opacity="0.18" />
  <rect x="0" y="0" width="1280" height="700" filter="url(#paper-chapter-07-02-en)" />
  <g font-family="Virgil, 'Comic Sans MS', 'Segoe Print', 'LXGW WenKai', 'Noto Sans CJK SC', cursive" letter-spacing="0">
    <text x="66" y="95" font-size="33" fill="#171717" font-weight="800">One Event Vocabulary, Multiple Transports</text>
    <path d="M 64.0 166.0 C 453.4 181.3, 860.9 158.4, 1210.0 160.0" fill="none" stroke="#171717" stroke-width="2" opacity="0.22" />
    <g>
      <path d="M 90.3 149.7 L 387.1 152.4 L 410.5 174.1 L 411.6 591.1 L 387.8 616.0 L 89.4 613.7 L 63.9 588.1 L 63.1 173.9 Z" fill="#fffdf7" stroke="#475569" stroke-width="2" opacity="0.65" />
      <text x="82" y="184" font-size="16" fill="#475569" font-weight="800">Input / origin</text>
    </g>
<g>
      <path d="M 469.2 147.7 L 767.5 151.7 L 794.8 176.0 L 796.7 589.8 L 770.7 615.2 L 473.1 615.6 L 447.5 590.2 L 442.5 174.4 Z" fill="#fff7d6" stroke="#d97757" stroke-width="2" opacity="0.65" />
      <text x="465" y="184" font-size="16" fill="#475569" font-weight="800">Runtime boundary</text>
    </g>
<g>
      <path d="M 854.5 151.1 L 1152.1 152.1 L 1180.0 176.2 L 1175.7 591.5 L 1150.1 613.0 L 855.9 613.5 L 827.6 589.8 L 828.3 176.7 Z" fill="#fffdf7" stroke="#475569" stroke-width="2" opacity="0.65" />
      <text x="848" y="184" font-size="16" fill="#475569" font-weight="800">Output / evidence</text>
    </g>
<path d="M 384.0 253.0 C 407.6 239.9, 459.7 269.0, 473.0 253.0" fill="none" stroke="#d97757" stroke-width="3" stroke-linecap="round" marker-end="url(#arrow)" opacity="0.72" />
<path d="M 767.0 253.0 C 804.7 261.9, 835.6 263.2, 856.0 253.0" fill="none" stroke="#2f855a" stroke-width="3" stroke-linecap="round" marker-end="url(#arrow)" opacity="0.72" />
<path d="M 1150.0 253.0 C 780.2 254.2, 414.8 366.4, 90.0 351.0" fill="none" stroke="#d97757" stroke-width="3" stroke-linecap="round" marker-end="url(#arrow)" opacity="0.72" />
<path d="M 384.0 351.0 C 410.4 362.1, 437.6 349.8, 473.0 351.0" fill="none" stroke="#d97757" stroke-width="3" stroke-linecap="round" marker-end="url(#arrow)" opacity="0.72" />
<path d="M 767.0 351.0 C 782.6 340.2, 843.8 348.7, 856.0 351.0" fill="none" stroke="#2f855a" stroke-width="3" stroke-linecap="round" marker-end="url(#arrow)" opacity="0.72" />
<path d="M 1150.0 351.0 C 781.5 365.5, 407.6 434.9, 90.0 449.0" fill="none" stroke="#d97757" stroke-width="3" stroke-linecap="round" marker-end="url(#arrow)" opacity="0.72" />
<g>
    <path d="M 109.2 217.9 L 366.9 218.5 L 386.4 240.2 L 385.9 266.2 L 367.6 285.4 L 106.5 286.4 L 89.3 267.2 L 88.3 238.8 Z" fill="#fff7d6" stroke="#d97757" stroke-width="2.4" />
    <path d="M 109.1 221.9 L 365.0 225.0 L 378.0 237.5 L 382.1 266.0 L 366.3 282.2 L 109.5 279.9 L 96.1 266.3 L 94.6 239.5 Z" fill="none" stroke="#d97757" stroke-width="1.1" opacity="0.28" />
    <text x="108" y="252" font-size="17" fill="#171717" font-weight="750">prompt + tools + options</text>
  </g>
<g>
    <path d="M 488.6 222.2 L 749.5 220.4 L 768.8 236.2 L 765.4 267.8 L 747.9 284.0 L 489.5 288.4 L 472.4 266.9 L 473.3 236.7 Z" fill="#e9f4ff" stroke="#3b82f6" stroke-width="2.4" />
    <path d="M 491.7 226.3 L 746.4 224.2 L 763.8 240.2 L 765.2 267.3 L 746.0 280.7 L 490.6 280.5 L 475.1 268.1 L 478.6 240.9 Z" fill="none" stroke="#3b82f6" stroke-width="1.1" opacity="0.28" />
    <text x="491" y="252" font-size="17" fill="#171717" font-weight="750">HTTP request SSE frames</text>
  </g>
<g>
    <path d="M 875.9 217.7 L 1130.0 217.7 L 1151.1 239.9 L 1150.4 265.6 L 1134.0 284.2 L 872.4 284.4 L 853.8 266.3 L 854.0 236.4 Z" fill="#ecfdf3" stroke="#2f855a" stroke-width="2.4" stroke-dasharray="8 8" />
    <path d="M 877.3 224.4 L 1133.3 223.8 L 1143.9 237.0 L 1145.1 268.7 L 1128.8 284.2 L 873.0 280.3 L 861.7 265.1 L 858.6 241.0 Z" fill="none" stroke="#2f855a" stroke-width="1.1" opacity="0.28" />
    <text x="874" y="252" font-size="17" fill="#171717" font-weight="750">WebSocket session request</text>
<text x="874" y="273.25" font-size="17" fill="#171717" font-weight="750">messages</text>
  </g>
<g>
    <path d="M 106.0 316.1 L 364.2 318.2 L 382.7 334.0 L 383.5 364.7 L 367.7 384.3 L 107.3 385.3 L 90.4 363.7 L 90.9 336.8 Z" fill="#fff1f2" stroke="#be4456" stroke-width="2.4" />
    <path d="M 109.9 322.9 L 367.4 322.2 L 377.8 338.0 L 381.4 366.7 L 364.4 381.8 L 109.0 380.1 L 93.1 363.5 L 92.2 336.8 Z" fill="none" stroke="#be4456" stroke-width="1.1" opacity="0.28" />
    <text x="108" y="350" font-size="18" fill="#171717" font-weight="750">transport parser</text>
  </g>
<g>
    <path d="M 491.0 318.1 L 748.6 319.6 L 766.4 336.6 L 768.7 364.2 L 751.2 384.6 L 489.7 384.2 L 470.6 368.0 L 472.9 334.7 Z" fill="#f3e8ff" stroke="#8b5cf6" stroke-width="2.4" />
    <path d="M 493.5 323.9 L 747.2 321.5 L 762.9 338.9 L 763.7 363.9 L 750.5 380.7 L 491.6 380.1 L 475.7 367.4 L 476.4 337.6 Z" fill="none" stroke="#8b5cf6" stroke-width="1.1" opacity="0.28" />
    <text x="491" y="350" font-size="17" fill="#171717" font-weight="750">ResponseEvent stream</text>
<text x="491" y="371.25" font-size="17" fill="#171717" font-weight="750">items, deltas, usage</text>
<text x="491" y="392.5" font-size="17" fill="#171717" font-weight="750">errors</text>
  </g>
<g>
    <path d="M 875.3 320.1 L 1131.9 319.5 L 1151.1 334.0 L 1148.3 366.7 L 1133.0 384.0 L 872.0 382.6 L 856.3 366.6 L 856.6 334.9 Z" fill="#fef3c7" stroke="#b7791f" stroke-width="2.4" stroke-dasharray="8 8" />
    <path d="M 874.6 321.6 L 1130.0 322.8 L 1147.9 336.0 L 1147.5 366.6 L 1133.1 381.4 L 874.7 380.4 L 861.6 363.5 L 858.0 334.8 Z" fill="none" stroke="#b7791f" stroke-width="1.1" opacity="0.28" />
    <text x="874" y="350" font-size="18" fill="#171717" font-weight="750">turn loop</text>
  </g>
<g>
    <path d="M 107.8 414.7 L 367.9 417.5 L 385.0 435.5 L 384.4 463.8 L 364.7 481.7 L 106.6 482.4 L 91.3 465.5 L 89.5 433.3 Z" fill="#eef2ff" stroke="#4f46e5" stroke-width="2.4" />
    <path d="M 106.9 419.2 L 364.8 421.2 L 381.0 436.2 L 378.1 463.1 L 362.7 479.2 L 107.7 479.2 L 96.2 462.6 L 96.0 436.1 Z" fill="none" stroke="#4f46e5" stroke-width="1.1" opacity="0.28" />
    <text x="108" y="448" font-size="18" fill="#171717" font-weight="750">Prompt</text>
  </g>
  </g>
</svg>
