<?xml version="1.0" encoding="UTF-8"?>
<svg xmlns="http://www.w3.org/2000/svg" width="1280" height="740" viewBox="0 0 1280 740" role="img" aria-labelledby="title-chapter-23-03-en desc-chapter-23-03-en">
  <title id="title-chapter-23-03-en">Generated Schemas Are Product APIs</title>
  <desc id="desc-chapter-23-03-en">Hand-drawn whiteboard figure for Generated Schemas Are Product APIs, showing the relationship between Runtime type, Schema generator, Checked-in schema, Drift check, External client.</desc>
  <defs>
    <marker id="arrow" markerWidth="12" markerHeight="12" refX="10" refY="6" orient="auto" markerUnits="strokeWidth">
      <path d="M 1 1 L 11 6 L 1 11 z" fill="#d97757" />
    </marker>
    <filter id="paper-chapter-23-03-en" x="-5%" y="-5%" width="110%" height="110%">
      <feTurbulence type="fractalNoise" baseFrequency="0.85" numOctaves="2" stitchTiles="stitch" result="noise" />
      <feColorMatrix type="saturate" values="0" />
      <feComponentTransfer>
        <feFuncA type="table" tableValues="0 0.045" />
      </feComponentTransfer>
    </filter>
  </defs>
  <rect x="0" y="0" width="1280" height="740" rx="30" fill="#fffdf7" />
  <path d="M 51.6 23.2 L 1230.1 22.2 L 1259.6 50.7 L 1256.0 688.6 L 1231.6 718.1 L 48.3 717.9 L 23.2 692.4 L 24.3 51.5 Z" fill="none" stroke="#171717" stroke-width="2" opacity="0.18" />
  <rect x="0" y="0" width="1280" height="740" filter="url(#paper-chapter-23-03-en)" />
  <g font-family="Virgil, 'Comic Sans MS', 'Segoe Print', 'LXGW WenKai', 'Noto Sans CJK SC', cursive" letter-spacing="0">
    <text x="66" y="95" font-size="33" fill="#171717" font-weight="800">Generated Schemas Are Product APIs</text>
    <path d="M 64.0 166.0 C 465.4 164.4, 855.3 159.5, 1210.0 160.0" fill="none" stroke="#171717" stroke-width="2" opacity="0.22" />
    <path d="M 924.3 171.4 L 1182.7 168.7 L 1211.1 198.9 L 1211.7 534.1 L 1184.2 562.3 L 923.8 558.3 L 895.8 529.8 L 894.5 199.6 Z" fill="#fffdf7" stroke="#475569" stroke-width="2" stroke-dasharray="10 10" opacity="0.62" />
<path d="M 454.4 205.4 L 806.1 207.4 L 841.9 239.9 L 840.2 472.4 L 804.9 505.1 L 454.8 504.7 L 422.0 473.4 L 422.4 238.9 Z" fill="#eef2ff" stroke="#4f46e5" stroke-width="2.5" />
    <path d="M 460.0 310.0 C 565.9 319.1, 702.2 320.8, 800.0 310.0" fill="none" stroke="#4f46e5" stroke-width="2" opacity="0.34" />
    <text x="464" y="269" font-size="20" fill="#171717" font-weight="800">Contract generation factory</text>
<path d="M 315.0 373.0 C 357.3 379.5, 400.1 362.4, 420.0 375.0" fill="none" stroke="#d97757" stroke-width="3" stroke-linecap="round" marker-end="url(#arrow)" opacity="0.72" />
<path d="M 840.0 303.0 C 866.2 300.7, 886.5 229.1, 930.0 242.0" fill="none" stroke="#3b82f6" stroke-width="3" stroke-linecap="round" marker-end="url(#arrow)" opacity="0.72" />
<path d="M 840.0 361.0 C 869.4 364.1, 896.4 371.7, 930.0 362.0" fill="none" stroke="#3b82f6" stroke-width="3" stroke-linecap="round" marker-end="url(#arrow)" opacity="0.72" />
<path d="M 840.0 419.0 C 856.5 432.9, 918.4 495.1, 930.0 482.0" fill="none" stroke="#3b82f6" stroke-width="3" stroke-linecap="round" stroke-dasharray="8 9" marker-end="url(#arrow)" opacity="0.72" />
<g>
    <path d="M 90.3 327.9 L 299.2 329.9 L 313.2 347.5 L 315.9 395.8 L 298.9 416.8 L 87.6 417.4 L 71.1 400.1 L 69.9 348.2 Z" fill="#fff7d6" stroke="#d97757" stroke-width="2.4" />
    <path d="M 88.7 336.5 L 294.3 335.7 L 311.3 346.8 L 313.1 398.6 L 295.7 412.1 L 89.6 411.2 L 72.6 398.2 L 72.4 348.5 Z" fill="none" stroke="#d97757" stroke-width="1.1" opacity="0.28" />
    <text x="88" y="362" font-size="18" fill="#171717" font-weight="750">Runtime type</text>
  </g>
<g>
    <path d="M 479.4 328.8 L 596.6 331.2 L 616.3 348.8 L 618.4 385.2 L 600.2 399.7 L 480.4 401.8 L 460.5 383.1 L 460.6 346.3 Z" fill="#e9f4ff" stroke="#3b82f6" stroke-width="2.4" />
    <path d="M 480.7 331.5 L 599.9 335.1 L 612.3 348.8 L 612.1 385.2 L 596.1 400.3 L 481.6 398.2 L 468.3 380.8 L 465.7 347.5 Z" fill="none" stroke="#3b82f6" stroke-width="1.1" opacity="0.28" />
    <text x="480" y="362" font-size="18" fill="#171717" font-weight="750">Schema</text>
<text x="480" y="384.5" font-size="18" fill="#171717" font-weight="750">generator</text>
  </g>
<g>
    <path d="M 666.3 332.5 L 784.9 329.1 L 802.7 349.7 L 806.1 386.1 L 786.6 402.5 L 665.8 400.8 L 649.0 385.1 L 649.4 347.0 Z" fill="#ecfdf3" stroke="#2f855a" stroke-width="2.4" />
    <path d="M 670.8 333.4 L 783.7 333.5 L 800.5 350.8 L 801.4 381.6 L 787.4 397.9 L 670.2 396.3 L 651.5 381.0 L 651.8 350.2 Z" fill="none" stroke="#2f855a" stroke-width="1.1" opacity="0.28" />
    <text x="668" y="362" font-size="18" fill="#171717" font-weight="750">Checked in</text>
<text x="668" y="384.5" font-size="18" fill="#171717" font-weight="750">schema</text>
  </g>
<g>
    <path d="M 949.9 203.0 L 1156.5 205.6 L 1175.6 223.6 L 1172.9 262.2 L 1156.3 279.7 L 946.5 279.6 L 929.3 261.2 L 931.8 221.2 Z" fill="#fff1f2" stroke="#be4456" stroke-width="2.4" />
    <path d="M 950.3 209.5 L 1156.8 210.0 L 1169.5 222.7 L 1172.2 259.8 L 1156.7 273.4 L 947.9 273.8 L 935.2 262.3 L 933.7 223.0 Z" fill="none" stroke="#be4456" stroke-width="1.1" opacity="0.28" />
    <text x="948" y="237" font-size="18" fill="#171717" font-weight="750">Drift check</text>
  </g>
<g>
    <path d="M 947.5 327.0 L 1156.7 324.3 L 1176.3 340.7 L 1172.8 381.4 L 1155.1 400.8 L 947.4 399.7 L 930.4 382.9 L 930.8 345.3 Z" fill="#f3e8ff" stroke="#8b5cf6" stroke-width="2.4" />
    <path d="M 951.4 329.8 L 1154.0 328.3 L 1172.7 346.0 L 1171.7 382.0 L 1156.3 392.8 L 949.3 397.0 L 936.4 378.4 L 935.3 342.1 Z" fill="none" stroke="#8b5cf6" stroke-width="1.1" opacity="0.28" />
    <text x="948" y="357" font-size="18" fill="#171717" font-weight="750">External client</text>
  </g>
<g>
    <path d="M 948.7 444.4 L 1155.5 446.1 L 1173.9 464.0 L 1175.3 500.6 L 1157.8 520.5 L 948.7 518.5 L 928.5 499.1 L 931.8 461.8 Z" fill="#fef3c7" stroke="#b7791f" stroke-width="2.4" />
    <path d="M 949.2 448.5 L 1155.5 450.7 L 1168.9 463.4 L 1171.6 501.0 L 1158.1 515.7 L 950.5 515.1 L 935.7 502.3 L 933.2 462.7 Z" fill="none" stroke="#b7791f" stroke-width="1.1" opacity="0.28" />
    <text x="948" y="477" font-size="18" fill="#171717" font-weight="750">expose contract</text>
<text x="948" y="499.5" font-size="18" fill="#171717" font-weight="750">shape</text>
  </g>
  </g>
</svg>
