<?xml version="1.0" encoding="UTF-8"?>
<svg xmlns="http://www.w3.org/2000/svg" width="1280" height="700" viewBox="0 0 1280 700" role="img" aria-labelledby="title-chapter-09-concept-1-zh desc-chapter-09-concept-1-zh">
  <title id="title-chapter-09-concept-1-zh">规格不是执行授权：结构白板</title>
  <desc id="desc-chapter-09-concept-1-zh">规格不是执行授权：结构白板的手绘白板图，展示可见规格、处理器注册表、策略包络、运行时授权、工具输出整形之间的关系。</desc>
  <defs>
    <marker id="arrow" markerWidth="12" markerHeight="12" refX="10" refY="6" orient="auto" markerUnits="strokeWidth">
      <path d="M 1 1 L 11 6 L 1 11 z" fill="#d97757" />
    </marker>
    <filter id="paper-chapter-09-concept-1-zh" x="-5%" y="-5%" width="110%" height="110%">
      <feTurbulence type="fractalNoise" baseFrequency="0.85" numOctaves="2" stitchTiles="stitch" result="noise" />
      <feColorMatrix type="saturate" values="0" />
      <feComponentTransfer>
        <feFuncA type="table" tableValues="0 0.045" />
      </feComponentTransfer>
    </filter>
  </defs>
  <rect x="0" y="0" width="1280" height="700" rx="30" fill="#fffdf7" />
  <path d="M 51.6 22.1 L 1227.8 24.0 L 1259.4 49.9 L 1256.8 649.0 L 1227.8 678.5 L 51.2 677.3 L 19.8 648.9 L 22.5 48.9 Z" fill="none" stroke="#171717" stroke-width="2" opacity="0.18" />
  <rect x="0" y="0" width="1280" height="700" filter="url(#paper-chapter-09-concept-1-zh)" />
  <g font-family="Virgil, 'Comic Sans MS', 'Segoe Print', 'LXGW WenKai', 'Noto Sans CJK SC', cursive" letter-spacing="0">
    <text x="66" y="95" font-size="31" fill="#171717" font-weight="800">规格不是执行授权：结构白板</text>
    <path d="M 64.0 166.0 C 465.9 174.2, 874.8 161.7, 1210.0 160.0" fill="none" stroke="#171717" stroke-width="2" opacity="0.22" />
    <path d="M 260.0 150.0 C 264.6 156.3, 270.4 623.9, 260.0 610.0" fill="none" stroke="#3b82f6" stroke-width="2" stroke-dasharray="10 12" opacity="0.25" />
    <path d="M 1020.0 150.0 C 1004.6 139.5, 1020.0 621.2, 1020.0 610.0" fill="none" stroke="#2f855a" stroke-width="2" stroke-dasharray="10 12" opacity="0.25" />
<path d="M 640.0 208.0 C 644.3 217.4, 651.8 219.9, 640.0 224.0" fill="none" stroke="#d97757" stroke-width="3" stroke-linecap="round" marker-end="url(#arrow)" opacity="0.72" />
<path d="M 640.0 272.0 C 639.4 258.7, 631.3 289.1, 640.0 288.0" fill="none" stroke="#d97757" stroke-width="3" stroke-linecap="round" marker-end="url(#arrow)" opacity="0.72" />
<path d="M 640.0 336.0 C 638.5 329.4, 643.3 356.5, 640.0 352.0" fill="none" stroke="#d97757" stroke-width="3" stroke-linecap="round" marker-end="url(#arrow)" opacity="0.72" />
<path d="M 640.0 400.0 C 633.0 403.6, 649.1 415.2, 640.0 416.0" fill="none" stroke="#d97757" stroke-width="3" stroke-linecap="round" marker-end="url(#arrow)" opacity="0.72" />
<g>
    <path d="M 278.2 161.4 L 999.6 160.2 L 1020.4 178.1 L 1020.6 189.9 L 1000.3 207.8 L 279.3 207.4 L 262.1 191.0 L 258.5 176.0 Z" fill="#fff7d6" stroke="#d97757" stroke-width="2.4" />
    <path d="M 276.7 162.2 L 1002.2 165.8 L 1017.4 178.5 L 1015.3 186.7 L 1000.8 206.0 L 280.1 204.4 L 262.8 189.5 L 263.7 178.3 Z" fill="none" stroke="#d97757" stroke-width="1.1" opacity="0.28" />
    <text x="278" y="192" font-size="18" fill="#171717" font-weight="750">可见规格</text>
  </g>
<g>
    <path d="M 325.0 224.1 L 953.2 223.5 L 974.0 243.3 L 975.2 252.3 L 953.1 270.3 L 323.5 272.3 L 306.4 256.0 L 307.0 240.9 Z" fill="#e9f4ff" stroke="#3b82f6" stroke-width="2.4" />
    <path d="M 324.3 227.5 L 951.6 229.4 L 970.2 241.4 L 966.6 251.9 L 955.4 266.5 L 324.2 268.5 L 309.2 255.0 L 308.7 241.9 Z" fill="none" stroke="#3b82f6" stroke-width="1.1" opacity="0.28" />
    <text x="325" y="256" font-size="18" fill="#171717" font-weight="750">处理器注册表</text>
  </g>
<g>
    <path d="M 337.0 285.5 L 944.2 290.3 L 960.9 306.2 L 959.5 316.1 L 943.7 333.9 L 334.8 335.3 L 320.2 317.9 L 318.8 304.6 Z" fill="#ecfdf3" stroke="#2f855a" stroke-width="2.4" />
    <path d="M 339.2 291.7 L 940.2 289.5 L 959.5 308.6 L 955.8 318.3 L 943.5 332.2 L 336.2 330.4 L 324.0 319.1 L 321.3 307.6 Z" fill="none" stroke="#2f855a" stroke-width="1.1" opacity="0.28" />
    <text x="337" y="320" font-size="18" fill="#171717" font-weight="750">策略包络</text>
  </g>
<g>
    <path d="M 351.3 349.7 L 931.7 351.2 L 950.2 368.3 L 947.8 382.0 L 932.7 401.7 L 347.8 401.3 L 331.6 379.6 L 330.9 371.4 Z" fill="#fff1f2" stroke="#be4456" stroke-width="2.4" />
    <path d="M 351.4 358.5 L 930.1 355.2 L 943.7 372.1 L 944.6 382.5 L 932.3 395.8 L 347.6 396.0 L 333.2 380.1 L 334.2 373.4 Z" fill="none" stroke="#be4456" stroke-width="1.1" opacity="0.28" />
    <text x="349" y="384" font-size="18" fill="#171717" font-weight="750">运行时授权</text>
  </g>
<g>
    <path d="M 280.4 414.7 L 1000.9 416.5 L 1019.4 432.6 L 1019.9 445.3 L 999.9 465.4 L 278.9 465.0 L 259.1 444.0 L 259.7 431.7 Z" fill="#f3e8ff" stroke="#8b5cf6" stroke-width="2.4" />
    <path d="M 281.2 420.0 L 999.9 419.4 L 1014.8 435.2 L 1016.2 445.1 L 1002.8 460.3 L 278.2 459.4 L 264.1 447.4 L 262.3 437.3 Z" fill="none" stroke="#8b5cf6" stroke-width="1.1" opacity="0.28" />
    <text x="278" y="448" font-size="18" fill="#171717" font-weight="750">工具输出整形</text>
  </g>
  </g>
</svg>
