<?xml version="1.0" encoding="UTF-8"?>
<svg xmlns="http://www.w3.org/2000/svg" width="1280" height="700" viewBox="0 0 1280 700" role="img" aria-labelledby="title-chapter-02-concept-2-zh desc-chapter-02-concept-2-zh">
  <title id="title-chapter-02-concept-2-zh">隐藏命令契约</title>
  <desc id="desc-chapter-02-concept-2-zh">隐藏命令契约的手绘白板图，展示私有入口、解析后参数、helper 进程、打包脚本、CI 预期之间的关系。</desc>
  <defs>
    <marker id="arrow" markerWidth="12" markerHeight="12" refX="10" refY="6" orient="auto" markerUnits="strokeWidth">
      <path d="M 1 1 L 11 6 L 1 11 z" fill="#d97757" />
    </marker>
    <filter id="paper-chapter-02-concept-2-zh" x="-5%" y="-5%" width="110%" height="110%">
      <feTurbulence type="fractalNoise" baseFrequency="0.85" numOctaves="2" stitchTiles="stitch" result="noise" />
      <feColorMatrix type="saturate" values="0" />
      <feComponentTransfer>
        <feFuncA type="table" tableValues="0 0.045" />
      </feComponentTransfer>
    </filter>
  </defs>
  <rect x="0" y="0" width="1280" height="700" rx="30" fill="#fffdf7" />
  <path d="M 50.3 21.0 L 1229.3 24.4 L 1256.0 51.4 L 1257.2 652.4 L 1231.6 676.4 L 48.2 678.2 L 20.9 648.3 L 22.8 48.4 Z" fill="none" stroke="#171717" stroke-width="2" opacity="0.18" />
  <rect x="0" y="0" width="1280" height="700" filter="url(#paper-chapter-02-concept-2-zh)" />
  <g font-family="Virgil, 'Comic Sans MS', 'Segoe Print', 'LXGW WenKai', 'Noto Sans CJK SC', cursive" letter-spacing="0">
    <text x="66" y="95" font-size="31" fill="#171717" font-weight="800">隐藏命令契约</text>
    <path d="M 64.0 166.0 C 477.9 150.8, 870.0 154.5, 1210.0 160.0" fill="none" stroke="#171717" stroke-width="2" opacity="0.22" />
    <g>
      <path d="M 89.4 151.5 L 386.9 152.4 L 412.3 175.9 L 414.5 587.6 L 384.1 615.4 L 88.7 614.2 L 61.4 587.7 L 64.2 174.9 Z" fill="#fffdf7" stroke="#475569" stroke-width="2" opacity="0.65" />
      <text x="82" y="184" font-size="16" fill="#475569" font-weight="800">输入/来源</text>
    </g>
<g>
      <path d="M 469.0 148.5 L 771.1 150.2 L 794.2 176.3 L 796.8 591.0 L 768.4 614.0 L 472.9 615.6 L 443.5 588.0 L 447.1 173.8 Z" fill="#fff7d6" stroke="#d97757" stroke-width="2" opacity="0.65" />
      <text x="465" y="184" font-size="16" fill="#475569" font-weight="800">运行时边界</text>
    </g>
<g>
      <path d="M 852.3 148.2 L 1150.5 151.6 L 1180.1 174.0 L 1179.4 590.7 L 1151.7 615.6 L 853.8 616.8 L 826.8 589.9 L 828.7 175.6 Z" fill="#fffdf7" stroke="#475569" stroke-width="2" opacity="0.65" />
      <text x="848" y="184" font-size="16" fill="#475569" font-weight="800">输出/证据</text>
    </g>
<path d="M 384.0 253.0 C 426.3 264.3, 443.0 263.2, 473.0 253.0" fill="none" stroke="#d97757" stroke-width="3" stroke-linecap="round" marker-end="url(#arrow)" opacity="0.72" />
<path d="M 767.0 253.0 C 804.4 261.8, 840.9 267.3, 856.0 253.0" fill="none" stroke="#2f855a" stroke-width="3" stroke-linecap="round" marker-end="url(#arrow)" opacity="0.72" />
<path d="M 1150.0 253.0 C 788.6 245.6, 391.7 360.3, 90.0 351.0" fill="none" stroke="#d97757" stroke-width="3" stroke-linecap="round" marker-end="url(#arrow)" opacity="0.72" />
<path d="M 384.0 351.0 C 425.4 340.6, 431.9 335.4, 473.0 351.0" fill="none" stroke="#d97757" stroke-width="3" stroke-linecap="round" marker-end="url(#arrow)" opacity="0.72" />
<path d="M 767.0 351.0 C 791.1 341.0, 814.1 356.3, 856.0 351.0" fill="none" stroke="#2f855a" stroke-width="3" stroke-linecap="round" marker-end="url(#arrow)" opacity="0.72" />
<g>
    <path d="M 106.0 222.0 L 366.3 222.5 L 385.5 240.2 L 383.4 269.8 L 368.0 287.5 L 108.5 288.3 L 89.9 267.8 L 87.6 240.5 Z" fill="#fff7d6" stroke="#d97757" stroke-width="2.4" />
    <path d="M 111.1 222.8 L 366.6 223.9 L 382.3 240.3 L 380.2 267.7 L 366.8 282.6 L 107.8 284.5 L 92.8 269.1 L 92.6 236.6 Z" fill="none" stroke="#d97757" stroke-width="1.1" opacity="0.28" />
    <text x="108" y="252" font-size="18" fill="#171717" font-weight="750">私有入口</text>
  </g>
<g>
    <path d="M 493.4 218.4 L 751.4 221.3 L 768.3 238.5 L 767.1 269.6 L 748.9 286.1 L 492.4 288.2 L 472.4 266.3 L 470.7 236.6 Z" fill="#e9f4ff" stroke="#3b82f6" stroke-width="2.4" />
    <path d="M 490.3 226.2 L 747.0 225.6 L 764.9 238.8 L 764.6 268.5 L 749.7 282.5 L 492.3 283.7 L 478.1 265.3 L 476.5 236.7 Z" fill="none" stroke="#3b82f6" stroke-width="1.1" opacity="0.28" />
    <text x="491" y="252" font-size="18" fill="#171717" font-weight="750">解析后参数</text>
  </g>
<g>
    <path d="M 874.9 217.7 L 1132.0 218.5 L 1150.6 238.6 L 1149.3 267.1 L 1133.9 287.0 L 876.1 286.9 L 853.9 267.4 L 854.2 238.7 Z" fill="#ecfdf3" stroke="#2f855a" stroke-width="2.4" stroke-dasharray="8 8" />
    <path d="M 874.7 223.2 L 1133.5 226.5 L 1143.7 238.5 L 1147.4 264.7 L 1131.0 283.4 L 874.6 282.7 L 862.3 267.3 L 862.5 238.4 Z" fill="none" stroke="#2f855a" stroke-width="1.1" opacity="0.28" />
    <text x="874" y="252" font-size="18" fill="#171717" font-weight="750">helper 进程</text>
  </g>
<g>
    <path d="M 108.2 315.5 L 365.7 318.5 L 384.5 335.3 L 382.2 364.7 L 366.7 385.9 L 107.3 385.3 L 89.4 366.2 L 91.6 334.2 Z" fill="#fff1f2" stroke="#be4456" stroke-width="2.4" />
    <path d="M 107.3 321.1 L 367.5 321.2 L 377.7 336.8 L 381.3 362.7 L 364.8 381.2 L 108.9 378.4 L 96.2 365.1 L 94.3 336.4 Z" fill="none" stroke="#be4456" stroke-width="1.1" opacity="0.28" />
    <text x="108" y="350" font-size="18" fill="#171717" font-weight="750">打包脚本</text>
  </g>
<g>
    <path d="M 489.4 318.4 L 748.6 317.8 L 766.5 336.6 L 766.8 367.3 L 748.2 385.0 L 492.5 382.4 L 472.8 367.3 L 471.8 336.4 Z" fill="#f3e8ff" stroke="#8b5cf6" stroke-width="2.4" />
    <path d="M 490.1 323.2 L 749.4 321.2 L 765.3 337.7 L 763.8 363.2 L 746.5 378.6 L 494.0 381.8 L 477.2 366.5 L 478.7 336.8 Z" fill="none" stroke="#8b5cf6" stroke-width="1.1" opacity="0.28" />
    <text x="491" y="350" font-size="18" fill="#171717" font-weight="750">CI 预期</text>
  </g>
<g>
    <path d="M 875.4 317.0 L 1129.8 316.9 L 1147.6 333.6 L 1150.3 366.0 L 1129.7 382.2 L 874.7 386.3 L 854.6 367.9 L 855.7 335.0 Z" fill="#fef3c7" stroke="#b7791f" stroke-width="2.4" stroke-dasharray="8 8" />
    <path d="M 872.9 321.4 L 1132.1 323.5 L 1144.4 334.7 L 1143.6 366.9 L 1129.4 382.3 L 876.6 379.5 L 859.6 366.5 L 858.6 335.9 Z" fill="none" stroke="#b7791f" stroke-width="1.1" opacity="0.28" />
    <text x="874" y="350" font-size="18" fill="#171717" font-weight="750">稳定错误语义</text>
  </g>
  </g>
</svg>
