<?xml version="1.0" encoding="UTF-8"?>
<svg xmlns="http://www.w3.org/2000/svg" width="1280" height="700" viewBox="0 0 1280 700" role="img" aria-labelledby="title-chapter-02-concept-1-en desc-chapter-02-concept-1-en">
  <title id="title-chapter-02-concept-1-en">JavaScript Bootloader Boundary</title>
  <desc id="desc-chapter-02-concept-1-en">Hand-drawn whiteboard figure for JavaScript Bootloader Boundary, showing the relationship between Installed command, Platform detection, Native binary lookup, Helper path setup, Signal forwarding.</desc>
  <defs>
    <marker id="arrow" markerWidth="12" markerHeight="12" refX="10" refY="6" orient="auto" markerUnits="strokeWidth">
      <path d="M 1 1 L 11 6 L 1 11 z" fill="#d97757" />
    </marker>
    <filter id="paper-chapter-02-concept-1-en" x="-5%" y="-5%" width="110%" height="110%">
      <feTurbulence type="fractalNoise" baseFrequency="0.85" numOctaves="2" stitchTiles="stitch" result="noise" />
      <feColorMatrix type="saturate" values="0" />
      <feComponentTransfer>
        <feFuncA type="table" tableValues="0 0.045" />
      </feComponentTransfer>
    </filter>
  </defs>
  <rect x="0" y="0" width="1280" height="700" rx="30" fill="#fffdf7" />
  <path d="M 47.6 21.5 L 1230.8 24.1 L 1258.9 51.7 L 1259.7 652.2 L 1231.9 678.8 L 50.9 676.3 L 20.8 651.9 L 20.1 51.8 Z" fill="none" stroke="#171717" stroke-width="2" opacity="0.18" />
  <rect x="0" y="0" width="1280" height="700" filter="url(#paper-chapter-02-concept-1-en)" />
  <g font-family="Virgil, 'Comic Sans MS', 'Segoe Print', 'LXGW WenKai', 'Noto Sans CJK SC', cursive" letter-spacing="0">
    <text x="66" y="95" font-size="33" fill="#171717" font-weight="800">JavaScript Bootloader Boundary</text>
    <path d="M 64.0 166.0 C 457.6 169.2, 861.1 149.7, 1210.0 160.0" fill="none" stroke="#171717" stroke-width="2" opacity="0.22" />
    <g>
      <path d="M 89.7 150.1 L 383.8 147.9 L 411.1 174.4 L 411.3 588.1 L 388.1 614.3 L 90.0 612.8 L 63.3 587.0 L 63.2 175.8 Z" fill="#fffdf7" stroke="#475569" stroke-width="2" opacity="0.65" />
      <text x="82" y="184" font-size="16" fill="#475569" font-weight="800">Input / origin</text>
    </g>
<g>
      <path d="M 472.0 149.4 L 768.9 151.9 L 796.6 177.4 L 795.1 590.8 L 766.9 614.5 L 469.0 616.4 L 444.5 588.4 L 446.7 178.4 Z" fill="#fff7d6" stroke="#d97757" stroke-width="2" opacity="0.65" />
      <text x="465" y="184" font-size="16" fill="#475569" font-weight="800">Runtime boundary</text>
    </g>
<g>
      <path d="M 852.1 150.0 L 1150.1 149.0 L 1180.0 174.8 L 1177.7 589.4 L 1149.7 615.3 L 852.5 616.0 L 826.4 591.3 L 825.9 175.2 Z" fill="#fffdf7" stroke="#475569" stroke-width="2" opacity="0.65" />
      <text x="848" y="184" font-size="16" fill="#475569" font-weight="800">Output / evidence</text>
    </g>
<path d="M 384.0 253.0 C 413.7 242.0, 436.5 251.0, 473.0 253.0" fill="none" stroke="#d97757" stroke-width="3" stroke-linecap="round" marker-end="url(#arrow)" opacity="0.72" />
<path d="M 767.0 253.0 C 784.9 252.7, 826.9 239.8, 856.0 253.0" fill="none" stroke="#2f855a" stroke-width="3" stroke-linecap="round" marker-end="url(#arrow)" opacity="0.72" />
<path d="M 1150.0 253.0 C 767.6 257.8, 404.0 335.4, 90.0 351.0" fill="none" stroke="#d97757" stroke-width="3" stroke-linecap="round" marker-end="url(#arrow)" opacity="0.72" />
<path d="M 384.0 351.0 C 427.7 358.3, 445.2 344.4, 473.0 351.0" fill="none" stroke="#d97757" stroke-width="3" stroke-linecap="round" marker-end="url(#arrow)" opacity="0.72" />
<path d="M 767.0 351.0 C 813.7 366.7, 846.0 351.6, 856.0 351.0" fill="none" stroke="#2f855a" stroke-width="3" stroke-linecap="round" marker-end="url(#arrow)" opacity="0.72" />
<g>
    <path d="M 109.8 218.1 L 364.8 222.2 L 384.2 237.5 L 382.7 267.6 L 365.4 287.6 L 109.7 284.1 L 89.3 265.6 L 92.4 240.2 Z" fill="#fff7d6" stroke="#d97757" stroke-width="2.4" />
    <path d="M 109.3 223.0 L 366.2 221.6 L 377.9 239.3 L 380.5 269.5 L 362.9 280.8 L 111.3 282.0 L 93.1 267.7 L 91.8 236.8 Z" fill="none" stroke="#d97757" stroke-width="1.1" opacity="0.28" />
    <text x="108" y="252" font-size="18" fill="#171717" font-weight="750">Installed command</text>
  </g>
<g>
    <path d="M 489.0 218.6 L 748.9 221.2 L 769.5 240.5 L 767.7 267.2 L 747.6 286.5 L 490.4 287.3 L 470.7 270.3 L 472.8 237.0 Z" fill="#e9f4ff" stroke="#3b82f6" stroke-width="2.4" />
    <path d="M 493.6 224.9 L 745.9 222.7 L 764.4 238.9 L 760.6 265.1 L 748.8 280.1 L 492.1 283.9 L 476.8 269.2 L 476.3 240.6 Z" fill="none" stroke="#3b82f6" stroke-width="1.1" opacity="0.28" />
    <text x="491" y="252" font-size="18" fill="#171717" font-weight="750">Platform detection</text>
  </g>
<g>
    <path d="M 872.9 220.1 L 1130.7 219.2 L 1152.4 240.4 L 1148.6 267.5 L 1133.3 286.4 L 875.2 288.3 L 856.9 267.6 L 855.3 239.9 Z" fill="#ecfdf3" stroke="#2f855a" stroke-width="2.4" stroke-dasharray="8 8" />
    <path d="M 874.7 222.8 L 1129.5 224.6 L 1146.6 236.7 L 1146.6 267.5 L 1128.8 282.3 L 877.0 282.1 L 860.3 266.0 L 860.7 239.9 Z" fill="none" stroke="#2f855a" stroke-width="1.1" opacity="0.28" />
    <text x="874" y="252" font-size="18" fill="#171717" font-weight="750">Native binary lookup</text>
  </g>
<g>
    <path d="M 107.0 316.4 L 364.1 319.7 L 384.1 337.8 L 382.7 365.0 L 366.2 382.8 L 108.5 386.0 L 90.2 366.7 L 91.0 338.3 Z" fill="#fff1f2" stroke="#be4456" stroke-width="2.4" />
    <path d="M 109.2 323.2 L 366.4 322.8 L 381.2 336.8 L 378.3 362.8 L 363.6 382.1 L 106.7 377.8 L 96.2 364.9 L 93.7 334.8 Z" fill="none" stroke="#be4456" stroke-width="1.1" opacity="0.28" />
    <text x="108" y="350" font-size="18" fill="#171717" font-weight="750">Helper path setup</text>
  </g>
<g>
    <path d="M 491.3 318.6 L 747.6 319.2 L 766.3 334.3 L 768.8 364.8 L 748.6 383.6 L 488.5 383.8 L 474.0 367.1 L 470.6 337.5 Z" fill="#f3e8ff" stroke="#8b5cf6" stroke-width="2.4" />
    <path d="M 491.2 323.7 L 750.3 321.0 L 761.3 337.7 L 763.6 364.1 L 749.3 382.2 L 493.2 379.1 L 478.4 364.2 L 477.6 336.9 Z" fill="none" stroke="#8b5cf6" stroke-width="1.1" opacity="0.28" />
    <text x="491" y="350" font-size="18" fill="#171717" font-weight="750">Signal forwarding</text>
  </g>
<g>
    <path d="M 873.0 318.9 L 1134.1 315.8 L 1152.4 336.6 L 1148.8 367.3 L 1129.5 383.3 L 872.3 384.4 L 854.5 364.2 L 854.3 338.2 Z" fill="#fef3c7" stroke="#b7791f" stroke-width="2.4" stroke-dasharray="8 8" />
    <path d="M 875.6 320.3 L 1129.1 321.3 L 1147.4 334.7 L 1145.1 364.1 L 1130.0 379.6 L 874.4 379.7 L 858.6 364.4 L 860.4 337.1 Z" fill="none" stroke="#b7791f" stroke-width="1.1" opacity="0.28" />
    <text x="874" y="350" font-size="17" fill="#171717" font-weight="750">Rust router owns semantics</text>
  </g>
  </g>
</svg>
