<?xml version="1.0" encoding="UTF-8"?>
<svg xmlns="http://www.w3.org/2000/svg" width="1280" height="700" viewBox="0 0 1280 700" role="img" aria-labelledby="title-chapter-07-02-zh desc-chapter-07-02-zh">
  <title id="title-chapter-07-02-zh">多种 transport，统一事件词汇</title>
  <desc id="desc-chapter-07-02-zh">多种 transport，统一事件词汇的手绘白板图，展示提示 + 工具 + 选项、HTTP 请求 SSE 帧、WebSocket 会话请求消息、传输适配、响应事件流式条目、delta、使用、错误之间的关系。</desc>
  <defs>
    <marker id="arrow" markerWidth="12" markerHeight="12" refX="10" refY="6" orient="auto" markerUnits="strokeWidth">
      <path d="M 1 1 L 11 6 L 1 11 z" fill="#d97757" />
    </marker>
    <filter id="paper-chapter-07-02-zh" x="-5%" y="-5%" width="110%" height="110%">
      <feTurbulence type="fractalNoise" baseFrequency="0.85" numOctaves="2" stitchTiles="stitch" result="noise" />
      <feColorMatrix type="saturate" values="0" />
      <feComponentTransfer>
        <feFuncA type="table" tableValues="0 0.045" />
      </feComponentTransfer>
    </filter>
  </defs>
  <rect x="0" y="0" width="1280" height="700" rx="30" fill="#fffdf7" />
  <path d="M 51.1 23.0 L 1232.4 22.0 L 1258.3 52.4 L 1257.4 650.7 L 1229.3 678.9 L 50.5 679.6 L 24.3 648.3 L 23.4 51.8 Z" fill="none" stroke="#171717" stroke-width="2" opacity="0.18" />
  <rect x="0" y="0" width="1280" height="700" filter="url(#paper-chapter-07-02-zh)" />
  <g font-family="Virgil, 'Comic Sans MS', 'Segoe Print', 'LXGW WenKai', 'Noto Sans CJK SC', cursive" letter-spacing="0">
    <text x="66" y="95" font-size="31" fill="#171717" font-weight="800">多种 transport</text>
<text x="66" y="133.75" font-size="31" fill="#171717" font-weight="800">统一事件词汇</text>
    <path d="M 64.0 166.0 C 460.5 177.5, 850.3 163.4, 1210.0 160.0" fill="none" stroke="#171717" stroke-width="2" opacity="0.22" />
    <g>
      <path d="M 87.4 148.5 L 386.3 151.7 L 410.2 177.4 L 412.4 589.1 L 383.6 612.5 L 88.8 616.5 L 61.8 589.9 L 60.3 175.5 Z" fill="#fffdf7" stroke="#475569" stroke-width="2" opacity="0.65" />
      <text x="82" y="184" font-size="16" fill="#475569" font-weight="800">输入/来源</text>
    </g>
<g>
      <path d="M 469.3 149.6 L 769.6 151.5 L 792.9 174.0 L 796.1 587.5 L 769.8 614.6 L 473.1 616.1 L 445.4 587.2 L 444.3 177.2 Z" fill="#fff7d6" stroke="#d97757" stroke-width="2" opacity="0.65" />
      <text x="465" y="184" font-size="16" fill="#475569" font-weight="800">运行时边界</text>
    </g>
<g>
      <path d="M 854.8 149.1 L 1150.9 149.1 L 1180.3 175.4 L 1176.0 589.7 L 1151.1 615.6 L 853.5 617.1 L 829.5 588.2 L 829.1 175.9 Z" fill="#fffdf7" stroke="#475569" stroke-width="2" opacity="0.65" />
      <text x="848" y="184" font-size="16" fill="#475569" font-weight="800">输出/证据</text>
    </g>
<path d="M 384.0 253.0 C 399.8 258.2, 443.4 252.0, 473.0 253.0" fill="none" stroke="#d97757" stroke-width="3" stroke-linecap="round" marker-end="url(#arrow)" opacity="0.72" />
<path d="M 767.0 253.0 C 793.5 251.6, 832.1 256.7, 856.0 253.0" fill="none" stroke="#2f855a" stroke-width="3" stroke-linecap="round" marker-end="url(#arrow)" opacity="0.72" />
<path d="M 1150.0 253.0 C 790.2 259.7, 406.8 359.9, 90.0 351.0" fill="none" stroke="#d97757" stroke-width="3" stroke-linecap="round" marker-end="url(#arrow)" opacity="0.72" />
<path d="M 384.0 351.0 C 398.2 338.1, 453.9 343.8, 473.0 351.0" fill="none" stroke="#d97757" stroke-width="3" stroke-linecap="round" marker-end="url(#arrow)" opacity="0.72" />
<path d="M 767.0 351.0 C 809.1 347.4, 827.4 345.5, 856.0 351.0" fill="none" stroke="#2f855a" stroke-width="3" stroke-linecap="round" marker-end="url(#arrow)" opacity="0.72" />
<path d="M 1150.0 351.0 C 790.8 338.8, 395.3 446.0, 90.0 449.0" fill="none" stroke="#d97757" stroke-width="3" stroke-linecap="round" marker-end="url(#arrow)" opacity="0.72" />
<g>
    <path d="M 108.6 221.3 L 365.9 220.3 L 383.2 238.2 L 386.1 270.2 L 367.6 286.7 L 110.4 284.1 L 89.8 270.0 L 88.5 235.9 Z" fill="#fff7d6" stroke="#d97757" stroke-width="2.4" />
    <path d="M 109.7 221.9 L 363.0 226.2 L 378.9 238.1 L 382.3 269.4 L 364.0 283.0 L 110.4 281.4 L 94.1 268.0 L 94.7 240.4 Z" fill="none" stroke="#d97757" stroke-width="1.1" opacity="0.28" />
    <text x="108" y="252" font-size="18" fill="#171717" font-weight="750">提示+工具+选项</text>
  </g>
<g>
    <path d="M 492.3 220.4 L 748.0 217.7 L 767.8 238.4 L 766.7 268.8 L 748.7 284.0 L 489.3 288.3 L 471.1 270.0 L 472.0 238.2 Z" fill="#e9f4ff" stroke="#3b82f6" stroke-width="2.4" />
    <path d="M 490.6 223.0 L 748.2 223.0 L 761.7 241.0 L 761.3 264.7 L 745.5 283.7 L 494.0 282.4 L 478.7 267.8 L 478.5 240.8 Z" fill="none" stroke="#3b82f6" stroke-width="1.1" opacity="0.28" />
    <text x="491" y="252" font-size="18" fill="#171717" font-weight="750">HTTP 请求 SSE 帧</text>
  </g>
<g>
    <path d="M 871.6 220.4 L 1131.7 219.9 L 1151.7 237.4 L 1149.9 268.6 L 1130.1 287.1 L 873.2 285.6 L 857.0 267.8 L 854.0 235.6 Z" fill="#ecfdf3" stroke="#2f855a" stroke-width="2.4" stroke-dasharray="8 8" />
    <path d="M 873.0 225.8 L 1132.0 222.7 L 1145.3 240.1 L 1148.4 267.3 L 1128.8 280.3 L 877.1 280.2 L 861.3 268.6 L 857.8 237.7 Z" fill="none" stroke="#2f855a" stroke-width="1.1" opacity="0.28" />
    <text x="874" y="252" font-size="18" fill="#171717" font-weight="750">WebSocket</text>
<text x="874" y="274.5" font-size="18" fill="#171717" font-weight="750">会话请求消息</text>
  </g>
<g>
    <path d="M 109.3 319.5 L 363.5 319.3 L 384.6 337.9 L 381.9 367.0 L 365.3 384.0 L 108.6 386.4 L 89.3 367.2 L 90.1 336.9 Z" fill="#fff1f2" stroke="#be4456" stroke-width="2.4" />
    <path d="M 106.8 322.2 L 364.8 320.8 L 379.6 338.9 L 380.6 366.0 L 365.8 378.9 L 107.3 377.7 L 93.8 367.1 L 95.1 335.1 Z" fill="none" stroke="#be4456" stroke-width="1.1" opacity="0.28" />
    <text x="108" y="350" font-size="18" fill="#171717" font-weight="750">传输适配</text>
  </g>
<g>
    <path d="M 491.7 319.3 L 750.9 318.3 L 768.0 336.4 L 766.3 366.2 L 747.1 385.5 L 491.7 382.2 L 471.6 364.0 L 470.6 334.2 Z" fill="#f3e8ff" stroke="#8b5cf6" stroke-width="2.4" />
    <path d="M 491.4 319.8 L 748.8 321.6 L 762.4 335.0 L 762.9 366.1 L 748.8 382.4 L 491.6 382.4 L 474.8 365.1 L 477.5 338.2 Z" fill="none" stroke="#8b5cf6" stroke-width="1.1" opacity="0.28" />
    <text x="491" y="350" font-size="18" fill="#171717" font-weight="750">响应事件流式条目</text>
<text x="491" y="372.5" font-size="18" fill="#171717" font-weight="750">delta、使用、错误</text>
  </g>
<g>
    <path d="M 873.9 316.7 L 1131.3 317.4 L 1150.9 335.8 L 1147.6 365.8 L 1131.8 382.9 L 873.2 386.3 L 856.3 365.1 L 854.5 334.4 Z" fill="#fef3c7" stroke="#b7791f" stroke-width="2.4" stroke-dasharray="8 8" />
    <path d="M 874.7 324.3 L 1129.4 320.3 L 1147.3 339.5 L 1145.8 364.5 L 1131.5 379.5 L 873.1 378.1 L 862.4 362.8 L 857.8 337.8 Z" fill="none" stroke="#b7791f" stroke-width="1.1" opacity="0.28" />
    <text x="874" y="350" font-size="18" fill="#171717" font-weight="750">Turn 循环</text>
  </g>
<g>
    <path d="M 107.3 416.7 L 365.2 414.1 L 386.4 432.8 L 382.4 464.2 L 364.8 483.9 L 107.1 484.4 L 88.5 464.4 L 90.2 433.5 Z" fill="#eef2ff" stroke="#4f46e5" stroke-width="2.4" />
    <path d="M 108.0 418.0 L 366.7 418.4 L 379.5 433.2 L 380.3 465.0 L 365.6 478.7 L 109.6 480.5 L 95.7 461.1 L 95.6 436.4 Z" fill="none" stroke="#4f46e5" stroke-width="1.1" opacity="0.28" />
    <text x="108" y="448" font-size="18" fill="#171717" font-weight="750">提示</text>
  </g>
  </g>
</svg>
