<?xml version="1.0" encoding="UTF-8"?>
<svg xmlns="http://www.w3.org/2000/svg" width="1280" height="700" viewBox="0 0 1280 700" role="img" aria-labelledby="title-chapter-03-concept-1-zh desc-chapter-03-concept-1-zh">
  <title id="title-chapter-03-concept-1-zh">偏好与要求</title>
  <desc id="desc-chapter-03-concept-1-zh">偏好与要求的手绘白板图，展示用户偏好、托管要求、来源信息、限制性合并、失败即关闭之间的关系。</desc>
  <defs>
    <marker id="arrow" markerWidth="12" markerHeight="12" refX="10" refY="6" orient="auto" markerUnits="strokeWidth">
      <path d="M 1 1 L 11 6 L 1 11 z" fill="#d97757" />
    </marker>
    <filter id="paper-chapter-03-concept-1-zh" x="-5%" y="-5%" width="110%" height="110%">
      <feTurbulence type="fractalNoise" baseFrequency="0.85" numOctaves="2" stitchTiles="stitch" result="noise" />
      <feColorMatrix type="saturate" values="0" />
      <feComponentTransfer>
        <feFuncA type="table" tableValues="0 0.045" />
      </feComponentTransfer>
    </filter>
  </defs>
  <rect x="0" y="0" width="1280" height="700" rx="30" fill="#fffdf7" />
  <path d="M 48.0 23.3 L 1232.5 23.4 L 1258.9 50.5 L 1259.2 649.1 L 1228.4 676.9 L 51.0 680.3 L 20.1 649.5 L 20.5 49.3 Z" fill="none" stroke="#171717" stroke-width="2" opacity="0.18" />
  <rect x="0" y="0" width="1280" height="700" filter="url(#paper-chapter-03-concept-1-zh)" />
  <g font-family="Virgil, 'Comic Sans MS', 'Segoe Print', 'LXGW WenKai', 'Noto Sans CJK SC', cursive" letter-spacing="0">
    <text x="66" y="95" font-size="31" fill="#171717" font-weight="800">偏好与要求</text>
    <path d="M 64.0 166.0 C 474.1 162.0, 851.6 154.7, 1210.0 160.0" fill="none" stroke="#171717" stroke-width="2" opacity="0.22" />
    <g>
      <path d="M 96.1 147.8 L 393.7 151.4 L 417.6 175.4 L 417.7 596.7 L 394.0 622.5 L 92.5 617.7 L 68.6 598.1 L 72.1 171.8 Z" fill="#f8fafc" stroke="#475569" stroke-width="1.8" stroke-dasharray="8 10" opacity="0.72" />
      <text x="90" y="184" font-size="16" fill="#475569" font-weight="800">外部表面</text>
    </g>
<g>
      <path d="M 487.8 151.6 L 789.7 152.2 L 817.1 173.9 L 815.6 593.6 L 791.1 617.6 L 490.7 620.5 L 462.9 597.5 L 466.4 175.2 Z" fill="#fffdf7" stroke="#475569" stroke-width="1.8" stroke-dasharray="0" opacity="0.72" />
      <text x="485" y="184" font-size="16" fill="#475569" font-weight="800">运行时契约</text>
    </g>
<g>
      <path d="M 882.0 152.1 L 1186.6 147.6 L 1208.7 175.6 L 1208.0 597.4 L 1183.7 620.4 L 886.3 620.5 L 858.4 596.4 L 861.4 175.7 Z" fill="#f8fafc" stroke="#475569" stroke-width="1.8" stroke-dasharray="8 10" opacity="0.72" />
      <text x="880" y="184" font-size="16" fill="#475569" font-weight="800">执行边界</text>
    </g>
<path d="M 396.0 253.0 C 434.2 253.3, 472.8 255.4, 489.0 253.0" fill="none" stroke="#d97757" stroke-width="3" stroke-linecap="round" marker-end="url(#arrow)" opacity="0.72" />
<path d="M 791.0 253.0 C 818.8 255.4, 865.9 255.9, 884.0 253.0" fill="none" stroke="#d97757" stroke-width="3" stroke-linecap="round" marker-end="url(#arrow)" opacity="0.72" />
<path d="M 1186.0 253.0 C 816.4 255.2, 418.9 366.4, 94.0 365.0" fill="none" stroke="#d97757" stroke-width="3" stroke-linecap="round" stroke-dasharray="8 9" marker-end="url(#arrow)" opacity="0.72" />
<path d="M 396.0 365.0 C 434.8 371.8, 450.1 351.5, 489.0 365.0" fill="none" stroke="#d97757" stroke-width="3" stroke-linecap="round" marker-end="url(#arrow)" opacity="0.72" />
<path d="M 791.0 365.0 C 811.9 370.6, 856.8 353.3, 884.0 365.0" fill="none" stroke="#d97757" stroke-width="3" stroke-linecap="round" marker-end="url(#arrow)" opacity="0.72" />
<g>
    <path d="M 109.8 215.0 L 379.7 216.7 L 397.9 234.7 L 395.1 271.4 L 379.3 290.7 L 114.1 290.4 L 95.5 272.9 L 93.3 233.5 Z" fill="#fff7d6" stroke="#d97757" stroke-width="2.4" />
    <path d="M 114.4 217.6 L 375.0 218.8 L 392.8 234.1 L 390.2 269.9 L 378.8 285.5 L 112.7 287.8 L 97.5 271.4 L 95.7 236.2 Z" fill="none" stroke="#d97757" stroke-width="1.1" opacity="0.28" />
    <text x="112" y="248" font-size="18" fill="#171717" font-weight="750">用户偏好</text>
  </g>
<g>
    <path d="M 507.3 215.1 L 774.7 216.7 L 791.9 231.5 L 789.0 270.1 L 773.8 289.1 L 507.7 292.0 L 487.5 274.3 L 486.8 234.5 Z" fill="#e9f4ff" stroke="#3b82f6" stroke-width="2.4" />
    <path d="M 507.4 221.2 L 773.7 221.9 L 789.4 235.8 L 785.0 271.9 L 773.7 287.0 L 509.4 283.6 L 490.7 271.3 L 494.0 234.7 Z" fill="none" stroke="#3b82f6" stroke-width="1.1" opacity="0.28" />
    <text x="507" y="248" font-size="18" fill="#171717" font-weight="750">托管要求</text>
  </g>
<g>
    <path d="M 899.7 216.5 L 1167.2 216.7 L 1184.4 234.7 L 1184.4 270.9 L 1169.7 287.7 L 904.2 291.6 L 882.4 271.7 L 885.1 232.8 Z" fill="#ecfdf3" stroke="#2f855a" stroke-width="2.4" />
    <path d="M 904.7 219.1 L 1168.7 220.7 L 1181.9 236.0 L 1181.3 272.2 L 1166.2 284.6 L 905.2 288.5 L 887.9 271.9 L 885.9 237.3 Z" fill="none" stroke="#2f855a" stroke-width="1.1" opacity="0.28" />
    <text x="902" y="248" font-size="18" fill="#171717" font-weight="750">来源信息</text>
  </g>
<g>
    <path d="M 110.0 329.2 L 379.7 326.4 L 393.9 348.1 L 395.1 385.7 L 376.0 400.1 L 109.8 400.6 L 94.9 384.5 L 91.5 345.9 Z" fill="#fff1f2" stroke="#be4456" stroke-width="2.4" />
    <path d="M 113.4 329.9 L 376.7 329.7 L 394.2 346.0 L 391.5 385.2 L 377.1 396.9 L 110.5 399.3 L 100.0 381.1 L 100.1 346.5 Z" fill="none" stroke="#be4456" stroke-width="1.1" opacity="0.28" />
    <text x="112" y="360" font-size="18" fill="#171717" font-weight="750">限制性合并</text>
  </g>
<g>
    <path d="M 504.8 330.4 L 774.5 329.4 L 792.7 346.3 L 790.0 386.0 L 774.8 403.9 L 504.6 402.7 L 490.0 385.6 L 489.8 347.5 Z" fill="#f3e8ff" stroke="#8b5cf6" stroke-width="2.4" />
    <path d="M 507.3 332.7 L 769.8 333.3 L 784.6 346.1 L 786.9 383.7 L 774.3 397.9 L 509.2 400.2 L 491.1 384.6 L 493.4 347.7 Z" fill="none" stroke="#8b5cf6" stroke-width="1.1" opacity="0.28" />
    <text x="507" y="360" font-size="18" fill="#171717" font-weight="750">失败即关闭</text>
  </g>
<g>
    <path d="M 903.2 328.0 L 1166.8 327.6 L 1187.8 348.1 L 1187.0 383.4 L 1166.5 403.6 L 903.4 404.3 L 885.9 382.6 L 885.5 344.1 Z" fill="#fef3c7" stroke="#b7791f" stroke-width="2.4" />
    <path d="M 904.1 331.9 L 1168.7 332.3 L 1180.5 345.8 L 1181.4 382.0 L 1164.9 397.5 L 903.9 400.2 L 886.2 381.7 L 889.8 345.1 Z" fill="none" stroke="#b7791f" stroke-width="1.1" opacity="0.28" />
    <text x="902" y="360" font-size="18" fill="#171717" font-weight="750">解析后信封</text>
  </g>
  </g>
</svg>
