<?xml version="1.0" encoding="UTF-8"?>
<svg xmlns="http://www.w3.org/2000/svg" width="1280" height="700" viewBox="0 0 1280 700" role="img" aria-labelledby="title-chapter-08-concept-2-zh desc-chapter-08-concept-2-zh">
  <title id="title-chapter-08-concept-2-zh">OTEL 运维平面</title>
  <desc id="desc-chapter-08-concept-2-zh">OTEL 运维平面的手绘白板图，展示运行时 span、provider 延迟、重试尝试、流式行为、trace 上下文之间的关系。</desc>
  <defs>
    <marker id="arrow" markerWidth="12" markerHeight="12" refX="10" refY="6" orient="auto" markerUnits="strokeWidth">
      <path d="M 1 1 L 11 6 L 1 11 z" fill="#d97757" />
    </marker>
    <filter id="paper-chapter-08-concept-2-zh" x="-5%" y="-5%" width="110%" height="110%">
      <feTurbulence type="fractalNoise" baseFrequency="0.85" numOctaves="2" stitchTiles="stitch" result="noise" />
      <feColorMatrix type="saturate" values="0" />
      <feComponentTransfer>
        <feFuncA type="table" tableValues="0 0.045" />
      </feComponentTransfer>
    </filter>
  </defs>
  <rect x="0" y="0" width="1280" height="700" rx="30" fill="#fffdf7" />
  <path d="M 47.8 20.6 L 1232.3 19.6 L 1257.2 50.5 L 1258.1 649.3 L 1229.3 679.8 L 50.9 680.2 L 23.2 650.9 L 21.5 51.7 Z" fill="none" stroke="#171717" stroke-width="2" opacity="0.18" />
  <rect x="0" y="0" width="1280" height="700" filter="url(#paper-chapter-08-concept-2-zh)" />
  <g font-family="Virgil, 'Comic Sans MS', 'Segoe Print', 'LXGW WenKai', 'Noto Sans CJK SC', cursive" letter-spacing="0">
    <text x="66" y="95" font-size="31" fill="#171717" font-weight="800">OTEL 运维平面</text>
    <path d="M 64.0 166.0 C 467.8 160.9, 879.6 153.6, 1210.0 160.0" fill="none" stroke="#171717" stroke-width="2" opacity="0.22" />
    <path d="M 90.3 165.9 L 549.3 162.6 L 568.9 187.8 L 570.1 599.5 L 546.0 619.0 L 90.6 620.2 L 68.8 599.3 L 72.1 188.1 Z" fill="#fffdf7" stroke="#475569" stroke-width="2" opacity="0.75" />
    <path d="M 730.7 163.7 L 1185.7 167.0 L 1208.1 185.9 L 1210.0 598.1 L 1186.6 620.5 L 734.4 620.6 L 711.1 599.0 L 710.3 186.9 Z" fill="#f8fafc" stroke="#475569" stroke-width="2" opacity="0.75" />
    <text x="96" y="201" font-size="17" fill="#475569" font-weight="800">事实流</text>
    <text x="736" y="201" font-size="17" fill="#475569" font-weight="800">可读投影</text>
    <path d="M 610.0 203.0 C 628.6 188.5, 646.6 218.5, 675.0 203.0" fill="none" stroke="#d97757" stroke-width="3" marker-end="url(#arrow)" opacity="0.7" />
<g>
    <path d="M 125.1 232.8 L 504.7 233.5 L 524.7 252.7 L 526.8 269.6 L 505.1 287.1 L 124.4 287.4 L 103.5 269.1 L 105.8 252.6 Z" fill="#fff7d6" stroke="#d97757" stroke-width="2.4" />
    <path d="M 123.5 239.6 L 504.7 237.0 L 520.2 255.3 L 519.7 269.9 L 508.4 281.7 L 121.7 280.6 L 109.9 266.5 L 110.6 251.8 Z" fill="none" stroke="#d97757" stroke-width="1.1" opacity="0.28" />
    <text x="123" y="267" font-size="18" fill="#171717" font-weight="750">运行时 span</text>
  </g>
<g>
    <path d="M 764.8 232.9 L 1145.3 236.1 L 1164.3 251.1 L 1163.3 266.8 L 1149.0 286.8 L 762.7 288.9 L 746.8 271.0 L 745.8 251.1 Z" fill="#e9f4ff" stroke="#3b82f6" stroke-width="2.4" stroke-dasharray="8 8" />
    <path d="M 764.3 237.7 L 1144.8 240.6 L 1161.0 254.2 L 1163.0 270.2 L 1145.8 284.5 L 766.4 282.6 L 749.2 267.9 L 751.5 256.3 Z" fill="none" stroke="#3b82f6" stroke-width="1.1" opacity="0.28" />
    <text x="763" y="267" font-size="18" fill="#171717" font-weight="750">provider 延迟</text>
  </g>
<g>
    <path d="M 125.2 296.5 L 506.7 298.9 L 524.5 318.8 L 527.2 334.8 L 507.9 350.2 L 125.0 352.4 L 106.5 332.4 L 106.2 316.8 Z" fill="#ecfdf3" stroke="#2f855a" stroke-width="2.4" />
    <path d="M 122.2 302.8 L 505.5 302.2 L 518.9 316.1 L 522.0 331.3 L 507.7 349.4 L 122.7 345.2 L 107.5 332.3 L 108.3 315.5 Z" fill="none" stroke="#2f855a" stroke-width="1.1" opacity="0.28" />
    <text x="123" y="331" font-size="18" fill="#171717" font-weight="750">重试尝试</text>
  </g>
<g>
    <path d="M 762.9 299.6 L 1145.7 301.4 L 1164.3 314.8 L 1167.2 332.7 L 1149.1 352.7 L 764.1 352.7 L 742.9 332.0 L 746.6 317.7 Z" fill="#fff1f2" stroke="#be4456" stroke-width="2.4" stroke-dasharray="8 8" />
    <path d="M 765.7 301.2 L 1144.1 304.4 L 1161.2 318.1 L 1162.7 331.7 L 1144.9 346.4 L 763.0 348.0 L 750.8 331.4 L 747.8 317.4 Z" fill="none" stroke="#be4456" stroke-width="1.1" opacity="0.28" />
    <text x="763" y="331" font-size="18" fill="#171717" font-weight="750">流式行为</text>
  </g>
<g>
    <path d="M 123.1 364.6 L 508.3 364.6 L 525.0 379.0 L 523.5 395.1 L 506.3 417.0 L 123.6 413.2 L 104.9 397.1 L 106.0 378.8 Z" fill="#f3e8ff" stroke="#8b5cf6" stroke-width="2.4" />
    <path d="M 125.2 367.2 L 506.1 369.1 L 521.2 383.4 L 520.9 396.6 L 506.7 410.9 L 124.1 410.7 L 111.0 395.4 L 109.9 381.5 Z" fill="none" stroke="#8b5cf6" stroke-width="1.1" opacity="0.28" />
    <text x="123" y="395" font-size="18" fill="#171717" font-weight="750">trace 上下文</text>
  </g>
<g>
    <path d="M 762.0 365.2 L 1145.1 363.2 L 1164.3 382.8 L 1163.5 398.1 L 1145.6 412.8 L 761.6 413.2 L 746.0 398.6 L 744.8 379.8 Z" fill="#fef3c7" stroke="#b7791f" stroke-width="2.4" stroke-dasharray="8 8" />
    <path d="M 766.2 368.3 L 1145.2 365.8 L 1160.3 382.0 L 1162.9 395.3 L 1147.0 410.8 L 766.5 411.0 L 747.1 395.4 L 749.2 383.1 Z" fill="none" stroke="#b7791f" stroke-width="1.1" opacity="0.28" />
    <text x="763" y="395" font-size="18" fill="#171717" font-weight="750">运维视图</text>
  </g>
  </g>
</svg>
