<?xml version="1.0" encoding="UTF-8"?>
<svg xmlns="http://www.w3.org/2000/svg" width="1280" height="700" viewBox="0 0 1280 700" role="img" aria-labelledby="title-chapter-04-02-zh desc-chapter-04-02-zh">
  <title id="title-chapter-04-02-zh">App 服务端 JSON-RPC</title>
  <desc id="desc-chapter-04-02-zh">App 服务端 JSON-RPC的手绘白板图，展示IDE 或 SDK 客户端、传输适配、JSON-RPC 信封、消息处理器、线程、Turn、条目 API之间的关系。</desc>
  <defs>
    <marker id="arrow" markerWidth="12" markerHeight="12" refX="10" refY="6" orient="auto" markerUnits="strokeWidth">
      <path d="M 1 1 L 11 6 L 1 11 z" fill="#d97757" />
    </marker>
    <filter id="paper-chapter-04-02-zh" x="-5%" y="-5%" width="110%" height="110%">
      <feTurbulence type="fractalNoise" baseFrequency="0.85" numOctaves="2" stitchTiles="stitch" result="noise" />
      <feColorMatrix type="saturate" values="0" />
      <feComponentTransfer>
        <feFuncA type="table" tableValues="0 0.045" />
      </feComponentTransfer>
    </filter>
  </defs>
  <rect x="0" y="0" width="1280" height="700" rx="30" fill="#fffdf7" />
  <path d="M 48.1 22.8 L 1228.9 24.3 L 1258.9 49.5 L 1256.3 648.2 L 1231.1 678.8 L 48.5 678.0 L 22.3 651.7 L 20.5 48.1 Z" fill="none" stroke="#171717" stroke-width="2" opacity="0.18" />
  <rect x="0" y="0" width="1280" height="700" filter="url(#paper-chapter-04-02-zh)" />
  <g font-family="Virgil, 'Comic Sans MS', 'Segoe Print', 'LXGW WenKai', 'Noto Sans CJK SC', cursive" letter-spacing="0">
    <text x="66" y="95" font-size="31" fill="#171717" font-weight="800">App 服务端 JSON RPC</text>
    <path d="M 64.0 166.0 C 481.6 150.9, 870.4 173.6, 1210.0 160.0" fill="none" stroke="#171717" stroke-width="2" opacity="0.22" />
    <g>
      <path d="M 92.5 147.5 L 395.7 151.8 L 419.3 176.1 L 421.8 597.4 L 398.0 620.3 L 92.7 620.7 L 68.1 597.7 L 71.6 172.5 Z" fill="#f8fafc" stroke="#475569" stroke-width="1.8" stroke-dasharray="8 10" opacity="0.72" />
      <text x="90" y="184" font-size="16" fill="#475569" font-weight="800">外部表面</text>
    </g>
<g>
      <path d="M 488.5 149.9 L 790.1 148.4 L 814.2 173.9 L 816.8 594.9 L 792.7 618.3 L 490.2 619.9 L 464.7 598.2 L 464.2 173.8 Z" fill="#fffdf7" stroke="#475569" stroke-width="1.8" stroke-dasharray="0" opacity="0.72" />
      <text x="485" y="184" font-size="16" fill="#475569" font-weight="800">运行时契约</text>
    </g>
<g>
      <path d="M 884.5 148.5 L 1185.6 150.3 L 1210.6 176.1 L 1209.5 596.1 L 1183.8 622.2 L 881.8 620.4 L 860.4 597.5 L 860.3 172.8 Z" fill="#f8fafc" stroke="#475569" stroke-width="1.8" stroke-dasharray="8 10" opacity="0.72" />
      <text x="880" y="184" font-size="16" fill="#475569" font-weight="800">执行边界</text>
    </g>
<path d="M 396.0 253.0 C 416.5 262.9, 461.8 258.3, 489.0 253.0" fill="none" stroke="#d97757" stroke-width="3" stroke-linecap="round" marker-end="url(#arrow)" opacity="0.72" />
<path d="M 791.0 253.0 C 832.9 265.1, 850.0 244.1, 884.0 253.0" fill="none" stroke="#d97757" stroke-width="3" stroke-linecap="round" marker-end="url(#arrow)" opacity="0.72" />
<path d="M 1186.0 253.0 C 818.4 267.4, 419.3 362.7, 94.0 365.0" fill="none" stroke="#d97757" stroke-width="3" stroke-linecap="round" stroke-dasharray="8 9" marker-end="url(#arrow)" opacity="0.72" />
<path d="M 396.0 365.0 C 431.8 375.3, 448.0 365.9, 489.0 365.0" fill="none" stroke="#d97757" stroke-width="3" stroke-linecap="round" marker-end="url(#arrow)" opacity="0.72" />
<path d="M 791.0 365.0 C 807.9 366.3, 840.5 363.5, 884.0 365.0" fill="none" stroke="#d97757" stroke-width="3" stroke-linecap="round" marker-end="url(#arrow)" opacity="0.72" />
<path d="M 1186.0 365.0 C 794.8 362.4, 437.9 488.2, 94.0 477.0" fill="none" stroke="#d97757" stroke-width="3" stroke-linecap="round" stroke-dasharray="8 9" marker-end="url(#arrow)" opacity="0.72" />
<g>
    <path d="M 111.5 215.0 L 379.9 214.3 L 397.0 233.5 L 396.5 272.9 L 375.7 287.8 L 112.8 289.0 L 94.1 270.6 L 92.7 233.9 Z" fill="#fff7d6" stroke="#d97757" stroke-width="2.4" />
    <path d="M 113.6 222.0 L 375.4 222.2 L 391.0 235.8 L 393.2 271.7 L 378.7 288.2 L 115.1 287.7 L 96.9 273.1 L 99.0 237.3 Z" fill="none" stroke="#d97757" stroke-width="1.1" opacity="0.28" />
    <text x="112" y="248" font-size="18" fill="#171717" font-weight="750">IDE 或 SDK 客户端</text>
  </g>
<g>
    <path d="M 507.0 215.3 L 772.0 216.4 L 791.0 236.0 L 791.8 271.7 L 775.0 291.5 L 508.7 288.4 L 487.3 271.7 L 486.9 235.3 Z" fill="#e9f4ff" stroke="#3b82f6" stroke-width="2.4" />
    <path d="M 507.6 220.8 L 772.4 218.5 L 785.3 236.8 L 788.1 269.7 L 774.0 287.1 L 506.5 287.9 L 492.9 270.1 L 490.8 235.6 Z" fill="none" stroke="#3b82f6" stroke-width="1.1" opacity="0.28" />
    <text x="507" y="248" font-size="18" fill="#171717" font-weight="750">传输适配</text>
  </g>
<g>
    <path d="M 899.6 216.4 L 1165.6 218.3 L 1187.0 235.9 L 1187.6 274.3 L 1166.0 289.0 L 902.6 289.0 L 886.2 274.2 L 883.4 232.0 Z" fill="#ecfdf3" stroke="#2f855a" stroke-width="2.4" />
    <path d="M 904.9 217.7 L 1167.1 222.1 L 1184.0 235.8 L 1179.9 268.8 L 1164.8 284.8 L 902.0 285.4 L 887.2 272.9 L 890.0 234.8 Z" fill="none" stroke="#2f855a" stroke-width="1.1" opacity="0.28" />
    <text x="902" y="248" font-size="18" fill="#171717" font-weight="750">JSON RPC 信封</text>
  </g>
<g>
    <path d="M 112.0 327.1 L 376.6 327.5 L 393.9 346.8 L 396.1 383.5 L 380.0 401.2 L 110.2 403.0 L 91.7 382.4 L 95.0 345.4 Z" fill="#fff1f2" stroke="#be4456" stroke-width="2.4" />
    <path d="M 114.3 331.9 L 377.6 330.6 L 393.1 345.5 L 392.5 380.5 L 377.0 399.8 L 114.9 400.4 L 98.9 383.2 L 96.7 345.4 Z" fill="none" stroke="#be4456" stroke-width="1.1" opacity="0.28" />
    <text x="112" y="360" font-size="18" fill="#171717" font-weight="750">消息处理器</text>
  </g>
<g>
    <path d="M 504.8 327.7 L 774.4 326.9 L 792.3 348.4 L 789.4 381.6 L 774.1 401.3 L 505.6 401.8 L 488.0 383.7 L 486.6 344.6 Z" fill="#f3e8ff" stroke="#8b5cf6" stroke-width="2.4" />
    <path d="M 508.1 334.3 L 774.5 329.6 L 787.0 348.3 L 785.5 383.8 L 774.3 399.3 L 508.1 400.2 L 490.5 384.4 L 492.8 346.9 Z" fill="none" stroke="#8b5cf6" stroke-width="1.1" opacity="0.28" />
    <text x="507" y="360" font-size="18" fill="#171717" font-weight="750">线程、Turn、条目 API</text>
  </g>
<g>
    <path d="M 901.0 329.1 L 1170.3 325.8 L 1187.9 345.1 L 1187.6 384.2 L 1166.1 401.5 L 899.7 403.7 L 885.2 385.0 L 882.6 348.3 Z" fill="#fef3c7" stroke="#b7791f" stroke-width="2.4" />
    <path d="M 902.4 331.7 L 1166.4 333.4 L 1183.5 348.6 L 1181.2 380.6 L 1168.0 395.8 L 904.0 398.0 L 887.9 381.8 L 887.7 346.0 Z" fill="none" stroke="#b7791f" stroke-width="1.1" opacity="0.28" />
    <text x="902" y="360" font-size="18" fill="#171717" font-weight="750">核心运行时操作</text>
  </g>
<g>
    <path d="M 111.4 440.6 L 380.0 441.1 L 394.7 459.2 L 398.2 496.4 L 379.8 514.3 L 112.4 516.1 L 95.6 495.0 L 94.4 457.7 Z" fill="#eef2ff" stroke="#4f46e5" stroke-width="2.4" />
    <path d="M 110.6 444.8 L 377.6 445.9 L 393.8 460.5 L 392.8 496.5 L 377.5 511.5 L 112.7 510.6 L 97.8 493.8 L 95.9 460.9 Z" fill="none" stroke="#4f46e5" stroke-width="1.1" opacity="0.28" />
    <text x="112" y="472" font-size="18" fill="#171717" font-weight="750">核心事件</text>
  </g>
  </g>
</svg>
