<?xml version="1.0" encoding="UTF-8"?>
<svg xmlns="http://www.w3.org/2000/svg" width="1280" height="700" viewBox="0 0 1280 700" role="img" aria-labelledby="title-chapter-02-concept-1-zh desc-chapter-02-concept-1-zh">
  <title id="title-chapter-02-concept-1-zh">JavaScript Bootloader 边界</title>
  <desc id="desc-chapter-02-concept-1-zh">JavaScript Bootloader 边界的手绘白板图，展示已安装命令、平台检测、原生二进制查找、helper 路径、信号转发之间的关系。</desc>
  <defs>
    <marker id="arrow" markerWidth="12" markerHeight="12" refX="10" refY="6" orient="auto" markerUnits="strokeWidth">
      <path d="M 1 1 L 11 6 L 1 11 z" fill="#d97757" />
    </marker>
    <filter id="paper-chapter-02-concept-1-zh" x="-5%" y="-5%" width="110%" height="110%">
      <feTurbulence type="fractalNoise" baseFrequency="0.85" numOctaves="2" stitchTiles="stitch" result="noise" />
      <feColorMatrix type="saturate" values="0" />
      <feComponentTransfer>
        <feFuncA type="table" tableValues="0 0.045" />
      </feComponentTransfer>
    </filter>
  </defs>
  <rect x="0" y="0" width="1280" height="700" rx="30" fill="#fffdf7" />
  <path d="M 52.1 24.3 L 1228.7 24.5 L 1260.3 49.8 L 1258.6 649.6 L 1230.9 677.2 L 48.2 677.5 L 22.8 647.5 L 22.0 51.5 Z" fill="none" stroke="#171717" stroke-width="2" opacity="0.18" />
  <rect x="0" y="0" width="1280" height="700" filter="url(#paper-chapter-02-concept-1-zh)" />
  <g font-family="Virgil, 'Comic Sans MS', 'Segoe Print', 'LXGW WenKai', 'Noto Sans CJK SC', cursive" letter-spacing="0">
    <text x="66" y="95" font-size="31" fill="#171717" font-weight="800">JavaScript</text>
<text x="66" y="133.75" font-size="31" fill="#171717" font-weight="800">Bootloader 边界</text>
    <path d="M 64.0 166.0 C 459.3 166.2, 882.3 155.7, 1210.0 160.0" fill="none" stroke="#171717" stroke-width="2" opacity="0.22" />
    <g>
      <path d="M 90.4 148.5 L 387.1 148.4 L 410.5 173.5 L 414.0 591.5 L 387.6 615.4 L 89.2 612.8 L 61.6 588.1 L 59.8 176.4 Z" fill="#fffdf7" stroke="#475569" stroke-width="2" opacity="0.65" />
      <text x="82" y="184" font-size="16" fill="#475569" font-weight="800">输入/来源</text>
    </g>
<g>
      <path d="M 472.6 149.1 L 769.1 148.4 L 794.4 173.7 L 794.0 590.8 L 770.9 613.0 L 471.1 615.9 L 442.7 589.7 L 445.3 176.2 Z" fill="#fff7d6" stroke="#d97757" stroke-width="2" opacity="0.65" />
      <text x="465" y="184" font-size="16" fill="#475569" font-weight="800">运行时边界</text>
    </g>
<g>
      <path d="M 852.5 151.9 L 1152.6 147.7 L 1177.7 176.3 L 1179.6 587.1 L 1153.7 613.8 L 853.1 613.6 L 829.1 588.1 L 830.3 175.3 Z" fill="#fffdf7" stroke="#475569" stroke-width="2" opacity="0.65" />
      <text x="848" y="184" font-size="16" fill="#475569" font-weight="800">输出/证据</text>
    </g>
<path d="M 384.0 253.0 C 430.4 240.7, 438.1 247.2, 473.0 253.0" fill="none" stroke="#d97757" stroke-width="3" stroke-linecap="round" marker-end="url(#arrow)" opacity="0.72" />
<path d="M 767.0 253.0 C 785.1 255.7, 816.9 248.3, 856.0 253.0" fill="none" stroke="#2f855a" stroke-width="3" stroke-linecap="round" marker-end="url(#arrow)" opacity="0.72" />
<path d="M 1150.0 253.0 C 785.4 260.1, 395.2 342.8, 90.0 351.0" fill="none" stroke="#d97757" stroke-width="3" stroke-linecap="round" marker-end="url(#arrow)" opacity="0.72" />
<path d="M 384.0 351.0 C 421.5 342.3, 447.8 343.5, 473.0 351.0" fill="none" stroke="#d97757" stroke-width="3" stroke-linecap="round" marker-end="url(#arrow)" opacity="0.72" />
<path d="M 767.0 351.0 C 805.9 348.2, 843.9 363.1, 856.0 351.0" fill="none" stroke="#2f855a" stroke-width="3" stroke-linecap="round" marker-end="url(#arrow)" opacity="0.72" />
<g>
    <path d="M 109.1 218.3 L 366.8 221.2 L 382.8 240.3 L 385.7 269.6 L 365.2 285.1 L 109.4 284.6 L 91.5 265.8 L 88.3 237.1 Z" fill="#fff7d6" stroke="#d97757" stroke-width="2.4" />
    <path d="M 109.5 222.4 L 365.0 223.7 L 380.6 239.7 L 381.9 268.0 L 363.5 283.8 L 108.8 280.9 L 94.8 268.4 L 93.9 240.2 Z" fill="none" stroke="#d97757" stroke-width="1.1" opacity="0.28" />
    <text x="108" y="252" font-size="18" fill="#171717" font-weight="750">已安装命令</text>
  </g>
<g>
    <path d="M 491.1 220.3 L 751.4 220.6 L 769.1 239.9 L 768.0 269.8 L 748.4 284.3 L 489.5 287.8 L 473.9 266.4 L 474.4 236.1 Z" fill="#e9f4ff" stroke="#3b82f6" stroke-width="2.4" />
    <path d="M 492.0 221.6 L 745.5 226.5 L 761.3 241.1 L 761.8 268.3 L 748.9 282.8 L 491.5 280.6 L 477.6 267.7 L 479.4 239.1 Z" fill="none" stroke="#3b82f6" stroke-width="1.1" opacity="0.28" />
    <text x="491" y="252" font-size="18" fill="#171717" font-weight="750">平台检测</text>
  </g>
<g>
    <path d="M 873.3 217.6 L 1133.3 218.0 L 1149.4 240.4 L 1149.0 267.4 L 1133.7 284.6 L 874.4 287.1 L 855.6 270.3 L 853.5 237.8 Z" fill="#ecfdf3" stroke="#2f855a" stroke-width="2.4" stroke-dasharray="8 8" />
    <path d="M 875.8 223.7 L 1131.1 225.6 L 1143.8 239.9 L 1143.8 265.1 L 1131.1 284.5 L 874.8 281.4 L 859.4 269.1 L 859.7 240.8 Z" fill="none" stroke="#2f855a" stroke-width="1.1" opacity="0.28" />
    <text x="874" y="252" font-size="18" fill="#171717" font-weight="750">原生二进制查找</text>
  </g>
<g>
    <path d="M 108.1 316.8 L 364.9 319.5 L 385.3 336.9 L 385.1 365.4 L 364.7 385.1 L 106.0 385.5 L 87.6 367.4 L 88.0 334.4 Z" fill="#fff1f2" stroke="#be4456" stroke-width="2.4" />
    <path d="M 108.6 320.3 L 364.8 320.4 L 379.6 339.0 L 378.4 366.0 L 363.8 380.7 L 108.8 379.4 L 95.0 364.7 L 95.2 337.8 Z" fill="none" stroke="#be4456" stroke-width="1.1" opacity="0.28" />
    <text x="108" y="350" font-size="18" fill="#171717" font-weight="750">helper 路径</text>
  </g>
<g>
    <path d="M 488.8 316.6 L 751.1 318.9 L 766.1 335.3 L 766.5 363.6 L 748.5 385.7 L 488.8 383.5 L 474.7 367.1 L 475.3 336.6 Z" fill="#f3e8ff" stroke="#8b5cf6" stroke-width="2.4" />
    <path d="M 493.4 320.7 L 747.1 319.6 L 762.7 336.1 L 760.5 366.7 L 747.1 379.4 L 492.8 380.2 L 477.1 364.2 L 476.3 338.9 Z" fill="none" stroke="#8b5cf6" stroke-width="1.1" opacity="0.28" />
    <text x="491" y="350" font-size="18" fill="#171717" font-weight="750">信号转发</text>
  </g>
<g>
    <path d="M 873.7 318.3 L 1133.0 319.1 L 1151.0 338.4 L 1148.6 367.6 L 1130.9 382.9 L 873.1 383.8 L 856.6 365.4 L 855.0 335.8 Z" fill="#fef3c7" stroke="#b7791f" stroke-width="2.4" stroke-dasharray="8 8" />
    <path d="M 875.4 320.7 L 1133.4 321.0 L 1148.3 335.8 L 1146.7 365.5 L 1129.4 382.2 L 875.3 377.9 L 861.4 364.9 L 857.8 338.0 Z" fill="none" stroke="#b7791f" stroke-width="1.1" opacity="0.28" />
    <text x="874" y="350" font-size="18" fill="#171717" font-weight="750">Rust 路由负责语义</text>
  </g>
  </g>
</svg>
