<?xml version="1.0" encoding="UTF-8"?>
<svg xmlns="http://www.w3.org/2000/svg" width="1280" height="700" viewBox="0 0 1280 700" role="img" aria-labelledby="title-chapter-11-concept-1-en desc-chapter-11-concept-1-en">
  <title id="title-chapter-11-concept-1-en">Patch Grammar and Verification</title>
  <desc id="desc-chapter-11-concept-1-en">Hand-drawn whiteboard figure for Patch Grammar and Verification, showing the relationship between Patch grammar, Intent recovery, Filesystem verification, Permission gate, Executor apply.</desc>
  <defs>
    <marker id="arrow" markerWidth="12" markerHeight="12" refX="10" refY="6" orient="auto" markerUnits="strokeWidth">
      <path d="M 1 1 L 11 6 L 1 11 z" fill="#d97757" />
    </marker>
    <filter id="paper-chapter-11-concept-1-en" x="-5%" y="-5%" width="110%" height="110%">
      <feTurbulence type="fractalNoise" baseFrequency="0.85" numOctaves="2" stitchTiles="stitch" result="noise" />
      <feColorMatrix type="saturate" values="0" />
      <feComponentTransfer>
        <feFuncA type="table" tableValues="0 0.045" />
      </feComponentTransfer>
    </filter>
  </defs>
  <rect x="0" y="0" width="1280" height="700" rx="30" fill="#fffdf7" />
  <path d="M 49.9 21.1 L 1227.9 21.2 L 1260.2 50.3 L 1259.8 649.5 L 1228.1 680.2 L 49.0 677.8 L 22.5 651.2 L 21.3 50.0 Z" fill="none" stroke="#171717" stroke-width="2" opacity="0.18" />
  <rect x="0" y="0" width="1280" height="700" filter="url(#paper-chapter-11-concept-1-en)" />
  <g font-family="Virgil, 'Comic Sans MS', 'Segoe Print', 'LXGW WenKai', 'Noto Sans CJK SC', cursive" letter-spacing="0">
    <text x="66" y="95" font-size="33" fill="#171717" font-weight="800">Patch Grammar and Verification</text>
    <path d="M 64.0 166.0 C 475.7 171.4, 874.8 146.6, 1210.0 160.0" fill="none" stroke="#171717" stroke-width="2" opacity="0.22" />
    <path d="M 260.0 150.0 C 246.3 134.9, 251.2 626.0, 260.0 610.0" fill="none" stroke="#3b82f6" stroke-width="2" stroke-dasharray="10 12" opacity="0.25" />
    <path d="M 1020.0 150.0 C 1028.8 141.6, 1003.7 612.1, 1020.0 610.0" fill="none" stroke="#2f855a" stroke-width="2" stroke-dasharray="10 12" opacity="0.25" />
<path d="M 640.0 208.0 C 626.1 212.6, 654.0 227.9, 640.0 224.0" fill="none" stroke="#d97757" stroke-width="3" stroke-linecap="round" marker-end="url(#arrow)" opacity="0.72" />
<path d="M 640.0 272.0 C 648.4 267.8, 652.0 279.4, 640.0 288.0" fill="none" stroke="#d97757" stroke-width="3" stroke-linecap="round" marker-end="url(#arrow)" opacity="0.72" />
<path d="M 640.0 336.0 C 624.6 324.6, 635.0 348.4, 640.0 352.0" fill="none" stroke="#d97757" stroke-width="3" stroke-linecap="round" marker-end="url(#arrow)" opacity="0.72" />
<path d="M 640.0 400.0 C 652.8 393.9, 625.3 410.8, 640.0 416.0" fill="none" stroke="#d97757" stroke-width="3" stroke-linecap="round" marker-end="url(#arrow)" opacity="0.72" />
<path d="M 640.0 464.0 C 642.7 453.9, 649.1 480.4, 640.0 480.0" fill="none" stroke="#d97757" stroke-width="3" stroke-linecap="round" marker-end="url(#arrow)" opacity="0.72" />
<g>
    <path d="M 278.9 159.4 L 999.8 161.0 L 1019.3 177.0 L 1022.4 187.7 L 999.5 209.7 L 276.3 206.1 L 262.1 190.0 L 258.4 180.1 Z" fill="#fff7d6" stroke="#d97757" stroke-width="2.4" />
    <path d="M 277.6 162.9 L 1002.4 164.8 L 1017.2 179.2 L 1016.1 190.9 L 1000.7 204.8 L 279.7 201.6 L 265.2 187.0 L 266.0 180.0 Z" fill="none" stroke="#d97757" stroke-width="1.1" opacity="0.28" />
    <text x="278" y="192" font-size="18" fill="#171717" font-weight="750">Patch grammar</text>
  </g>
<g>
    <path d="M 325.7 222.5 L 954.8 225.0 L 974.6 243.3 L 972.8 252.2 L 954.3 270.7 L 325.8 270.0 L 307.1 253.7 L 308.9 242.9 Z" fill="#e9f4ff" stroke="#3b82f6" stroke-width="2.4" />
    <path d="M 326.4 229.5 L 952.8 228.0 L 969.3 242.6 L 967.9 252.0 L 952.8 267.4 L 328.0 266.1 L 309.2 251.2 L 313.1 242.9 Z" fill="none" stroke="#3b82f6" stroke-width="1.1" opacity="0.28" />
    <text x="325" y="256" font-size="18" fill="#171717" font-weight="750">Intent recovery</text>
  </g>
<g>
    <path d="M 337.1 290.1 L 941.5 288.2 L 959.0 304.5 L 960.6 319.3 L 940.9 335.6 L 336.3 335.4 L 317.8 319.5 L 316.9 305.8 Z" fill="#ecfdf3" stroke="#2f855a" stroke-width="2.4" />
    <path d="M 339.6 290.6 L 942.2 290.8 L 956.5 305.3 L 958.0 319.5 L 941.1 333.9 L 335.7 331.5 L 321.7 317.2 L 321.6 306.5 Z" fill="none" stroke="#2f855a" stroke-width="1.1" opacity="0.28" />
    <text x="337" y="320" font-size="17" fill="#171717" font-weight="750">Filesystem verification</text>
  </g>
<g>
    <path d="M 347.1 352.0 L 932.6 354.2 L 950.7 369.4 L 950.2 379.9 L 931.1 398.0 L 347.4 397.7 L 329.8 383.9 L 332.0 369.4 Z" fill="#fff1f2" stroke="#be4456" stroke-width="2.4" />
    <path d="M 350.9 357.2 L 930.9 354.2 L 946.2 369.1 L 945.2 383.4 L 931.3 394.6 L 349.7 395.4 L 333.2 380.6 L 335.0 372.8 Z" fill="none" stroke="#be4456" stroke-width="1.1" opacity="0.28" />
    <text x="349" y="384" font-size="18" fill="#171717" font-weight="750">Permission gate</text>
  </g>
<g>
    <path d="M 363.1 417.0 L 920.2 418.4 L 939.1 435.7 L 937.7 443.9 L 918.6 466.2 L 361.4 464.0 L 345.5 445.1 L 343.7 436.5 Z" fill="#f3e8ff" stroke="#8b5cf6" stroke-width="2.4" />
    <path d="M 359.7 417.9 L 916.1 418.8 L 930.5 434.6 L 932.1 443.1 L 916.9 461.7 L 361.6 459.5 L 347.4 444.0 L 349.4 434.7 Z" fill="none" stroke="#8b5cf6" stroke-width="1.1" opacity="0.28" />
    <text x="361" y="448" font-size="18" fill="#171717" font-weight="750">Executor apply</text>
  </g>
<g>
    <path d="M 277.8 480.3 L 1000.5 482.3 L 1021.4 499.9 L 1017.8 511.4 L 1004.1 526.6 L 278.2 527.4 L 261.5 511.7 L 258.5 498.2 Z" fill="#fef3c7" stroke="#b7791f" stroke-width="2.4" />
    <path d="M 276.8 481.8 L 1001.7 482.4 L 1018.3 501.1 L 1013.9 507.5 L 1001.4 523.8 L 278.8 525.5 L 262.3 511.1 L 264.4 497.6 Z" fill="none" stroke="#b7791f" stroke-width="1.1" opacity="0.28" />
    <text x="278" y="512" font-size="18" fill="#171717" font-weight="750">Recorded diff</text>
  </g>
  </g>
</svg>
