<?xml version="1.0" encoding="UTF-8"?>
<svg xmlns="http://www.w3.org/2000/svg" width="1280" height="700" viewBox="0 0 1280 700" role="img" aria-labelledby="title-chapter-18-01-zh desc-chapter-18-01-zh">
  <title id="title-chapter-18-01-zh">扩展平面</title>
  <desc id="desc-chapter-18-01-zh">扩展平面的手绘白板图，展示市场包、插件缓存、插件加载器、技能元数据、MCP 配置之间的关系。</desc>
  <defs>
    <marker id="arrow" markerWidth="12" markerHeight="12" refX="10" refY="6" orient="auto" markerUnits="strokeWidth">
      <path d="M 1 1 L 11 6 L 1 11 z" fill="#d97757" />
    </marker>
    <filter id="paper-chapter-18-01-zh" x="-5%" y="-5%" width="110%" height="110%">
      <feTurbulence type="fractalNoise" baseFrequency="0.85" numOctaves="2" stitchTiles="stitch" result="noise" />
      <feColorMatrix type="saturate" values="0" />
      <feComponentTransfer>
        <feFuncA type="table" tableValues="0 0.045" />
      </feComponentTransfer>
    </filter>
  </defs>
  <rect x="0" y="0" width="1280" height="700" rx="30" fill="#fffdf7" />
  <path d="M 50.9 23.4 L 1227.9 22.4 L 1259.6 48.2 L 1259.5 651.8 L 1228.3 679.5 L 50.6 677.3 L 21.5 650.0 L 21.4 48.0 Z" fill="none" stroke="#171717" stroke-width="2" opacity="0.18" />
  <rect x="0" y="0" width="1280" height="700" filter="url(#paper-chapter-18-01-zh)" />
  <g font-family="Virgil, 'Comic Sans MS', 'Segoe Print', 'LXGW WenKai', 'Noto Sans CJK SC', cursive" letter-spacing="0">
    <text x="66" y="95" font-size="31" fill="#171717" font-weight="800">扩展平面</text>
    <path d="M 64.0 166.0 C 476.8 150.5, 872.3 175.9, 1210.0 160.0" fill="none" stroke="#171717" stroke-width="2" opacity="0.22" />
    <g>
      <path d="M 86.2 150.1 L 387.0 149.3 L 412.8 178.4 L 413.9 589.7 L 387.1 615.0 L 85.7 616.7 L 60.0 588.4 L 61.8 174.5 Z" fill="#fffdf7" stroke="#475569" stroke-width="2" opacity="0.65" />
      <text x="82" y="184" font-size="16" fill="#475569" font-weight="800">输入/来源</text>
    </g>
<g>
      <path d="M 471.8 152.3 L 767.2 148.8 L 796.3 175.4 L 794.6 590.5 L 769.3 613.0 L 470.2 616.2 L 445.4 591.4 L 445.2 175.6 Z" fill="#fff7d6" stroke="#d97757" stroke-width="2" opacity="0.65" />
      <text x="465" y="184" font-size="16" fill="#475569" font-weight="800">运行时边界</text>
    </g>
<g>
      <path d="M 853.3 151.7 L 1151.1 149.6 L 1178.2 176.4 L 1179.6 591.4 L 1153.9 615.3 L 851.9 614.0 L 827.6 589.3 L 826.9 173.6 Z" fill="#fffdf7" stroke="#475569" stroke-width="2" opacity="0.65" />
      <text x="848" y="184" font-size="16" fill="#475569" font-weight="800">输出/证据</text>
    </g>
<path d="M 384.0 253.0 C 413.0 266.4, 449.0 241.8, 473.0 253.0" fill="none" stroke="#d97757" stroke-width="3" stroke-linecap="round" marker-end="url(#arrow)" opacity="0.72" />
<path d="M 767.0 253.0 C 814.4 248.5, 826.7 241.0, 856.0 253.0" fill="none" stroke="#2f855a" stroke-width="3" stroke-linecap="round" marker-end="url(#arrow)" opacity="0.72" />
<path d="M 1150.0 253.0 C 762.6 266.2, 419.3 335.5, 90.0 351.0" fill="none" stroke="#d97757" stroke-width="3" stroke-linecap="round" marker-end="url(#arrow)" opacity="0.72" />
<path d="M 384.0 351.0 C 413.5 363.3, 433.3 357.0, 473.0 351.0" fill="none" stroke="#d97757" stroke-width="3" stroke-linecap="round" marker-end="url(#arrow)" opacity="0.72" />
<path d="M 767.0 351.0 C 786.1 337.0, 819.3 339.0, 856.0 351.0" fill="none" stroke="#2f855a" stroke-width="3" stroke-linecap="round" marker-end="url(#arrow)" opacity="0.72" />
<path d="M 1150.0 351.0 C 790.3 358.5, 391.4 437.4, 90.0 449.0" fill="none" stroke="#d97757" stroke-width="3" stroke-linecap="round" marker-end="url(#arrow)" opacity="0.72" />
<g>
    <path d="M 109.6 219.2 L 367.9 219.0 L 385.7 236.7 L 381.5 266.6 L 367.1 287.7 L 110.1 283.7 L 88.4 267.3 L 91.7 237.7 Z" fill="#fff7d6" stroke="#d97757" stroke-width="2.4" />
    <path d="M 111.4 226.2 L 364.5 225.6 L 381.4 236.9 L 377.6 268.9 L 366.2 284.0 L 108.0 282.4 L 96.2 266.4 L 95.9 236.8 Z" fill="none" stroke="#d97757" stroke-width="1.1" opacity="0.28" />
    <text x="108" y="252" font-size="18" fill="#171717" font-weight="750">市场包</text>
  </g>
<g>
    <path d="M 488.6 218.8 L 748.9 220.6 L 767.0 236.8 L 767.4 269.4 L 748.5 286.2 L 490.7 283.9 L 471.2 270.0 L 475.5 239.1 Z" fill="#e9f4ff" stroke="#3b82f6" stroke-width="2.4" />
    <path d="M 489.8 225.7 L 745.8 223.7 L 763.6 240.9 L 763.0 266.8 L 747.2 280.1 L 494.2 280.4 L 476.6 267.5 L 474.9 240.5 Z" fill="none" stroke="#3b82f6" stroke-width="1.1" opacity="0.28" />
    <text x="491" y="252" font-size="18" fill="#171717" font-weight="750">插件缓存</text>
  </g>
<g>
    <path d="M 874.2 220.8 L 1130.6 218.9 L 1151.8 235.9 L 1151.8 270.0 L 1132.4 287.6 L 873.7 288.1 L 857.1 267.6 L 855.8 237.0 Z" fill="#ecfdf3" stroke="#2f855a" stroke-width="2.4" stroke-dasharray="8 8" />
    <path d="M 876.2 224.1 L 1132.7 223.5 L 1146.6 240.4 L 1145.9 268.2 L 1132.0 281.6 L 876.6 283.8 L 857.6 265.9 L 860.0 240.0 Z" fill="none" stroke="#2f855a" stroke-width="1.1" opacity="0.28" />
    <text x="874" y="252" font-size="18" fill="#171717" font-weight="750">插件加载器</text>
  </g>
<g>
    <path d="M 106.4 316.1 L 364.7 318.3 L 385.1 337.4 L 381.5 367.5 L 364.0 381.8 L 108.7 384.8 L 88.3 365.5 L 91.2 336.4 Z" fill="#fff1f2" stroke="#be4456" stroke-width="2.4" />
    <path d="M 111.3 321.8 L 363.3 320.3 L 381.8 339.4 L 381.5 364.4 L 365.8 381.0 L 109.5 380.0 L 94.4 364.2 L 93.1 334.8 Z" fill="none" stroke="#be4456" stroke-width="1.1" opacity="0.28" />
    <text x="108" y="350" font-size="18" fill="#171717" font-weight="750">技能元数据</text>
  </g>
<g>
    <path d="M 492.5 316.0 L 747.5 319.3 L 765.8 337.8 L 766.4 363.9 L 750.0 383.7 L 490.2 384.1 L 471.1 368.1 L 471.1 338.0 Z" fill="#f3e8ff" stroke="#8b5cf6" stroke-width="2.4" />
    <path d="M 492.5 324.1 L 748.3 322.6 L 760.7 338.4 L 762.1 365.6 L 749.9 379.2 L 494.4 378.5 L 475.7 366.5 L 477.5 335.0 Z" fill="none" stroke="#8b5cf6" stroke-width="1.1" opacity="0.28" />
    <text x="491" y="350" font-size="18" fill="#171717" font-weight="750">MCP 配置</text>
  </g>
<g>
    <path d="M 871.9 318.7 L 1130.1 317.7 L 1150.9 336.8 L 1151.4 368.4 L 1131.1 386.1 L 874.5 384.1 L 857.0 366.9 L 857.3 336.9 Z" fill="#fef3c7" stroke="#b7791f" stroke-width="2.4" stroke-dasharray="8 8" />
    <path d="M 876.8 322.6 L 1132.8 323.7 L 1143.7 338.8 L 1145.0 367.0 L 1131.2 381.3 L 876.5 377.7 L 861.3 364.2 L 859.4 339.0 Z" fill="none" stroke="#b7791f" stroke-width="1.1" opacity="0.28" />
    <text x="874" y="350" font-size="18" fill="#171717" font-weight="750">Hook 配置</text>
  </g>
<g>
    <path d="M 109.8 413.6 L 364.1 416.0 L 386.1 431.8 L 382.5 463.4 L 366.7 483.3 L 109.4 479.9 L 90.2 464.1 L 89.1 432.3 Z" fill="#eef2ff" stroke="#4f46e5" stroke-width="2.4" />
    <path d="M 107.0 417.9 L 365.8 420.5 L 382.2 434.2 L 380.2 464.3 L 366.6 479.3 L 109.8 476.0 L 96.5 464.3 L 93.7 434.0 Z" fill="none" stroke="#4f46e5" stroke-width="1.1" opacity="0.28" />
    <text x="108" y="448" font-size="18" fill="#171717" font-weight="750">托管连接器</text>
  </g>
  </g>
</svg>
