<?xml version="1.0" encoding="UTF-8"?>
<svg xmlns="http://www.w3.org/2000/svg" width="1280" height="740" viewBox="0 0 1280 740" role="img" aria-labelledby="title-chapter-22-02-en desc-chapter-22-02-en">
  <title id="title-chapter-22-02-en">Citations Connect Memory Back to Evidence</title>
  <desc id="desc-chapter-22-02-en">Hand-drawn whiteboard figure for Citations Connect Memory Back to Evidence, showing the relationship between memory summary or file excerpt, citation block, citation parser, rollout and thread ids, usage accounting.</desc>
  <defs>
    <marker id="arrow" markerWidth="12" markerHeight="12" refX="10" refY="6" orient="auto" markerUnits="strokeWidth">
      <path d="M 1 1 L 11 6 L 1 11 z" fill="#d97757" />
    </marker>
    <filter id="paper-chapter-22-02-en" x="-5%" y="-5%" width="110%" height="110%">
      <feTurbulence type="fractalNoise" baseFrequency="0.85" numOctaves="2" stitchTiles="stitch" result="noise" />
      <feColorMatrix type="saturate" values="0" />
      <feComponentTransfer>
        <feFuncA type="table" tableValues="0 0.045" />
      </feComponentTransfer>
    </filter>
  </defs>
  <rect x="0" y="0" width="1280" height="740" rx="30" fill="#fffdf7" />
  <path d="M 51.2 23.4 L 1229.0 19.7 L 1257.8 51.2 L 1255.8 691.0 L 1228.7 719.5 L 50.7 719.1 L 23.1 690.5 L 21.6 47.6 Z" fill="none" stroke="#171717" stroke-width="2" opacity="0.18" />
  <rect x="0" y="0" width="1280" height="740" filter="url(#paper-chapter-22-02-en)" />
  <g font-family="Virgil, 'Comic Sans MS', 'Segoe Print', 'LXGW WenKai', 'Noto Sans CJK SC', cursive" letter-spacing="0">
    <text x="66" y="95" font-size="33" fill="#171717" font-weight="800">Citations Connect Memory Back to Evidence</text>
    <path d="M 64.0 166.0 C 471.1 151.5, 867.5 156.2, 1210.0 160.0" fill="none" stroke="#171717" stroke-width="2" opacity="0.22" />
    <g>
    <path d="M 101.6 215.6 L 350.7 214.3 L 380.6 244.5 L 382.2 543.2 L 354.0 571.7 L 100.8 574.1 L 70.4 544.7 L 70.1 241.8 Z" fill="#f8fafc" stroke="#475569" stroke-width="2.2" opacity="0.66" />
    <text x="96" y="252" font-size="17" fill="#475569" font-weight="800">Active turn read path</text>
  </g>
<g>
    <path d="M 514.3 178.0 L 767.1 177.8 L 797.4 207.9 L 795.6 580.8 L 767.2 612.3 L 517.4 611.2 L 484.9 578.6 L 486.0 207.9 Z" fill="#fff7d6" stroke="#d97757" stroke-width="2.2" opacity="0.66" />
    <text x="510" y="218" font-size="17" fill="#475569" font-weight="800">Evidence and citations</text>
  </g>
<g>
    <path d="M 929.5 214.5 L 1179.0 215.6 L 1212.1 243.4 L 1209.4 543.2 L 1180.2 573.1 L 928.6 572.7 L 899.7 543.6 L 901.2 246.3 Z" fill="#f8fafc" stroke="#475569" stroke-width="2.2" opacity="0.66" />
    <text x="924" y="252" font-size="17" fill="#475569" font-weight="800">Background write path</text>
  </g>
<path d="M 227.0 339.0 C 361.6 343.7, 529.3 325.0, 642.0 314.0" fill="none" stroke="#3b82f6" stroke-width="3" stroke-linecap="round" marker-end="url(#arrow)" opacity="0.72" />
<path d="M 642.0 314.0 C 487.6 321.4, 343.6 481.6, 227.0 469.0" fill="none" stroke="#3b82f6" stroke-width="3" stroke-linecap="round" marker-end="url(#arrow)" opacity="0.72" />
<path d="M 1057.0 339.0 C 907.9 334.3, 780.5 465.9, 642.0 469.0" fill="none" stroke="#2f855a" stroke-width="3" stroke-linecap="round" marker-end="url(#arrow)" opacity="0.72" />
<path d="M 642.0 469.0 C 774.3 482.9, 931.1 476.9, 1057.0 469.0" fill="none" stroke="#2f855a" stroke-width="3" stroke-linecap="round" marker-end="url(#arrow)" opacity="0.72" />
<path d="M 1057.0 469.0 C 776.3 461.1, 480.2 325.2, 227.0 339.0" fill="none" stroke="#d97757" stroke-width="3" stroke-linecap="round" stroke-dasharray="8 9" marker-end="url(#arrow)" opacity="0.72" />
<g>
    <path d="M 124.2 300.3 L 329.6 299.4 L 348.1 319.8 L 347.7 358.8 L 332.7 378.6 L 121.1 378.6 L 105.1 360.4 L 106.3 319.2 Z" fill="#fff7d6" stroke="#d97757" stroke-width="2.4" />
    <path d="M 125.2 304.0 L 332.0 306.4 L 346.7 318.0 L 344.3 356.7 L 329.8 375.4 L 125.6 374.8 L 108.6 360.0 L 111.0 317.1 Z" fill="none" stroke="#d97757" stroke-width="1.1" opacity="0.28" />
    <text x="123" y="332" font-size="17" fill="#171717" font-weight="750">memory summary or file</text>
<text x="123" y="353.25" font-size="17" fill="#171717" font-weight="750">excerpt</text>
  </g>
<g>
    <path d="M 123.1 429.8 L 331.9 431.9 L 348.9 448.6 L 351.3 491.1 L 330.8 510.1 L 121.4 508.3 L 105.1 488.0 L 104.2 450.3 Z" fill="#e9f4ff" stroke="#3b82f6" stroke-width="2.4" />
    <path d="M 123.5 435.5 L 327.7 435.8 L 345.6 447.7 L 342.7 487.9 L 328.1 502.4 L 124.8 505.8 L 111.4 487.1 L 109.2 450.1 Z" fill="none" stroke="#3b82f6" stroke-width="1.1" opacity="0.28" />
    <text x="123" y="462" font-size="18" fill="#171717" font-weight="750">citation block</text>
  </g>
<g>
    <path d="M 537.0 275.9 L 743.6 275.7 L 763.6 295.1 L 762.1 336.7 L 746.2 351.1 L 538.2 352.9 L 520.8 336.8 L 521.5 292.1 Z" fill="#ecfdf3" stroke="#2f855a" stroke-width="2.4" />
    <path d="M 537.8 279.8 L 743.2 277.3 L 760.3 294.3 L 760.5 331.5 L 744.6 349.4 L 538.0 350.0 L 525.8 336.3 L 522.8 296.2 Z" fill="none" stroke="#2f855a" stroke-width="1.1" opacity="0.28" />
    <text x="538" y="307" font-size="18" fill="#171717" font-weight="750">citation parser</text>
  </g>
<g>
    <path d="M 540.5 431.9 L 747.2 427.7 L 762.7 450.4 L 765.8 489.2 L 744.1 507.5 L 537.9 508.3 L 521.2 489.3 L 519.9 449.7 Z" fill="#fff1f2" stroke="#be4456" stroke-width="2.4" />
    <path d="M 541.2 431.5 L 747.4 431.6 L 761.4 447.3 L 761.9 489.5 L 744.9 504.9 L 536.6 503.6 L 522.8 489.5 L 524.2 447.1 Z" fill="none" stroke="#be4456" stroke-width="1.1" opacity="0.28" />
    <text x="538" y="462" font-size="18" fill="#171717" font-weight="750">rollout and thread</text>
<text x="538" y="484.5" font-size="18" fill="#171717" font-weight="750">ids</text>
  </g>
<g>
    <path d="M 953.7 299.0 L 1163.4 298.2 L 1179.0 317.8 L 1179.1 361.6 L 1159.5 375.5 L 951.6 380.5 L 934.5 360.5 L 933.1 316.5 Z" fill="#f3e8ff" stroke="#8b5cf6" stroke-width="2.4" />
    <path d="M 955.1 305.9 L 1157.8 305.6 L 1175.4 320.3 L 1175.4 358.7 L 1159.5 375.6 L 952.0 371.7 L 939.7 356.8 L 938.6 317.8 Z" fill="none" stroke="#8b5cf6" stroke-width="1.1" opacity="0.28" />
    <text x="953" y="332" font-size="18" fill="#171717" font-weight="750">usage accounting</text>
  </g>
<g>
    <path d="M 952.3 427.9 L 1162.1 429.3 L 1178.9 446.5 L 1178.6 490.9 L 1160.3 505.6 L 952.7 510.1 L 934.1 490.7 L 934.6 448.4 Z" fill="#fef3c7" stroke="#b7791f" stroke-width="2.4" />
    <path d="M 953.3 433.6 L 1157.5 433.4 L 1176.5 448.2 L 1174.5 489.7 L 1162.2 506.5 L 956.0 506.2 L 938.4 487.1 L 937.4 448.1 Z" fill="none" stroke="#b7791f" stroke-width="1.1" opacity="0.28" />
    <text x="953" y="462" font-size="17" fill="#171717" font-weight="750">future Stage 2</text>
<text x="953" y="483.25" font-size="17" fill="#171717" font-weight="750">selection</text>
  </g>
  </g>
</svg>
