<?xml version="1.0" encoding="UTF-8"?>
<svg xmlns="http://www.w3.org/2000/svg" width="1280" height="740" viewBox="0 0 1280 740" role="img" aria-labelledby="title-chapter-23-01-en desc-chapter-23-01-en">
  <title id="title-chapter-23-01-en">The Problem This Layer Solves</title>
  <desc id="desc-chapter-23-01-en">Hand-drawn whiteboard figure for The Problem This Layer Solves, showing the relationship between Cargo workspace, Workspace crates and binaries, Resolved dependency graph, Bazel overlay, Reproducible CI and release checks.</desc>
  <defs>
    <marker id="arrow" markerWidth="12" markerHeight="12" refX="10" refY="6" orient="auto" markerUnits="strokeWidth">
      <path d="M 1 1 L 11 6 L 1 11 z" fill="#d97757" />
    </marker>
    <filter id="paper-chapter-23-01-en" x="-5%" y="-5%" width="110%" height="110%">
      <feTurbulence type="fractalNoise" baseFrequency="0.85" numOctaves="2" stitchTiles="stitch" result="noise" />
      <feColorMatrix type="saturate" values="0" />
      <feComponentTransfer>
        <feFuncA type="table" tableValues="0 0.045" />
      </feComponentTransfer>
    </filter>
  </defs>
  <rect x="0" y="0" width="1280" height="740" rx="30" fill="#fffdf7" />
  <path d="M 50.5 22.0 L 1227.6 20.7 L 1259.4 48.9 L 1259.5 687.9 L 1228.4 718.5 L 51.9 717.3 L 21.7 688.0 L 23.1 51.8 Z" fill="none" stroke="#171717" stroke-width="2" opacity="0.18" />
  <rect x="0" y="0" width="1280" height="740" filter="url(#paper-chapter-23-01-en)" />
  <g font-family="Virgil, 'Comic Sans MS', 'Segoe Print', 'LXGW WenKai', 'Noto Sans CJK SC', cursive" letter-spacing="0">
    <text x="66" y="95" font-size="33" fill="#171717" font-weight="800">The Problem This Layer Solves</text>
    <path d="M 64.0 166.0 C 474.2 180.2, 862.0 155.9, 1210.0 160.0" fill="none" stroke="#171717" stroke-width="2" opacity="0.22" />
    <path d="M 925.0 172.0 L 1180.8 169.6 L 1207.8 198.1 L 1211.3 529.6 L 1183.5 562.4 L 924.5 558.6 L 896.3 530.3 L 896.4 197.1 Z" fill="#fffdf7" stroke="#475569" stroke-width="2" stroke-dasharray="10 10" opacity="0.62" />
<path d="M 454.3 203.2 L 805.3 203.9 L 838.5 238.7 L 838.9 469.7 L 805.3 506.9 L 454.1 504.1 L 422.4 472.9 L 418.3 241.2 Z" fill="#eef2ff" stroke="#4f46e5" stroke-width="2.5" />
    <path d="M 460.0 310.0 C 585.0 324.4, 706.7 321.4, 800.0 310.0" fill="none" stroke="#4f46e5" stroke-width="2" opacity="0.34" />
    <text x="464" y="269" font-size="20" fill="#171717" font-weight="800">Contract generation factory</text>
<path d="M 315.0 373.0 C 368.3 388.1, 376.7 372.6, 420.0 375.0" fill="none" stroke="#d97757" stroke-width="3" stroke-linecap="round" marker-end="url(#arrow)" opacity="0.72" />
<path d="M 840.0 303.0 C 864.7 317.8, 889.1 230.4, 930.0 242.0" fill="none" stroke="#3b82f6" stroke-width="3" stroke-linecap="round" marker-end="url(#arrow)" opacity="0.72" />
<path d="M 840.0 361.0 C 874.0 352.5, 906.5 366.7, 930.0 362.0" fill="none" stroke="#3b82f6" stroke-width="3" stroke-linecap="round" marker-end="url(#arrow)" opacity="0.72" />
<path d="M 840.0 419.0 C 861.0 423.3, 911.8 468.8, 930.0 482.0" fill="none" stroke="#3b82f6" stroke-width="3" stroke-linecap="round" stroke-dasharray="8 9" marker-end="url(#arrow)" opacity="0.72" />
<g>
    <path d="M 88.5 331.2 L 298.1 327.5 L 315.7 345.9 L 315.5 398.9 L 294.9 414.6 L 89.3 418.5 L 70.0 396.7 L 72.0 349.6 Z" fill="#fff7d6" stroke="#d97757" stroke-width="2.4" />
    <path d="M 90.7 334.3 L 294.7 333.8 L 312.3 348.7 L 312.7 395.0 L 293.8 413.9 L 87.2 413.0 L 72.7 397.7 L 74.6 348.4 Z" fill="none" stroke="#d97757" stroke-width="1.1" opacity="0.28" />
    <text x="88" y="362" font-size="18" fill="#171717" font-weight="750">Cargo workspace</text>
  </g>
<g>
    <path d="M 480.9 327.9 L 599.4 331.3 L 614.8 346.1 L 614.8 381.5 L 598.5 404.3 L 482.4 401.5 L 462.3 384.8 L 460.2 348.6 Z" fill="#e9f4ff" stroke="#3b82f6" stroke-width="2.4" />
    <path d="M 481.2 331.5 L 596.6 334.4 L 610.8 347.7 L 613.4 381.6 L 597.2 399.7 L 482.2 400.5 L 467.2 382.0 L 466.4 349.3 Z" fill="none" stroke="#3b82f6" stroke-width="1.1" opacity="0.28" />
    <text x="480" y="362" font-size="17" fill="#171717" font-weight="750">Workspace</text>
<text x="480" y="383.25" font-size="17" fill="#171717" font-weight="750">crates and binaries</text>
  </g>
<g>
    <path d="M 668.4 328.2 L 786.7 331.0 L 803.6 350.3 L 804.7 381.5 L 789.3 400.6 L 669.1 400.6 L 648.3 382.1 L 649.2 350.5 Z" fill="#ecfdf3" stroke="#2f855a" stroke-width="2.4" />
    <path d="M 670.5 336.3 L 786.9 333.5 L 803.0 348.1 L 799.4 382.3 L 787.3 400.1 L 667.7 396.2 L 652.3 385.4 L 656.1 350.3 Z" fill="none" stroke="#2f855a" stroke-width="1.1" opacity="0.28" />
    <text x="668" y="362" font-size="17" fill="#171717" font-weight="750">Resolved</text>
<text x="668" y="383.25" font-size="17" fill="#171717" font-weight="750">dependency</text>
<text x="668" y="404.5" font-size="17" fill="#171717" font-weight="750">graph</text>
  </g>
<g>
    <path d="M 949.1 206.1 L 1158.7 204.1 L 1175.5 222.0 L 1174.2 260.9 L 1156.0 276.7 L 946.4 276.6 L 929.6 263.5 L 930.6 223.1 Z" fill="#fff1f2" stroke="#be4456" stroke-width="2.4" />
    <path d="M 948.1 208.7 L 1155.3 208.4 L 1168.8 225.6 L 1170.6 258.8 L 1155.6 275.6 L 947.0 274.6 L 932.0 260.1 L 932.7 226.5 Z" fill="none" stroke="#be4456" stroke-width="1.1" opacity="0.28" />
    <text x="948" y="237" font-size="18" fill="#171717" font-weight="750">Bazel overlay</text>
  </g>
<g>
    <path d="M 950.0 322.8 L 1158.1 323.3 L 1173.8 342.0 L 1174.6 380.7 L 1157.7 397.2 L 949.0 401.2 L 929.9 383.0 L 931.2 341.8 Z" fill="#f3e8ff" stroke="#8b5cf6" stroke-width="2.4" />
    <path d="M 949.8 330.4 L 1157.7 329.4 L 1171.8 346.4 L 1170.7 381.0 L 1154.7 393.2 L 947.7 394.1 L 933.0 379.7 L 933.7 345.9 Z" fill="none" stroke="#8b5cf6" stroke-width="1.1" opacity="0.28" />
    <text x="948" y="357" font-size="17" fill="#171717" font-weight="750">Reproducible CI and release</text>
<text x="948" y="378.25" font-size="17" fill="#171717" font-weight="750">checks</text>
  </g>
<g>
    <path d="M 949.7 444.2 L 1155.2 447.0 L 1173.2 463.0 L 1176.6 502.4 L 1157.5 517.9 L 946.3 520.2 L 930.2 500.2 L 928.8 460.8 Z" fill="#fef3c7" stroke="#b7791f" stroke-width="2.4" />
    <path d="M 949.4 449.7 L 1155.6 447.5 L 1170.1 462.6 L 1169.3 500.0 L 1155.2 514.5 L 947.6 514.0 L 935.9 499.5 L 932.7 463.4 Z" fill="none" stroke="#b7791f" stroke-width="1.1" opacity="0.28" />
    <text x="948" y="477" font-size="17" fill="#171717" font-weight="750">Generated contract</text>
<text x="948" y="498.25" font-size="17" fill="#171717" font-weight="750">schemas</text>
  </g>
  </g>
</svg>
