<?xml version="1.0" encoding="UTF-8"?>
<svg xmlns="http://www.w3.org/2000/svg" width="1280" height="700" viewBox="0 0 1280 700" role="img" aria-labelledby="title-chapter-16-03-en desc-chapter-16-03-en">
  <title id="title-chapter-16-03-en">Four Event Sources</title>
  <desc id="desc-chapter-16-03-en">Hand-drawn whiteboard figure for Four Event Sources, showing the relationship between Internal app events, Active thread events, Terminal input and resize, app-server events, App loop.</desc>
  <defs>
    <marker id="arrow" markerWidth="12" markerHeight="12" refX="10" refY="6" orient="auto" markerUnits="strokeWidth">
      <path d="M 1 1 L 11 6 L 1 11 z" fill="#d97757" />
    </marker>
    <filter id="paper-chapter-16-03-en" x="-5%" y="-5%" width="110%" height="110%">
      <feTurbulence type="fractalNoise" baseFrequency="0.85" numOctaves="2" stitchTiles="stitch" result="noise" />
      <feColorMatrix type="saturate" values="0" />
      <feComponentTransfer>
        <feFuncA type="table" tableValues="0 0.045" />
      </feComponentTransfer>
    </filter>
  </defs>
  <rect x="0" y="0" width="1280" height="700" rx="30" fill="#fffdf7" />
  <path d="M 51.6 20.8 L 1230.9 20.1 L 1255.6 48.8 L 1255.7 648.3 L 1229.2 678.0 L 48.2 680.4 L 22.7 650.6 L 22.3 51.0 Z" fill="none" stroke="#171717" stroke-width="2" opacity="0.18" />
  <rect x="0" y="0" width="1280" height="700" filter="url(#paper-chapter-16-03-en)" />
  <g font-family="Virgil, 'Comic Sans MS', 'Segoe Print', 'LXGW WenKai', 'Noto Sans CJK SC', cursive" letter-spacing="0">
    <text x="66" y="95" font-size="33" fill="#171717" font-weight="800">Four Event Sources</text>
    <path d="M 64.0 166.0 C 464.0 159.8, 859.9 161.3, 1210.0 160.0" fill="none" stroke="#171717" stroke-width="2" opacity="0.22" />
    <g>
      <path d="M 91.6 149.7 L 395.1 148.9 L 422.2 173.6 L 418.4 593.9 L 395.7 621.6 L 95.4 620.3 L 68.0 598.0 L 71.0 175.6 Z" fill="#f8fafc" stroke="#475569" stroke-width="1.8" stroke-dasharray="8 10" opacity="0.72" />
      <text x="90" y="184" font-size="16" fill="#475569" font-weight="800">External surface</text>
    </g>
<g>
      <path d="M 486.8 152.4 L 790.9 148.7 L 817.2 172.7 L 817.5 597.8 L 789.8 618.1 L 489.2 619.6 L 463.7 594.1 L 467.5 175.3 Z" fill="#fffdf7" stroke="#475569" stroke-width="1.8" stroke-dasharray="0" opacity="0.72" />
      <text x="485" y="184" font-size="16" fill="#475569" font-weight="800">Runtime contract</text>
    </g>
<g>
      <path d="M 885.4 150.3 L 1185.8 150.1 L 1208.4 174.1 L 1208.0 597.0 L 1184.9 622.4 L 884.0 620.2 L 862.2 595.3 L 858.3 173.5 Z" fill="#f8fafc" stroke="#475569" stroke-width="1.8" stroke-dasharray="8 10" opacity="0.72" />
      <text x="880" y="184" font-size="16" fill="#475569" font-weight="800">Execution boundary</text>
    </g>
<path d="M 396.0 253.0 C 444.1 261.2, 467.8 262.6, 489.0 253.0" fill="none" stroke="#d97757" stroke-width="3" stroke-linecap="round" marker-end="url(#arrow)" opacity="0.72" />
<path d="M 791.0 253.0 C 840.1 259.0, 863.3 258.0, 884.0 253.0" fill="none" stroke="#d97757" stroke-width="3" stroke-linecap="round" marker-end="url(#arrow)" opacity="0.72" />
<path d="M 1186.0 253.0 C 788.2 263.3, 409.8 359.0, 94.0 365.0" fill="none" stroke="#d97757" stroke-width="3" stroke-linecap="round" stroke-dasharray="8 9" marker-end="url(#arrow)" opacity="0.72" />
<path d="M 396.0 365.0 C 415.0 374.4, 461.1 372.2, 489.0 365.0" fill="none" stroke="#d97757" stroke-width="3" stroke-linecap="round" marker-end="url(#arrow)" opacity="0.72" />
<path d="M 791.0 365.0 C 824.8 370.2, 854.6 359.3, 884.0 365.0" fill="none" stroke="#d97757" stroke-width="3" stroke-linecap="round" marker-end="url(#arrow)" opacity="0.72" />
<path d="M 1186.0 365.0 C 790.9 373.6, 409.7 490.6, 94.0 477.0" fill="none" stroke="#d97757" stroke-width="3" stroke-linecap="round" stroke-dasharray="8 9" marker-end="url(#arrow)" opacity="0.72" />
<g>
    <path d="M 111.2 214.6 L 379.2 216.4 L 393.7 233.1 L 396.3 272.1 L 379.0 287.9 L 109.8 288.3 L 94.3 270.9 L 92.6 231.9 Z" fill="#fff7d6" stroke="#d97757" stroke-width="2.4" />
    <path d="M 110.5 220.7 L 379.4 219.7 L 389.5 237.1 L 393.2 271.2 L 375.2 284.6 L 112.6 284.8 L 96.4 272.6 L 95.5 236.8 Z" fill="none" stroke="#d97757" stroke-width="1.1" opacity="0.28" />
    <text x="112" y="248" font-size="18" fill="#171717" font-weight="750">Internal app events</text>
  </g>
<g>
    <path d="M 508.1 214.7 L 773.5 216.8 L 790.8 234.4 L 788.9 273.3 L 774.1 289.7 L 507.4 291.5 L 487.1 273.3 L 487.6 235.0 Z" fill="#e9f4ff" stroke="#3b82f6" stroke-width="2.4" />
    <path d="M 505.7 220.2 L 770.6 220.8 L 789.0 235.2 L 787.5 272.7 L 774.2 284.6 L 509.1 284.8 L 494.5 273.2 L 495.1 233.4 Z" fill="none" stroke="#3b82f6" stroke-width="1.1" opacity="0.28" />
    <text x="507" y="248" font-size="18" fill="#171717" font-weight="750">Active thread events</text>
  </g>
<g>
    <path d="M 902.5 215.6 L 1170.2 217.7 L 1187.4 231.7 L 1187.7 270.8 L 1167.3 289.8 L 899.9 288.4 L 883.6 272.9 L 885.2 234.4 Z" fill="#ecfdf3" stroke="#2f855a" stroke-width="2.4" />
    <path d="M 900.8 219.7 L 1168.4 222.2 L 1184.4 233.4 L 1180.8 271.1 L 1166.7 286.4 L 901.9 284.4 L 885.9 272.3 L 890.4 233.0 Z" fill="none" stroke="#2f855a" stroke-width="1.1" opacity="0.28" />
    <text x="902" y="248" font-size="17" fill="#171717" font-weight="750">Terminal input and resize</text>
  </g>
<g>
    <path d="M 109.7 329.5 L 377.2 327.1 L 396.5 348.0 L 394.9 384.6 L 375.6 402.9 L 114.5 399.6 L 92.3 382.3 L 93.0 347.4 Z" fill="#fff1f2" stroke="#be4456" stroke-width="2.4" />
    <path d="M 110.7 330.4 L 378.5 331.5 L 392.8 349.2 L 392.0 381.6 L 377.8 399.1 L 115.3 398.1 L 98.2 382.4 L 97.3 348.1 Z" fill="none" stroke="#be4456" stroke-width="1.1" opacity="0.28" />
    <text x="112" y="360" font-size="18" fill="#171717" font-weight="750">app-server events</text>
  </g>
<g>
    <path d="M 505.1 329.5 L 773.2 329.5 L 791.7 346.2 L 790.6 385.3 L 770.5 400.8 L 507.4 403.2 L 488.3 383.8 L 488.7 346.9 Z" fill="#f3e8ff" stroke="#8b5cf6" stroke-width="2.4" />
    <path d="M 508.4 331.3 L 773.0 331.8 L 784.9 347.7 L 788.0 380.9 L 773.8 400.2 L 505.9 398.3 L 492.3 385.3 L 495.4 345.4 Z" fill="none" stroke="#8b5cf6" stroke-width="1.1" opacity="0.28" />
    <text x="507" y="360" font-size="18" fill="#171717" font-weight="750">App loop</text>
  </g>
<g>
    <path d="M 901.1 325.7 L 1170.0 326.4 L 1188.4 346.0 L 1186.5 382.3 L 1166.2 403.3 L 901.9 401.9 L 881.6 382.0 L 883.3 345.6 Z" fill="#fef3c7" stroke="#b7791f" stroke-width="2.4" />
    <path d="M 900.9 334.4 L 1166.8 333.5 L 1179.7 347.2 L 1182.0 382.0 L 1169.4 397.5 L 904.8 397.2 L 886.4 384.5 L 890.4 348.0 Z" fill="none" stroke="#b7791f" stroke-width="1.1" opacity="0.28" />
    <text x="902" y="360" font-size="18" fill="#171717" font-weight="750">app-server commands</text>
  </g>
<g>
    <path d="M 111.5 438.1 L 380.1 439.2 L 395.6 458.6 L 398.0 494.0 L 380.1 514.2 L 113.1 515.5 L 95.5 494.7 L 95.2 458.9 Z" fill="#eef2ff" stroke="#4f46e5" stroke-width="2.4" />
    <path d="M 112.9 446.2 L 375.7 444.4 L 392.6 457.2 L 391.9 493.2 L 375.5 511.3 L 112.2 508.3 L 95.9 494.5 L 99.8 460.7 Z" fill="none" stroke="#4f46e5" stroke-width="1.1" opacity="0.28" />
    <text x="112" y="472" font-size="18" fill="#171717" font-weight="750">Chat and pane state</text>
  </g>
  </g>
</svg>
