<?xml version="1.0" encoding="UTF-8"?>
<svg xmlns="http://www.w3.org/2000/svg" width="1280" height="740" viewBox="0 0 1280 740" role="img" aria-labelledby="title-chapter-25-03-zh desc-chapter-25-03-zh">
  <title id="title-chapter-25-03-zh">生成漂移状态机</title>
  <desc id="desc-chapter-25-03-zh">生成漂移状态机的手绘白板图，展示源码变化、运行生成器、发现漂移、CI 阻塞、可审查 diff之间的关系。</desc>
  <defs>
    <marker id="arrow" markerWidth="12" markerHeight="12" refX="10" refY="6" orient="auto" markerUnits="strokeWidth">
      <path d="M 1 1 L 11 6 L 1 11 z" fill="#d97757" />
    </marker>
    <filter id="paper-chapter-25-03-zh" x="-5%" y="-5%" width="110%" height="110%">
      <feTurbulence type="fractalNoise" baseFrequency="0.85" numOctaves="2" stitchTiles="stitch" result="noise" />
      <feColorMatrix type="saturate" values="0" />
      <feComponentTransfer>
        <feFuncA type="table" tableValues="0 0.045" />
      </feComponentTransfer>
    </filter>
  </defs>
  <rect x="0" y="0" width="1280" height="740" rx="30" fill="#fffdf7" />
  <path d="M 52.5 24.2 L 1228.8 22.1 L 1260.5 52.2 L 1259.6 690.6 L 1227.8 716.4 L 49.0 717.1 L 19.8 690.4 L 23.6 48.3 Z" fill="none" stroke="#171717" stroke-width="2" opacity="0.18" />
  <rect x="0" y="0" width="1280" height="740" filter="url(#paper-chapter-25-03-zh)" />
  <g font-family="Virgil, 'Comic Sans MS', 'Segoe Print', 'LXGW WenKai', 'Noto Sans CJK SC', cursive" letter-spacing="0">
    <text x="66" y="95" font-size="31" fill="#171717" font-weight="800">生成漂移状态机</text>
    <path d="M 64.0 166.0 C 449.0 156.2, 877.0 145.4, 1210.0 160.0" fill="none" stroke="#171717" stroke-width="2" opacity="0.22" />
    <g>
      <path d="M 107.5 169.1 L 1175.0 169.9 L 1196.1 190.5 L 1196.8 256.7 L 1171.7 280.8 L 103.6 282.0 L 83.7 257.1 L 82.0 190.0 Z" fill="#fff7d6" stroke="#d97757" stroke-width="2" opacity="0.58" />
      <text x="110" y="212" font-size="19" fill="#171717" font-weight="800">策略</text>
    </g>
<g>
      <path d="M 107.6 296.0 L 1173.7 297.8 L 1198.7 318.8 L 1198.6 382.6 L 1173.5 405.7 L 108.3 406.6 L 84.4 383.2 L 83.4 322.0 Z" fill="#e9f4ff" stroke="#3b82f6" stroke-width="2" opacity="0.58" />
      <text x="110" y="340" font-size="19" fill="#171717" font-weight="800">验证</text>
    </g>
<g>
      <path d="M 108.4 424.3 L 1171.7 426.1 L 1198.8 446.2 L 1198.1 512.4 L 1173.9 534.6 L 105.7 537.3 L 80.7 512.5 L 80.7 446.6 Z" fill="#ecfdf3" stroke="#2f855a" stroke-width="2" opacity="0.58" />
      <text x="110" y="468" font-size="19" fill="#171717" font-weight="800">发布</text>
    </g>
<g>
      <path d="M 104.9 551.1 L 1172.5 551.5 L 1198.3 578.3 L 1195.7 638.3 L 1175.5 661.6 L 106.4 661.8 L 80.4 641.8 L 84.0 575.7 Z" fill="#fff1f2" stroke="#be4456" stroke-width="2" opacity="0.58" />
      <text x="110" y="596" font-size="19" fill="#171717" font-weight="800">回滚</text>
    </g>
<path d="M 480.0 224.0 C 393.1 214.0, 310.8 367.2, 250.0 352.0" fill="none" stroke="#d97757" stroke-width="3" stroke-linecap="round" marker-end="url(#arrow)" opacity="0.72" />
<path d="M 480.0 352.0 C 408.5 349.4, 324.5 490.6, 250.0 480.0" fill="none" stroke="#3b82f6" stroke-width="3" stroke-linecap="round" marker-end="url(#arrow)" opacity="0.72" />
<path d="M 480.0 480.0 C 384.5 465.4, 316.6 598.3, 250.0 608.0" fill="none" stroke="#2f855a" stroke-width="3" stroke-linecap="round" marker-end="url(#arrow)" opacity="0.72" />
<path d="M 480.0 608.0 C 501.0 593.6, 531.5 219.5, 550.0 224.0" fill="none" stroke="#be4456" stroke-width="3" stroke-linecap="round" stroke-dasharray="8 9" marker-end="url(#arrow)" opacity="0.72" />
<path d="M 780.0 224.0 C 683.0 208.1, 608.4 345.9, 550.0 352.0" fill="none" stroke="#8b5cf6" stroke-width="3" stroke-linecap="round" marker-end="url(#arrow)" opacity="0.72" />
<path d="M 780.0 352.0 C 687.9 348.1, 620.9 468.6, 550.0 480.0" fill="none" stroke="#b7791f" stroke-width="3" stroke-linecap="round" marker-end="url(#arrow)" opacity="0.72" />
<g>
    <path d="M 268.1 187.9 L 459.6 187.3 L 478.0 207.1 L 480.0 241.3 L 460.5 262.1 L 267.2 259.1 L 252.1 244.0 L 248.6 206.0 Z" fill="#fff7d6" stroke="#d97757" stroke-width="2.4" />
    <path d="M 269.6 193.3 L 458.7 191.9 L 473.9 209.3 L 478.1 239.2 L 461.3 255.2 L 270.5 257.5 L 256.0 242.0 L 252.7 208.5 Z" fill="none" stroke="#d97757" stroke-width="1.1" opacity="0.28" />
    <text x="268" y="220" font-size="18" fill="#171717" font-weight="750">源码变化</text>
  </g>
<g>
    <path d="M 270.4 315.3 L 461.3 314.5 L 478.3 335.9 L 478.0 367.8 L 461.1 386.6 L 270.5 386.1 L 251.0 369.0 L 249.7 336.2 Z" fill="#e9f4ff" stroke="#3b82f6" stroke-width="2.4" />
    <path d="M 269.3 322.5 L 459.9 322.1 L 477.9 334.0 L 477.2 366.7 L 462.0 381.8 L 269.0 386.3 L 256.0 366.9 L 252.5 334.2 Z" fill="none" stroke="#3b82f6" stroke-width="1.1" opacity="0.28" />
    <text x="268" y="348" font-size="18" fill="#171717" font-weight="750">运行生成器</text>
  </g>
<g>
    <path d="M 265.6 444.4 L 461.6 443.7 L 482.1 460.4 L 480.0 497.0 L 464.0 514.1 L 266.6 517.4 L 252.0 497.7 L 247.6 461.1 Z" fill="#ecfdf3" stroke="#2f855a" stroke-width="2.4" />
    <path d="M 271.3 449.2 L 460.6 449.6 L 477.9 461.5 L 474.4 495.1 L 461.6 510.6 L 269.6 510.4 L 256.4 498.0 L 254.4 460.9 Z" fill="none" stroke="#2f855a" stroke-width="1.1" opacity="0.28" />
    <text x="268" y="476" font-size="18" fill="#171717" font-weight="750">发现漂移</text>
  </g>
<g>
    <path d="M 268.4 569.6 L 463.3 570.0 L 481.6 589.3 L 478.1 626.4 L 461.7 645.7 L 269.9 646.2 L 248.8 626.6 L 250.9 588.2 Z" fill="#fff1f2" stroke="#be4456" stroke-width="2.4" />
    <path d="M 269.8 578.2 L 462.4 573.8 L 475.3 591.9 L 477.7 624.0 L 458.7 639.9 L 270.5 641.3 L 253.1 622.6 L 254.5 589.5 Z" fill="none" stroke="#be4456" stroke-width="1.1" opacity="0.28" />
    <text x="268" y="604" font-size="18" fill="#171717" font-weight="750">CI 阻塞</text>
  </g>
<g>
    <path d="M 568.6 190.4 L 761.3 189.4 L 781.6 204.9 L 781.5 240.2 L 762.2 259.4 L 570.4 257.8 L 552.4 243.5 L 551.3 204.0 Z" fill="#f3e8ff" stroke="#8b5cf6" stroke-width="2.4" />
    <path d="M 568.3 192.5 L 763.3 192.0 L 777.2 208.5 L 778.2 240.9 L 762.7 253.7 L 569.6 257.0 L 554.6 240.4 L 552.5 205.3 Z" fill="none" stroke="#8b5cf6" stroke-width="1.1" opacity="0.28" />
    <text x="568" y="220" font-size="18" fill="#171717" font-weight="750">可审查 diff</text>
  </g>
<g>
    <path d="M 565.5 317.9 L 762.6 315.4 L 781.4 333.6 L 781.8 369.8 L 763.6 390.2 L 569.2 386.3 L 551.8 368.0 L 549.6 332.9 Z" fill="#fef3c7" stroke="#b7791f" stroke-width="2.4" />
    <path d="M 568.8 319.7 L 761.8 319.5 L 774.6 334.4 L 777.4 368.0 L 760.6 382.0 L 571.2 385.5 L 553.7 367.5 L 553.4 337.2 Z" fill="none" stroke="#b7791f" stroke-width="1.1" opacity="0.28" />
    <text x="568" y="348" font-size="18" fill="#171717" font-weight="750">接受</text>
  </g>
<g>
    <path d="M 569.5 444.9 L 763.8 443.4 L 780.5 460.3 L 781.3 498.0 L 763.5 516.8 L 565.9 515.7 L 548.3 500.5 L 549.1 461.0 Z" fill="#eef2ff" stroke="#4f46e5" stroke-width="2.4" />
    <path d="M 571.4 445.6 L 759.7 449.7 L 775.7 463.6 L 774.1 497.0 L 762.5 511.7 L 568.6 512.2 L 555.9 497.1 L 556.4 462.1 Z" fill="none" stroke="#4f46e5" stroke-width="1.1" opacity="0.28" />
    <text x="568" y="476" font-size="18" fill="#171717" font-weight="750">返工循环</text>
  </g>
  </g>
</svg>
