<?xml version="1.0" encoding="UTF-8"?>
<svg xmlns="http://www.w3.org/2000/svg" width="1280" height="720" viewBox="0 0 1280 720" role="img" aria-labelledby="title-chapter-06-02-zh desc-chapter-06-02-zh">
  <title id="title-chapter-06-02-zh">循环的状态机</title>
  <desc id="desc-chapter-06-02-zh">循环的状态机的手绘白板图，展示开始、准备与提示 Hook、提示被阻断、模型采样、流式事件之间的关系。</desc>
  <defs>
    <marker id="arrow" markerWidth="12" markerHeight="12" refX="10" refY="6" orient="auto" markerUnits="strokeWidth">
      <path d="M 1 1 L 11 6 L 1 11 z" fill="#d97757" />
    </marker>
    <filter id="paper-chapter-06-02-zh" x="-5%" y="-5%" width="110%" height="110%">
      <feTurbulence type="fractalNoise" baseFrequency="0.85" numOctaves="2" stitchTiles="stitch" result="noise" />
      <feColorMatrix type="saturate" values="0" />
      <feComponentTransfer>
        <feFuncA type="table" tableValues="0 0.045" />
      </feComponentTransfer>
    </filter>
  </defs>
  <rect x="0" y="0" width="1280" height="720" rx="30" fill="#fffdf7" />
  <path d="M 49.6 21.4 L 1231.1 23.0 L 1255.9 52.1 L 1255.9 669.0 L 1229.4 696.7 L 50.4 698.2 L 23.8 669.4 L 24.4 47.7 Z" fill="none" stroke="#171717" stroke-width="2" opacity="0.18" />
  <rect x="0" y="0" width="1280" height="720" filter="url(#paper-chapter-06-02-zh)" />
  <g font-family="Virgil, 'Comic Sans MS', 'Segoe Print', 'LXGW WenKai', 'Noto Sans CJK SC', cursive" letter-spacing="0">
    <text x="66" y="95" font-size="31" fill="#171717" font-weight="800">循环的状态机</text>
    <path d="M 64.0 166.0 C 472.5 177.2, 875.0 175.2, 1210.0 160.0" fill="none" stroke="#171717" stroke-width="2" opacity="0.22" />
    <ellipse cx="640" cy="380" rx="527" ry="288" fill="none" stroke="#475569" stroke-width="2.2" stroke-dasharray="13 12" opacity="0.28" />
    <path d="M 508.6 323.4 L 768.6 324.2 L 794.8 344.8 L 793.2 399.4 L 770.9 424.0 L 508.7 423.3 L 486.7 400.7 L 486.4 347.6 Z" fill="#fffdf7" stroke="#d97757" stroke-width="2" opacity="0.92" />
    <text x="512" y="362" font-size="18" fill="#171717" font-weight="800">循环的状态机</text>
<path d="M 640.0 144.0 C 717.3 154.2, 829.7 179.3, 907.4 187.9" fill="none" stroke="#8b5cf6" stroke-width="3" stroke-linecap="round" stroke-dasharray="8 9" marker-end="url(#arrow)" opacity="0.72" />
<path d="M 907.4 187.9 C 951.7 195.5, 1008.3 288.1, 1072.7 302.9" fill="none" stroke="#8b5cf6" stroke-width="3" stroke-linecap="round" marker-end="url(#arrow)" opacity="0.72" />
<path d="M 1072.7 302.9 C 1066.1 296.3, 1059.5 458.6, 1072.7 445.1" fill="none" stroke="#8b5cf6" stroke-width="3" stroke-linecap="round" stroke-dasharray="8 9" marker-end="url(#arrow)" opacity="0.72" />
<path d="M 1072.7 445.1 C 999.4 434.8, 947.1 570.9, 907.4 560.1" fill="none" stroke="#8b5cf6" stroke-width="3" stroke-linecap="round" marker-end="url(#arrow)" opacity="0.72" />
<path d="M 907.4 560.1 C 816.9 559.5, 717.8 605.0, 640.0 604.0" fill="none" stroke="#8b5cf6" stroke-width="3" stroke-linecap="round" stroke-dasharray="8 9" marker-end="url(#arrow)" opacity="0.72" />
<path d="M 640.0 604.0 C 544.4 610.6, 438.1 574.6, 372.6 560.1" fill="none" stroke="#8b5cf6" stroke-width="3" stroke-linecap="round" marker-end="url(#arrow)" opacity="0.72" />
<path d="M 372.6 560.1 C 323.8 565.4, 272.7 456.4, 207.3 445.1" fill="none" stroke="#8b5cf6" stroke-width="3" stroke-linecap="round" stroke-dasharray="8 9" marker-end="url(#arrow)" opacity="0.72" />
<path d="M 207.3 445.1 C 208.4 434.8, 196.4 311.8, 207.3 302.9" fill="none" stroke="#8b5cf6" stroke-width="3" stroke-linecap="round" marker-end="url(#arrow)" opacity="0.72" />
<path d="M 207.3 302.9 C 252.9 292.3, 330.7 193.9, 372.6 187.9" fill="none" stroke="#8b5cf6" stroke-width="3" stroke-linecap="round" stroke-dasharray="8 9" marker-end="url(#arrow)" opacity="0.72" />
<path d="M 372.6 187.9 C 453.2 171.9, 553.1 155.0, 640.0 144.0" fill="none" stroke="#8b5cf6" stroke-width="3" stroke-linecap="round" marker-end="url(#arrow)" opacity="0.72" />
<g>
    <path d="M 525.3 109.9 L 754.9 109.1 L 774.3 124.2 L 775.3 162.8 L 757.4 177.7 L 522.8 180.4 L 503.4 163.1 L 506.9 127.1 Z" fill="#fff7d6" stroke="#d97757" stroke-width="2.4" />
    <path d="M 523.3 111.8 L 754.0 112.7 L 772.5 125.6 L 771.8 159.8 L 753.6 174.8 L 521.6 174.5 L 508.2 158.9 L 506.8 126.0 Z" fill="none" stroke="#d97757" stroke-width="1.1" opacity="0.28" />
    <text x="523" y="140" font-size="18" fill="#171717" font-weight="750">开始</text>
  </g>
<g>
    <path d="M 790.3 150.1 L 1026.3 150.9 L 1042.4 167.9 L 1044.1 205.4 L 1025.1 223.6 L 790.0 223.5 L 773.5 204.6 L 770.4 167.9 Z" fill="#e9f4ff" stroke="#3b82f6" stroke-width="2.4" />
    <path d="M 790.3 157.3 L 1022.9 157.1 L 1037.2 172.2 L 1040.3 205.4 L 1023.4 218.6 L 789.6 218.3 L 778.3 203.9 L 774.9 169.7 Z" fill="none" stroke="#3b82f6" stroke-width="1.1" opacity="0.28" />
    <text x="790.4422897930754" y="183.92609129376208" font-size="18" fill="#171717" font-weight="750">准备与提示 Hook</text>
  </g>
<g>
    <path d="M 956.4 266.6 L 1187.7 264.5 L 1206.5 283.3 L 1208.4 321.4 L 1189.0 337.3 L 956.8 340.6 L 940.1 321.8 L 939.7 286.7 Z" fill="#ecfdf3" stroke="#2f855a" stroke-width="2.4" />
    <path d="M 954.2 272.7 L 1189.4 271.0 L 1202.2 287.3 L 1206.1 321.3 L 1188.2 333.0 L 957.3 333.4 L 939.8 318.9 L 943.1 285.8 Z" fill="none" stroke="#2f855a" stroke-width="1.1" opacity="0.28" />
    <text x="955.7307149142948" y="298.9260912937621" font-size="18" fill="#171717" font-weight="750">提示被阻断</text>
  </g>
<g>
    <path d="M 954.1 410.0 L 1188.1 406.8 L 1207.9 429.3 L 1207.7 463.2 L 1190.4 478.8 L 956.6 481.5 L 938.5 464.7 L 936.1 427.4 Z" fill="#fff1f2" stroke="#be4456" stroke-width="2.4" />
    <path d="M 957.1 415.4 L 1190.4 414.4 L 1205.5 428.2 L 1204.0 461.3 L 1191.1 477.3 L 956.3 476.2 L 943.2 463.8 L 941.1 429.6 Z" fill="none" stroke="#be4456" stroke-width="1.1" opacity="0.28" />
    <text x="955.7307149142948" y="441.0739087062379" font-size="18" fill="#171717" font-weight="750">模型采样</text>
  </g>
<g>
    <path d="M 791.2 524.0 L 1022.7 525.2 L 1044.9 542.3 L 1041.2 580.2 L 1026.8 596.5 L 792.9 598.5 L 772.5 576.7 L 771.9 539.8 Z" fill="#f3e8ff" stroke="#8b5cf6" stroke-width="2.4" />
    <path d="M 791.6 529.6 L 1024.9 528.6 L 1036.9 543.0 L 1037.5 579.5 L 1025.8 593.8 L 791.1 591.4 L 778.5 576.8 L 777.2 545.2 Z" fill="none" stroke="#8b5cf6" stroke-width="1.1" opacity="0.28" />
    <text x="790.4422897930754" y="556.073908706238" font-size="18" fill="#171717" font-weight="750">流式事件</text>
  </g>
<g>
    <path d="M 522.3 567.6 L 758.2 566.0 L 776.6 586.3 L 774.9 622.3 L 757.6 641.9 L 524.0 639.3 L 507.0 620.1 L 505.2 583.7 Z" fill="#fef3c7" stroke="#b7791f" stroke-width="2.4" />
    <path d="M 525.7 570.1 L 756.6 571.3 L 773.2 587.3 L 773.4 623.4 L 756.9 634.0 L 522.5 636.6 L 508.1 618.7 L 511.2 585.2 Z" fill="none" stroke="#b7791f" stroke-width="1.1" opacity="0.28" />
    <text x="523" y="600" font-size="18" fill="#171717" font-weight="750">分发工具</text>
  </g>
<g>
    <path d="M 254.6 525.9 L 487.4 526.4 L 509.9 540.9 L 509.4 577.8 L 491.8 597.4 L 256.2 597.3 L 239.4 578.9 L 236.9 541.1 Z" fill="#eef2ff" stroke="#4f46e5" stroke-width="2.4" />
    <path d="M 254.7 526.1 L 488.1 529.9 L 501.7 541.7 L 503.6 578.0 L 488.4 592.3 L 256.0 591.4 L 243.1 577.6 L 242.4 543.5 Z" fill="none" stroke="#4f46e5" stroke-width="1.1" opacity="0.28" />
    <text x="255.55771020692475" y="556.073908706238" font-size="18" fill="#171717" font-weight="750">记录观察结果</text>
  </g>
<g>
    <path d="M 89.7 408.4 L 322.0 408.7 L 340.1 427.7 L 342.3 462.7 L 323.3 479.3 L 92.3 480.0 L 73.1 461.0 L 74.6 427.8 Z" fill="#f1f5f9" stroke="#475569" stroke-width="2.4" />
    <path d="M 90.9 413.4 L 325.0 413.0 L 340.6 427.4 L 337.8 463.2 L 321.5 478.5 L 93.2 476.7 L 75.5 464.0 L 75.9 428.8 Z" fill="none" stroke="#475569" stroke-width="1.1" opacity="0.28" />
    <text x="90.26928508570512" y="441.07390870623794" font-size="18" fill="#171717" font-weight="750">压缩历史</text>
  </g>
<g>
    <path d="M 91.0 265.9 L 323.5 266.3 L 343.4 283.3 L 340.5 320.9 L 325.8 336.6 L 91.5 336.5 L 74.6 318.7 L 71.2 286.8 Z" fill="#fff7d6" stroke="#d97757" stroke-width="2.4" />
    <path d="M 89.3 269.9 L 321.4 269.5 L 336.4 287.6 L 339.4 319.0 L 324.9 334.0 L 91.5 336.6 L 78.0 319.1 L 78.3 285.2 Z" fill="none" stroke="#d97757" stroke-width="1.1" opacity="0.28" />
    <text x="90.26928508570506" y="298.9260912937621" font-size="18" fill="#171717" font-weight="750">待处理输入</text>
  </g>
<g>
    <path d="M 253.3 154.0 L 490.0 150.3 L 505.5 172.0 L 508.7 203.5 L 492.0 225.2 L 256.8 224.9 L 239.1 205.4 L 237.5 169.0 Z" fill="#e9f4ff" stroke="#3b82f6" stroke-width="2.4" />
    <path d="M 256.9 154.1 L 487.0 158.0 L 502.0 168.6 L 502.0 203.5 L 486.2 218.3 L 258.7 218.9 L 241.1 206.0 L 242.7 168.6 Z" fill="none" stroke="#3b82f6" stroke-width="1.1" opacity="0.28" />
    <text x="255.5577102069247" y="183.9260912937621" font-size="18" fill="#171717" font-weight="750">停止 Hook</text>
  </g>
  </g>
</svg>
