<?xml version="1.0" encoding="UTF-8"?>
<svg xmlns="http://www.w3.org/2000/svg" width="1280" height="700" viewBox="0 0 1280 700" role="img" aria-labelledby="title-chapter-13-concept-3-zh desc-chapter-13-concept-3-zh">
  <title id="title-chapter-13-concept-3-zh">托管网络策略</title>
  <desc id="desc-chapter-13-concept-3-zh">托管网络策略的手绘白板图，展示权限配置、托管要求、平台网络控制、允许主机、不可执行约束之间的关系。</desc>
  <defs>
    <marker id="arrow" markerWidth="12" markerHeight="12" refX="10" refY="6" orient="auto" markerUnits="strokeWidth">
      <path d="M 1 1 L 11 6 L 1 11 z" fill="#d97757" />
    </marker>
    <filter id="paper-chapter-13-concept-3-zh" x="-5%" y="-5%" width="110%" height="110%">
      <feTurbulence type="fractalNoise" baseFrequency="0.85" numOctaves="2" stitchTiles="stitch" result="noise" />
      <feColorMatrix type="saturate" values="0" />
      <feComponentTransfer>
        <feFuncA type="table" tableValues="0 0.045" />
      </feComponentTransfer>
    </filter>
  </defs>
  <rect x="0" y="0" width="1280" height="700" rx="30" fill="#fffdf7" />
  <path d="M 48.4 21.3 L 1232.0 23.6 L 1255.7 48.6 L 1258.8 651.3 L 1229.9 678.1 L 49.5 679.9 L 20.3 648.9 L 23.3 51.5 Z" fill="none" stroke="#171717" stroke-width="2" opacity="0.18" />
  <rect x="0" y="0" width="1280" height="700" filter="url(#paper-chapter-13-concept-3-zh)" />
  <g font-family="Virgil, 'Comic Sans MS', 'Segoe Print', 'LXGW WenKai', 'Noto Sans CJK SC', cursive" letter-spacing="0">
    <text x="66" y="95" font-size="31" fill="#171717" font-weight="800">托管网络策略</text>
    <path d="M 64.0 166.0 C 456.5 155.9, 877.4 173.9, 1210.0 160.0" fill="none" stroke="#171717" stroke-width="2" opacity="0.22" />
    <path d="M 260.0 150.0 C 264.2 142.8, 261.2 606.0, 260.0 610.0" fill="none" stroke="#3b82f6" stroke-width="2" stroke-dasharray="10 12" opacity="0.25" />
    <path d="M 1020.0 150.0 C 1033.2 143.2, 1024.0 601.5, 1020.0 610.0" fill="none" stroke="#2f855a" stroke-width="2" stroke-dasharray="10 12" opacity="0.25" />
<path d="M 640.0 208.0 C 649.0 216.2, 623.6 211.9, 640.0 224.0" fill="none" stroke="#d97757" stroke-width="3" stroke-linecap="round" marker-end="url(#arrow)" opacity="0.72" />
<path d="M 640.0 272.0 C 653.2 287.5, 629.4 287.7, 640.0 288.0" fill="none" stroke="#d97757" stroke-width="3" stroke-linecap="round" marker-end="url(#arrow)" opacity="0.72" />
<path d="M 640.0 336.0 C 646.0 346.8, 651.3 357.8, 640.0 352.0" fill="none" stroke="#d97757" stroke-width="3" stroke-linecap="round" marker-end="url(#arrow)" opacity="0.72" />
<path d="M 640.0 400.0 C 635.8 398.7, 646.3 412.7, 640.0 416.0" fill="none" stroke="#d97757" stroke-width="3" stroke-linecap="round" marker-end="url(#arrow)" opacity="0.72" />
<path d="M 640.0 464.0 C 635.2 449.0, 646.8 475.2, 640.0 480.0" fill="none" stroke="#d97757" stroke-width="3" stroke-linecap="round" marker-end="url(#arrow)" opacity="0.72" />
<g>
    <path d="M 277.2 158.2 L 1002.1 161.9 L 1021.5 178.0 L 1020.3 190.3 L 1001.6 205.6 L 280.4 210.1 L 260.5 187.7 L 259.8 179.3 Z" fill="#fff7d6" stroke="#d97757" stroke-width="2.4" />
    <path d="M 277.6 163.6 L 999.7 164.5 L 1014.5 178.2 L 1017.1 191.1 L 1001.4 204.7 L 280.7 204.5 L 264.1 188.8 L 265.9 179.0 Z" fill="none" stroke="#d97757" stroke-width="1.1" opacity="0.28" />
    <text x="278" y="192" font-size="18" fill="#171717" font-weight="750">权限配置</text>
  </g>
<g>
    <path d="M 324.6 221.9 L 954.6 224.8 L 973.8 240.6 L 970.6 253.7 L 954.0 273.5 L 324.6 269.9 L 307.9 252.3 L 308.5 244.2 Z" fill="#e9f4ff" stroke="#3b82f6" stroke-width="2.4" />
    <path d="M 326.8 226.5 L 954.4 227.6 L 970.0 244.3 L 970.0 252.7 L 956.5 266.3 L 325.1 268.6 L 309.9 255.5 L 310.1 244.3 Z" fill="none" stroke="#3b82f6" stroke-width="1.1" opacity="0.28" />
    <text x="325" y="256" font-size="18" fill="#171717" font-weight="750">托管要求</text>
  </g>
<g>
    <path d="M 336.4 288.9 L 942.7 290.2 L 959.7 305.9 L 963.4 319.8 L 943.3 338.1 L 338.6 336.7 L 317.3 317.3 L 319.0 305.6 Z" fill="#ecfdf3" stroke="#2f855a" stroke-width="2.4" />
    <path d="M 339.7 292.8 L 940.4 289.9 L 958.2 308.3 L 955.3 314.5 L 941.0 334.2 L 336.6 333.9 L 321.8 319.0 L 324.6 309.3 Z" fill="none" stroke="#2f855a" stroke-width="1.1" opacity="0.28" />
    <text x="337" y="320" font-size="18" fill="#171717" font-weight="750">平台网络控制</text>
  </g>
<g>
    <path d="M 641.3 351.3 L 947.0 374.8 L 638.0 399.1 L 332.5 375.0 Z" fill="#fff1f2" stroke="#be4456" stroke-width="2.4" />
    <path d="M 640.2 354.6 L 942.9 375.7 L 639.2 396.9 L 334.5 374.4 Z" fill="none" stroke="#be4456" stroke-width="1.1" opacity="0.28" />
    <text x="359" y="372" font-size="18" fill="#171717" font-weight="750">允许主机</text>
  </g>
<g>
    <path d="M 360.5 417.3 L 920.0 415.7 L 937.5 433.4 L 936.0 445.8 L 918.2 465.7 L 363.3 462.5 L 342.1 448.0 L 343.3 435.4 Z" fill="#f3e8ff" stroke="#8b5cf6" stroke-width="2.4" />
    <path d="M 361.5 420.2 L 917.5 420.6 L 933.8 433.5 L 932.3 445.2 L 917.3 458.5 L 360.1 460.6 L 349.4 444.9 L 347.2 432.5 Z" fill="none" stroke="#8b5cf6" stroke-width="1.1" opacity="0.28" />
    <text x="361" y="448" font-size="18" fill="#171717" font-weight="750">不可执行约束</text>
  </g>
<g>
    <path d="M 276.1 477.8 L 1002.1 479.3 L 1020.9 498.1 L 1019.2 510.8 L 999.8 528.7 L 277.6 526.1 L 257.7 507.5 L 257.8 500.2 Z" fill="#fef3c7" stroke="#b7791f" stroke-width="2.4" />
    <path d="M 280.1 484.5 L 1001.6 483.2 L 1015.5 498.2 L 1016.9 508.9 L 1000.6 523.8 L 280.7 522.2 L 263.1 508.9 L 265.8 498.5 Z" fill="none" stroke="#b7791f" stroke-width="1.1" opacity="0.28" />
    <text x="278" y="512" font-size="18" fill="#171717" font-weight="750">执行元数据</text>
  </g>
  </g>
</svg>
