<?xml version="1.0" encoding="UTF-8"?>
<svg xmlns="http://www.w3.org/2000/svg" width="1280" height="700" viewBox="0 0 1280 700" role="img" aria-labelledby="title-chapter-10-concept-2-en desc-chapter-10-concept-2-en">
  <title id="title-chapter-10-concept-2-en">exec-server Boundary</title>
  <desc id="desc-chapter-10-concept-2-en">Hand-drawn whiteboard figure for exec-server Boundary, showing the relationship between Execution request, Policy and approval, Local or remote executor, Executor filesystem, Sequenced output.</desc>
  <defs>
    <marker id="arrow" markerWidth="12" markerHeight="12" refX="10" refY="6" orient="auto" markerUnits="strokeWidth">
      <path d="M 1 1 L 11 6 L 1 11 z" fill="#d97757" />
    </marker>
    <filter id="paper-chapter-10-concept-2-en" x="-5%" y="-5%" width="110%" height="110%">
      <feTurbulence type="fractalNoise" baseFrequency="0.85" numOctaves="2" stitchTiles="stitch" result="noise" />
      <feColorMatrix type="saturate" values="0" />
      <feComponentTransfer>
        <feFuncA type="table" tableValues="0 0.045" />
      </feComponentTransfer>
    </filter>
  </defs>
  <rect x="0" y="0" width="1280" height="700" rx="30" fill="#fffdf7" />
  <path d="M 49.5 21.2 L 1228.5 20.4 L 1259.5 52.0 L 1259.7 650.7 L 1230.3 675.7 L 49.3 679.3 L 21.1 650.3 L 21.3 48.0 Z" fill="none" stroke="#171717" stroke-width="2" opacity="0.18" />
  <rect x="0" y="0" width="1280" height="700" filter="url(#paper-chapter-10-concept-2-en)" />
  <g font-family="Virgil, 'Comic Sans MS', 'Segoe Print', 'LXGW WenKai', 'Noto Sans CJK SC', cursive" letter-spacing="0">
    <text x="66" y="95" font-size="33" fill="#171717" font-weight="800">exec server Boundary</text>
    <path d="M 64.0 166.0 C 480.9 173.7, 867.2 151.7, 1210.0 160.0" fill="none" stroke="#171717" stroke-width="2" opacity="0.22" />
    <path d="M 260.0 150.0 C 273.4 152.9, 246.5 612.2, 260.0 610.0" fill="none" stroke="#3b82f6" stroke-width="2" stroke-dasharray="10 12" opacity="0.25" />
    <path d="M 1020.0 150.0 C 1036.6 147.6, 1028.9 604.0, 1020.0 610.0" fill="none" stroke="#2f855a" stroke-width="2" stroke-dasharray="10 12" opacity="0.25" />
<path d="M 640.0 208.0 C 646.8 210.6, 637.3 223.1, 640.0 224.0" fill="none" stroke="#d97757" stroke-width="3" stroke-linecap="round" marker-end="url(#arrow)" opacity="0.72" />
<path d="M 640.0 272.0 C 628.7 282.4, 654.6 296.8, 640.0 288.0" fill="none" stroke="#d97757" stroke-width="3" stroke-linecap="round" marker-end="url(#arrow)" opacity="0.72" />
<path d="M 640.0 336.0 C 646.7 343.5, 635.7 363.8, 640.0 352.0" fill="none" stroke="#d97757" stroke-width="3" stroke-linecap="round" marker-end="url(#arrow)" opacity="0.72" />
<path d="M 640.0 400.0 C 649.3 406.4, 652.6 424.8, 640.0 416.0" fill="none" stroke="#d97757" stroke-width="3" stroke-linecap="round" marker-end="url(#arrow)" opacity="0.72" />
<g>
    <path d="M 275.6 159.3 L 1001.3 161.1 L 1019.7 178.5 L 1019.8 189.5 L 999.8 209.8 L 279.7 210.2 L 259.5 189.5 L 259.8 177.1 Z" fill="#fff7d6" stroke="#d97757" stroke-width="2.4" />
    <path d="M 279.6 162.5 L 1000.1 161.8 L 1015.6 180.4 L 1013.5 187.2 L 1000.0 204.4 L 281.3 205.4 L 262.3 191.3 L 261.8 178.4 Z" fill="none" stroke="#d97757" stroke-width="1.1" opacity="0.28" />
    <text x="278" y="192" font-size="18" fill="#171717" font-weight="750">Execution request</text>
  </g>
<g>
    <path d="M 641.4 225.0 L 971.2 247.5 L 639.8 273.4 L 307.2 246.8 Z" fill="#e9f4ff" stroke="#3b82f6" stroke-width="2.4" />
    <path d="M 639.3 229.8 L 969.7 246.2 L 641.1 268.3 L 311.2 247.8 Z" fill="none" stroke="#3b82f6" stroke-width="1.1" opacity="0.28" />
    <text x="335" y="244" font-size="18" fill="#171717" font-weight="750">Policy and approval</text>
  </g>
<g>
    <path d="M 337.8 288.5 L 942.4 290.4 L 962.7 305.1 L 961.2 315.6 L 943.9 337.1 L 336.8 335.9 L 318.3 319.9 L 321.0 303.9 Z" fill="#ecfdf3" stroke="#2f855a" stroke-width="2.4" />
    <path d="M 337.2 292.2 L 943.3 290.3 L 955.8 307.8 L 959.0 317.7 L 942.2 330.6 L 337.7 333.2 L 323.2 315.6 L 324.4 308.5 Z" fill="none" stroke="#2f855a" stroke-width="1.1" opacity="0.28" />
    <text x="337" y="320" font-size="17" fill="#171717" font-weight="750">Local or remote executor</text>
  </g>
<g>
    <path d="M 346.8 350.3 L 929.9 354.3 L 951.5 372.5 L 949.9 379.5 L 930.7 399.8 L 348.8 401.8 L 329.2 383.0 L 331.3 371.8 Z" fill="#fff1f2" stroke="#be4456" stroke-width="2.4" />
    <path d="M 349.5 357.4 L 930.3 357.3 L 943.1 370.3 L 946.7 379.5 L 929.1 395.6 L 348.4 395.9 L 334.7 382.0 L 336.2 370.4 Z" fill="none" stroke="#be4456" stroke-width="1.1" opacity="0.28" />
    <text x="349" y="384" font-size="18" fill="#171717" font-weight="750">Executor filesystem</text>
  </g>
<g>
    <path d="M 276.2 416.2 L 1004.4 414.3 L 1020.6 432.2 L 1017.9 446.5 L 1002.0 462.4 L 278.2 465.7 L 262.3 446.9 L 260.3 433.4 Z" fill="#f3e8ff" stroke="#8b5cf6" stroke-width="2.4" />
    <path d="M 278.9 420.8 L 1000.7 417.7 L 1016.9 434.4 L 1017.7 447.1 L 1002.5 461.2 L 279.2 458.7 L 264.9 444.2 L 262.4 436.9 Z" fill="none" stroke="#8b5cf6" stroke-width="1.1" opacity="0.28" />
    <text x="278" y="448" font-size="18" fill="#171717" font-weight="750">Sequenced output</text>
  </g>
  </g>
</svg>
