<?xml version="1.0" encoding="UTF-8"?>
<svg xmlns="http://www.w3.org/2000/svg" width="1280" height="700" viewBox="0 0 1280 700" role="img" aria-labelledby="title-chapter-01-concept-2-zh desc-chapter-01-concept-2-zh">
  <title id="title-chapter-01-concept-2-zh">先讲契约，再讲接入面</title>
  <desc id="desc-chapter-01-concept-2-zh">先讲契约，再讲接入面的手绘白板图，展示可替换客户端、稳定 operation、运行时边界、已接受事件、回放证据之间的关系。</desc>
  <defs>
    <marker id="arrow" markerWidth="12" markerHeight="12" refX="10" refY="6" orient="auto" markerUnits="strokeWidth">
      <path d="M 1 1 L 11 6 L 1 11 z" fill="#d97757" />
    </marker>
    <filter id="paper-chapter-01-concept-2-zh" x="-5%" y="-5%" width="110%" height="110%">
      <feTurbulence type="fractalNoise" baseFrequency="0.85" numOctaves="2" stitchTiles="stitch" result="noise" />
      <feColorMatrix type="saturate" values="0" />
      <feComponentTransfer>
        <feFuncA type="table" tableValues="0 0.045" />
      </feComponentTransfer>
    </filter>
  </defs>
  <rect x="0" y="0" width="1280" height="700" rx="30" fill="#fffdf7" />
  <path d="M 48.2 24.3 L 1227.8 19.9 L 1259.4 48.9 L 1257.6 650.2 L 1230.5 680.5 L 49.7 675.8 L 23.8 651.8 L 23.5 49.7 Z" fill="none" stroke="#171717" stroke-width="2" opacity="0.18" />
  <rect x="0" y="0" width="1280" height="700" filter="url(#paper-chapter-01-concept-2-zh)" />
  <g font-family="Virgil, 'Comic Sans MS', 'Segoe Print', 'LXGW WenKai', 'Noto Sans CJK SC', cursive" letter-spacing="0">
    <text x="66" y="95" font-size="31" fill="#171717" font-weight="800">先讲契约，再讲接入面</text>
    <path d="M 64.0 166.0 C 450.1 180.4, 858.4 153.8, 1210.0 160.0" fill="none" stroke="#171717" stroke-width="2" opacity="0.22" />
    <path d="M 640.0 380.0 C 633.3 382.8, 653.6 146.4, 640.0 157.0" fill="none" stroke="#d97757" stroke-width="3" stroke-linecap="round" stroke-dasharray="8 9" marker-end="url(#arrow)" opacity="0.72" />
<path d="M 640.0 380.0 C 764.0 384.2, 925.3 265.3, 1029.7 267.0" fill="none" stroke="#3b82f6" stroke-width="3" stroke-linecap="round" stroke-dasharray="8 9" marker-end="url(#arrow)" opacity="0.72" />
<path d="M 640.0 380.0 C 764.3 369.9, 911.6 495.2, 1029.7 487.0" fill="none" stroke="#2f855a" stroke-width="3" stroke-linecap="round" stroke-dasharray="8 9" marker-end="url(#arrow)" opacity="0.72" />
<path d="M 640.0 380.0 C 634.1 372.5, 643.2 612.3, 640.0 597.0" fill="none" stroke="#be4456" stroke-width="3" stroke-linecap="round" stroke-dasharray="8 9" marker-end="url(#arrow)" opacity="0.72" />
<path d="M 640.0 380.0 C 496.4 387.1, 381.4 490.0, 250.3 487.0" fill="none" stroke="#8b5cf6" stroke-width="3" stroke-linecap="round" stroke-dasharray="8 9" marker-end="url(#arrow)" opacity="0.72" />
<path d="M 640.0 380.0 C 486.7 382.0, 363.8 259.4, 250.3 267.0" fill="none" stroke="#b7791f" stroke-width="3" stroke-linecap="round" stroke-dasharray="8 9" marker-end="url(#arrow)" opacity="0.72" />
<g>
    <path d="M 547.3 120.8 L 733.7 123.9 L 754.1 140.8 L 752.8 173.5 L 732.4 190.9 L 547.1 192.0 L 529.8 172.3 L 527.8 140.7 Z" fill="#e9f4ff" stroke="#3b82f6" stroke-width="2.4" />
    <path d="M 547.2 124.8 L 734.9 126.8 L 749.3 139.9 L 749.8 174.3 L 734.3 189.5 L 545.4 188.8 L 532.7 174.8 L 534.4 139.1 Z" fill="none" stroke="#3b82f6" stroke-width="1.1" opacity="0.28" />
    <text x="546" y="154" font-size="18" fill="#171717" font-weight="750">可替换客户端</text>
  </g>
<g>
    <path d="M 937.1 234.5 L 1124.1 231.1 L 1141.1 248.3 L 1143.9 284.6 L 1124.0 301.0 L 936.1 304.1 L 920.1 285.7 L 919.4 249.6 Z" fill="#ecfdf3" stroke="#2f855a" stroke-width="2.4" />
    <path d="M 937.6 235.3 L 1124.9 233.6 L 1140.1 248.8 L 1138.0 283.3 L 1121.9 297.0 L 934.5 298.6 L 923.8 281.9 L 923.9 251.6 Z" fill="none" stroke="#2f855a" stroke-width="1.1" opacity="0.28" />
    <text x="935.7114317029973" y="264" font-size="18" fill="#171717" font-weight="750">稳定</text>
<text x="935.7114317029973" y="286.5" font-size="18" fill="#171717" font-weight="750">operation</text>
  </g>
<g>
    <path d="M 934.2 449.6 L 1125.0 450.9 L 1143.2 468.1 L 1141.5 505.7 L 1125.6 524.2 L 935.7 524.3 L 916.2 504.8 L 919.1 468.1 Z" fill="#fff1f2" stroke="#be4456" stroke-width="2.4" />
    <path d="M 935.0 454.2 L 1121.9 456.7 L 1136.3 470.3 L 1139.4 503.3 L 1123.9 518.8 L 939.0 517.3 L 919.3 502.4 L 919.7 472.8 Z" fill="none" stroke="#be4456" stroke-width="1.1" opacity="0.28" />
    <text x="935.7114317029973" y="483.99999999999994" font-size="18" fill="#171717" font-weight="750">运行时边界</text>
  </g>
<g>
    <path d="M 547.5 562.3 L 732.2 562.2 L 752.8 577.6 L 753.7 616.3 L 731.6 632.9 L 548.1 633.4 L 527.7 613.2 L 528.6 578.9 Z" fill="#f3e8ff" stroke="#8b5cf6" stroke-width="2.4" />
    <path d="M 548.2 564.5 L 732.4 566.9 L 746.6 578.8 L 745.9 611.4 L 731.4 629.0 L 546.8 630.4 L 532.5 613.8 L 530.7 580.9 Z" fill="none" stroke="#8b5cf6" stroke-width="1.1" opacity="0.28" />
    <text x="546" y="594" font-size="18" fill="#171717" font-weight="750">已接受事件</text>
  </g>
<g>
    <path d="M 155.4 451.3 L 345.3 449.6 L 362.5 470.1 L 361.9 506.0 L 342.8 523.9 L 156.7 522.9 L 136.7 504.0 L 139.7 467.6 Z" fill="#fef3c7" stroke="#b7791f" stroke-width="2.4" />
    <path d="M 157.7 455.0 L 341.2 453.6 L 356.5 472.9 L 360.1 501.0 L 341.8 520.1 L 157.8 519.5 L 141.4 501.0 L 140.0 470.7 Z" fill="none" stroke="#b7791f" stroke-width="1.1" opacity="0.28" />
    <text x="156.28856829700266" y="484.00000000000006" font-size="18" fill="#171717" font-weight="750">回放证据</text>
  </g>
<g>
    <path d="M 155.8 230.7 L 343.6 231.8 L 362.2 249.2 L 360.2 285.5 L 342.2 303.9 L 155.4 302.9 L 140.8 286.2 L 137.9 249.7 Z" fill="#eef2ff" stroke="#4f46e5" stroke-width="2.4" />
    <path d="M 157.0 235.2 L 343.6 234.6 L 355.9 251.5 L 359.4 282.1 L 341.6 299.1 L 159.7 298.3 L 141.4 285.1 L 140.1 253.2 Z" fill="none" stroke="#4f46e5" stroke-width="1.1" opacity="0.28" />
    <text x="156.28856829700266" y="264" font-size="18" fill="#171717" font-weight="750">权限留在内部</text>
  </g>
<g>
    <path d="M 510.4 323.9 L 771.5 319.7 L 790.4 339.5 L 790.9 413.5 L 772.9 429.7 L 509.7 428.8 L 489.1 412.2 L 491.7 341.0 Z" fill="#fff7d6" stroke="#d97757" stroke-width="2.4" stroke-dasharray="8 8" />
    <path d="M 509.2 323.6 L 772.8 325.0 L 785.6 341.3 L 785.5 408.7 L 772.4 424.9 L 506.8 423.7 L 493.8 412.1 L 493.4 343.5 Z" fill="none" stroke="#d97757" stroke-width="1.1" opacity="0.28" />
    <text x="508" y="354" font-size="18" fill="#171717" font-weight="750">先讲契约，再讲接入面</text>
  </g>
  </g>
</svg>
