<?xml version="1.0" encoding="UTF-8"?>
<svg xmlns="http://www.w3.org/2000/svg" width="1280" height="760" viewBox="0 0 1280 760" role="img" aria-labelledby="title-chapter-11-01-en desc-chapter-11-01-en">
  <title id="title-chapter-11-01-en">The Patch Lifecycle</title>
  <desc id="desc-chapter-11-01-en">Hand-drawn whiteboard figure for The Patch Lifecycle, showing the relationship between Freeform patch or shell-like invocation, Detect apply-patch intent, Parse patch hunks, Verify paths and current file content, Assess safety and permissions.</desc>
  <defs>
    <marker id="arrow" markerWidth="12" markerHeight="12" refX="10" refY="6" orient="auto" markerUnits="strokeWidth">
      <path d="M 1 1 L 11 6 L 1 11 z" fill="#d97757" />
    </marker>
    <filter id="paper-chapter-11-01-en" x="-5%" y="-5%" width="110%" height="110%">
      <feTurbulence type="fractalNoise" baseFrequency="0.85" numOctaves="2" stitchTiles="stitch" result="noise" />
      <feColorMatrix type="saturate" values="0" />
      <feComponentTransfer>
        <feFuncA type="table" tableValues="0 0.045" />
      </feComponentTransfer>
    </filter>
  </defs>
  <rect x="0" y="0" width="1280" height="760" rx="30" fill="#fffdf7" />
  <path d="M 50.3 19.6 L 1230.8 23.0 L 1258.5 50.3 L 1255.9 709.5 L 1228.3 736.0 L 50.9 739.1 L 21.3 712.1 L 22.8 52.0 Z" fill="none" stroke="#171717" stroke-width="2" opacity="0.18" />
  <rect x="0" y="0" width="1280" height="760" filter="url(#paper-chapter-11-01-en)" />
  <g font-family="Virgil, 'Comic Sans MS', 'Segoe Print', 'LXGW WenKai', 'Noto Sans CJK SC', cursive" letter-spacing="0">
    <text x="66" y="95" font-size="33" fill="#171717" font-weight="800">The Patch Lifecycle</text>
    <path d="M 64.0 166.0 C 476.5 162.1, 861.9 150.1, 1210.0 160.0" fill="none" stroke="#171717" stroke-width="2" opacity="0.22" />
    <path d="M 260.0 150.0 C 276.8 150.4, 257.5 682.1, 260.0 670.0" fill="none" stroke="#3b82f6" stroke-width="2" stroke-dasharray="10 12" opacity="0.25" />
    <path d="M 1020.0 150.0 C 1025.6 148.4, 1023.6 660.5, 1020.0 670.0" fill="none" stroke="#2f855a" stroke-width="2" stroke-dasharray="10 12" opacity="0.25" />
<path d="M 640.0 208.0 C 635.3 224.0, 652.8 207.9, 640.0 215.0" fill="none" stroke="#d97757" stroke-width="3" stroke-linecap="round" marker-end="url(#arrow)" opacity="0.72" />
<path d="M 640.0 263.0 C 636.5 263.1, 645.1 258.1, 640.0 270.0" fill="none" stroke="#d97757" stroke-width="3" stroke-linecap="round" marker-end="url(#arrow)" opacity="0.72" />
<path d="M 640.0 318.0 C 653.1 304.2, 648.3 316.4, 640.0 325.0" fill="none" stroke="#d97757" stroke-width="3" stroke-linecap="round" marker-end="url(#arrow)" opacity="0.72" />
<path d="M 640.0 373.0 C 625.6 383.1, 628.9 364.1, 640.0 380.0" fill="none" stroke="#d97757" stroke-width="3" stroke-linecap="round" marker-end="url(#arrow)" opacity="0.72" />
<path d="M 640.0 428.0 C 651.1 412.9, 650.2 430.2, 640.0 435.0" fill="none" stroke="#d97757" stroke-width="3" stroke-linecap="round" marker-end="url(#arrow)" opacity="0.72" />
<path d="M 640.0 483.0 C 624.1 482.7, 627.1 485.3, 640.0 490.0" fill="none" stroke="#d97757" stroke-width="3" stroke-linecap="round" marker-end="url(#arrow)" opacity="0.72" />
<path d="M 640.0 538.0 C 630.3 548.5, 644.9 553.3, 640.0 545.0" fill="none" stroke="#d97757" stroke-width="3" stroke-linecap="round" marker-end="url(#arrow)" opacity="0.72" />
<path d="M 640.0 593.0 C 642.8 594.1, 637.5 587.4, 640.0 600.0" fill="none" stroke="#d97757" stroke-width="3" stroke-linecap="round" marker-end="url(#arrow)" opacity="0.72" />
<path d="M 640.0 648.0 C 644.4 650.5, 656.6 644.1, 640.0 655.0" fill="none" stroke="#d97757" stroke-width="3" stroke-linecap="round" marker-end="url(#arrow)" opacity="0.72" />
<g>
    <path d="M 278.8 160.1 L 1001.0 158.5 L 1017.9 177.7 L 1021.0 191.4 L 1002.6 209.8 L 276.2 209.6 L 257.7 190.2 L 258.6 176.2 Z" fill="#fff7d6" stroke="#d97757" stroke-width="2.4" />
    <path d="M 280.1 165.8 L 1000.0 165.2 L 1014.6 178.9 L 1015.0 187.4 L 1003.4 205.2 L 277.1 205.9 L 266.1 186.9 L 264.5 177.0 Z" fill="none" stroke="#d97757" stroke-width="1.1" opacity="0.28" />
    <text x="278" y="192" font-size="17" fill="#171717" font-weight="750">Freeform patch or shell like invocation</text>
  </g>
<g>
    <path d="M 325.1 213.1 L 954.7 212.6 L 974.2 231.2 L 970.9 243.2 L 953.6 264.0 L 324.8 265.0 L 304.8 247.5 L 307.7 232.7 Z" fill="#e9f4ff" stroke="#3b82f6" stroke-width="2.4" />
    <path d="M 327.1 220.8 L 952.4 219.1 L 968.2 233.3 L 968.1 244.5 L 951.5 259.9 L 327.5 258.2 L 309.7 246.4 L 311.9 234.1 Z" fill="none" stroke="#3b82f6" stroke-width="1.1" opacity="0.28" />
    <text x="325" y="247" font-size="17" fill="#171717" font-weight="750">Detect apply patch intent</text>
  </g>
<g>
    <path d="M 336.0 272.2 L 942.9 270.0 L 961.0 289.2 L 960.3 301.1 L 944.0 316.1 L 338.7 316.1 L 319.6 298.2 L 317.4 290.4 Z" fill="#ecfdf3" stroke="#2f855a" stroke-width="2.4" />
    <path d="M 339.6 273.1 L 942.8 272.6 L 957.9 286.7 L 958.2 299.7 L 941.5 314.8 L 338.2 316.5 L 324.8 299.9 L 321.2 289.1 Z" fill="none" stroke="#2f855a" stroke-width="1.1" opacity="0.28" />
    <text x="337" y="302" font-size="18" fill="#171717" font-weight="750">Parse patch hunks</text>
  </g>
<g>
    <path d="M 347.4 326.5 L 931.6 323.6 L 947.3 341.0 L 948.0 352.7 L 931.3 374.2 L 346.6 370.9 L 331.8 354.3 L 330.4 344.8 Z" fill="#fff1f2" stroke="#be4456" stroke-width="2.4" />
    <path d="M 349.6 329.0 L 931.5 328.7 L 945.9 341.7 L 946.8 353.3 L 930.0 371.3 L 348.6 370.4 L 337.3 352.7 L 335.8 344.3 Z" fill="none" stroke="#be4456" stroke-width="1.1" opacity="0.28" />
    <text x="349" y="357" font-size="17" fill="#171717" font-weight="750">Verify paths and current file content</text>
  </g>
<g>
    <path d="M 363.0 380.6 L 918.1 382.1 L 937.1 396.1 L 938.6 409.0 L 919.6 429.8 L 360.3 428.3 L 342.1 409.6 L 341.8 399.0 Z" fill="#f3e8ff" stroke="#8b5cf6" stroke-width="2.4" />
    <path d="M 364.4 384.9 L 920.3 383.6 L 935.5 397.5 L 931.4 411.5 L 920.4 426.1 L 363.8 422.1 L 345.2 407.6 L 345.0 399.9 Z" fill="none" stroke="#8b5cf6" stroke-width="1.1" opacity="0.28" />
    <text x="361" y="412" font-size="17" fill="#171717" font-weight="750">Assess safety and permissions</text>
  </g>
<g>
    <path d="M 640.5 435.6 L 923.4 459.0 L 638.9 482.8 L 353.5 458.2 Z" fill="#fef3c7" stroke="#b7791f" stroke-width="2.4" />
    <path d="M 639.9 440.4 L 920.5 458.4 L 638.2 477.4 L 361.5 460.8 Z" fill="none" stroke="#b7791f" stroke-width="1.1" opacity="0.28" />
    <text x="383" y="455" font-size="18" fill="#171717" font-weight="750">Approval and hooks</text>
  </g>
<g>
    <path d="M 383.3 490.5 L 893.8 488.1 L 910.9 505.8 L 910.8 520.7 L 894.6 539.5 L 384.7 539.3 L 366.3 521.5 L 366.5 510.0 Z" fill="#eef2ff" stroke="#4f46e5" stroke-width="2.4" />
    <path d="M 384.6 494.4 L 895.7 496.0 L 908.1 510.8 L 908.9 517.1 L 892.3 532.8 L 387.6 535.4 L 369.7 517.7 L 370.0 509.9 Z" fill="none" stroke="#4f46e5" stroke-width="1.1" opacity="0.28" />
    <text x="385" y="522" font-size="17" fill="#171717" font-weight="750">Filesystem backed apply</text>
  </g>
<g>
    <path d="M 397.5 546.2 L 881.9 542.9 L 900.6 560.7 L 902.7 574.7 L 881.4 593.5 L 395.7 594.9 L 378.4 576.5 L 378.6 562.9 Z" fill="#f1f5f9" stroke="#475569" stroke-width="2.4" />
    <path d="M 398.0 547.6 L 884.1 548.3 L 895.0 566.1 L 895.3 572.7 L 881.8 587.4 L 397.0 587.2 L 380.8 573.6 L 381.4 564.3 Z" fill="none" stroke="#475569" stroke-width="1.1" opacity="0.28" />
    <text x="397" y="577" font-size="18" fill="#171717" font-weight="750">Committed delta</text>
  </g>
<g>
    <path d="M 411.4 602.0 L 871.9 600.2 L 888.8 618.7 L 890.6 630.2 L 871.3 649.2 L 407.0 645.9 L 389.5 628.2 L 390.6 619.3 Z" fill="#fff7d6" stroke="#d97757" stroke-width="2.4" />
    <path d="M 409.7 605.1 L 870.2 605.7 L 883.3 620.4 L 884.7 628.5 L 872.2 642.0 L 408.0 642.6 L 393.9 627.5 L 397.5 617.6 Z" fill="none" stroke="#d97757" stroke-width="1.1" opacity="0.28" />
    <text x="409" y="632" font-size="17" fill="#171717" font-weight="750">Patch events and turn diff</text>
  </g>
<g>
    <path d="M 279.3 652.9 L 1003.7 656.7 L 1022.3 675.0 L 1020.9 683.7 L 1004.5 700.9 L 278.0 704.4 L 262.2 685.6 L 258.7 673.8 Z" fill="#e9f4ff" stroke="#3b82f6" stroke-width="2.4" />
    <path d="M 277.7 661.1 L 1002.1 660.2 L 1017.6 672.1 L 1017.0 681.6 L 1001.2 697.1 L 278.8 697.3 L 264.8 686.2 L 264.9 675.3 Z" fill="none" stroke="#3b82f6" stroke-width="1.1" opacity="0.28" />
    <text x="278" y="687" font-size="18" fill="#171717" font-weight="750">Model visible result</text>
  </g>
  </g>
</svg>
