<?xml version="1.0" encoding="UTF-8"?>
<svg xmlns="http://www.w3.org/2000/svg" width="1280" height="700" viewBox="0 0 1280 700" role="img" aria-labelledby="title-chapter-19-01-zh desc-chapter-19-01-zh">
  <title id="title-chapter-19-01-zh">外部迁移与向后兼容</title>
  <desc id="desc-chapter-19-01-zh">外部迁移与向后兼容的手绘白板图，展示外部来源产物、检测与分类、验证支持子集、转换为 Codex 原生形状、保留已有目标之间的关系。</desc>
  <defs>
    <marker id="arrow" markerWidth="12" markerHeight="12" refX="10" refY="6" orient="auto" markerUnits="strokeWidth">
      <path d="M 1 1 L 11 6 L 1 11 z" fill="#d97757" />
    </marker>
    <filter id="paper-chapter-19-01-zh" x="-5%" y="-5%" width="110%" height="110%">
      <feTurbulence type="fractalNoise" baseFrequency="0.85" numOctaves="2" stitchTiles="stitch" result="noise" />
      <feColorMatrix type="saturate" values="0" />
      <feComponentTransfer>
        <feFuncA type="table" tableValues="0 0.045" />
      </feComponentTransfer>
    </filter>
  </defs>
  <rect x="0" y="0" width="1280" height="700" rx="30" fill="#fffdf7" />
  <path d="M 52.5 21.9 L 1230.9 22.8 L 1259.7 48.4 L 1256.6 651.7 L 1228.8 679.2 L 52.2 677.2 L 21.5 650.4 L 21.0 49.2 Z" fill="none" stroke="#171717" stroke-width="2" opacity="0.18" />
  <rect x="0" y="0" width="1280" height="700" filter="url(#paper-chapter-19-01-zh)" />
  <g font-family="Virgil, 'Comic Sans MS', 'Segoe Print', 'LXGW WenKai', 'Noto Sans CJK SC', cursive" letter-spacing="0">
    <text x="66" y="95" font-size="31" fill="#171717" font-weight="800">外部迁移与向后兼容</text>
    <path d="M 64.0 166.0 C 481.5 157.6, 850.5 150.6, 1210.0 160.0" fill="none" stroke="#171717" stroke-width="2" opacity="0.22" />
    <g>
      <path d="M 87.6 148.6 L 387.2 151.6 L 412.7 174.3 L 414.3 590.8 L 384.5 614.1 L 86.0 614.8 L 61.9 590.1 L 61.3 177.7 Z" fill="#fffdf7" stroke="#475569" stroke-width="2" opacity="0.65" />
      <text x="82" y="184" font-size="16" fill="#475569" font-weight="800">输入/来源</text>
    </g>
<g>
      <path d="M 471.9 148.8 L 767.0 151.7 L 795.3 177.1 L 796.8 589.6 L 767.9 615.0 L 469.9 613.3 L 444.8 591.3 L 446.5 177.2 Z" fill="#fff7d6" stroke="#d97757" stroke-width="2" opacity="0.65" />
      <text x="465" y="184" font-size="16" fill="#475569" font-weight="800">运行时边界</text>
    </g>
<g>
      <path d="M 854.4 149.9 L 1151.6 151.7 L 1177.4 176.2 L 1176.4 588.0 L 1152.6 617.4 L 853.6 613.6 L 825.9 590.2 L 826.1 176.2 Z" fill="#fffdf7" stroke="#475569" stroke-width="2" opacity="0.65" />
      <text x="848" y="184" font-size="16" fill="#475569" font-weight="800">输出/证据</text>
    </g>
<path d="M 384.0 253.0 C 420.9 268.5, 448.0 247.2, 473.0 253.0" fill="none" stroke="#d97757" stroke-width="3" stroke-linecap="round" marker-end="url(#arrow)" opacity="0.72" />
<path d="M 767.0 253.0 C 803.1 243.1, 835.6 240.6, 856.0 253.0" fill="none" stroke="#2f855a" stroke-width="3" stroke-linecap="round" marker-end="url(#arrow)" opacity="0.72" />
<path d="M 1150.0 253.0 C 767.6 243.1, 400.0 347.5, 90.0 351.0" fill="none" stroke="#d97757" stroke-width="3" stroke-linecap="round" marker-end="url(#arrow)" opacity="0.72" />
<path d="M 384.0 351.0 C 401.7 338.2, 432.0 364.9, 473.0 351.0" fill="none" stroke="#d97757" stroke-width="3" stroke-linecap="round" marker-end="url(#arrow)" opacity="0.72" />
<path d="M 767.0 351.0 C 784.1 365.4, 843.0 361.3, 856.0 351.0" fill="none" stroke="#2f855a" stroke-width="3" stroke-linecap="round" marker-end="url(#arrow)" opacity="0.72" />
<path d="M 1150.0 351.0 C 788.6 339.9, 415.2 442.6, 90.0 449.0" fill="none" stroke="#d97757" stroke-width="3" stroke-linecap="round" marker-end="url(#arrow)" opacity="0.72" />
<g>
    <path d="M 107.7 218.3 L 365.1 221.4 L 383.8 237.3 L 385.5 267.9 L 363.8 284.2 L 109.2 284.7 L 89.4 265.6 L 92.0 238.0 Z" fill="#fff7d6" stroke="#d97757" stroke-width="2.4" />
    <path d="M 110.6 223.0 L 363.0 221.9 L 378.9 240.2 L 381.4 268.3 L 364.3 282.1 L 108.0 282.5 L 93.9 266.8 L 95.7 237.5 Z" fill="none" stroke="#d97757" stroke-width="1.1" opacity="0.28" />
    <text x="108" y="252" font-size="18" fill="#171717" font-weight="750">外部来源产物</text>
  </g>
<g>
    <path d="M 492.1 219.3 L 748.8 222.3 L 768.4 239.6 L 768.3 268.7 L 750.9 288.0 L 492.0 286.2 L 473.0 270.2 L 470.5 239.9 Z" fill="#e9f4ff" stroke="#3b82f6" stroke-width="2.4" />
    <path d="M 491.1 223.6 L 749.8 224.8 L 761.1 239.8 L 760.6 267.1 L 749.6 280.1 L 493.2 280.6 L 476.6 266.9 L 476.1 238.2 Z" fill="none" stroke="#3b82f6" stroke-width="1.1" opacity="0.28" />
    <text x="491" y="252" font-size="18" fill="#171717" font-weight="750">检测与分类</text>
  </g>
<g>
    <path d="M 876.0 220.2 L 1131.4 218.4 L 1150.7 239.1 L 1150.5 268.8 L 1130.3 286.2 L 874.2 284.6 L 854.3 267.8 L 857.1 239.9 Z" fill="#ecfdf3" stroke="#2f855a" stroke-width="2.4" stroke-dasharray="8 8" />
    <path d="M 872.9 225.8 L 1130.9 224.0 L 1145.1 240.1 L 1144.0 266.0 L 1129.8 284.5 L 876.2 281.9 L 861.6 269.0 L 861.8 238.3 Z" fill="none" stroke="#2f855a" stroke-width="1.1" opacity="0.28" />
    <text x="874" y="252" font-size="18" fill="#171717" font-weight="750">验证支持子集</text>
  </g>
<g>
    <path d="M 108.6 319.7 L 364.5 318.5 L 385.7 335.1 L 386.3 364.9 L 363.8 382.4 L 107.1 385.5 L 87.6 368.0 L 89.9 335.0 Z" fill="#fff1f2" stroke="#be4456" stroke-width="2.4" />
    <path d="M 106.6 321.5 L 362.7 323.5 L 377.8 338.3 L 379.2 362.8 L 367.2 381.6 L 111.3 377.8 L 93.8 367.1 L 93.5 335.9 Z" fill="none" stroke="#be4456" stroke-width="1.1" opacity="0.28" />
    <text x="108" y="350" font-size="18" fill="#171717" font-weight="750">转换为 Codex</text>
<text x="108" y="372.5" font-size="18" fill="#171717" font-weight="750">原生形状</text>
  </g>
<g>
    <path d="M 489.7 318.7 L 747.9 315.5 L 767.0 337.5 L 766.2 365.5 L 748.8 383.9 L 489.4 385.7 L 473.8 366.4 L 470.5 335.3 Z" fill="#f3e8ff" stroke="#8b5cf6" stroke-width="2.4" />
    <path d="M 491.1 321.4 L 747.6 324.4 L 761.2 338.3 L 763.1 364.7 L 749.8 378.0 L 493.0 379.6 L 477.7 366.4 L 477.3 338.9 Z" fill="none" stroke="#8b5cf6" stroke-width="1.1" opacity="0.28" />
    <text x="491" y="350" font-size="18" fill="#171717" font-weight="750">保留已有目标</text>
  </g>
<g>
    <path d="M 876.4 317.1 L 1133.7 317.2 L 1150.2 338.2 L 1148.0 367.9 L 1130.6 386.2 L 872.3 385.7 L 853.9 365.7 L 857.4 335.9 Z" fill="#fef3c7" stroke="#b7791f" stroke-width="2.4" stroke-dasharray="8 8" />
    <path d="M 877.0 321.7 L 1130.7 324.5 L 1147.1 338.9 L 1148.1 363.0 L 1128.5 382.0 L 873.8 379.4 L 861.7 364.4 L 862.5 338.0 Z" fill="none" stroke="#b7791f" stroke-width="1.1" opacity="0.28" />
    <text x="874" y="350" font-size="18" fill="#171717" font-weight="750">记录导入元数据</text>
  </g>
<g>
    <path d="M 106.8 418.0 L 367.5 415.3 L 382.1 435.0 L 386.4 463.7 L 364.2 480.9 L 106.0 482.2 L 89.0 462.8 L 91.8 435.4 Z" fill="#eef2ff" stroke="#4f46e5" stroke-width="2.4" />
    <path d="M 110.5 418.8 L 364.1 420.7 L 380.7 434.9 L 382.4 464.0 L 366.7 478.4 L 108.6 477.7 L 96.1 463.8 L 93.9 433.1 Z" fill="none" stroke="#4f46e5" stroke-width="1.1" opacity="0.28" />
    <text x="108" y="448" font-size="18" fill="#171717" font-weight="750">使用原生运行时路径</text>
  </g>
  </g>
</svg>
