<?xml version="1.0" encoding="UTF-8"?>
<svg xmlns="http://www.w3.org/2000/svg" width="1280" height="700" viewBox="0 0 1280 700" role="img" aria-labelledby="title-chapter-01-concept-3-zh desc-chapter-01-concept-3-zh">
  <title id="title-chapter-01-concept-3-zh">Turn 像系统调用</title>
  <desc id="desc-chapter-01-concept-3-zh">Turn 像系统调用的手绘白板图，展示用户意图操作、运行时受理、副作用门、工具副作用请求、已接受事件之间的关系。</desc>
  <defs>
    <marker id="arrow" markerWidth="12" markerHeight="12" refX="10" refY="6" orient="auto" markerUnits="strokeWidth">
      <path d="M 1 1 L 11 6 L 1 11 z" fill="#d97757" />
    </marker>
    <filter id="paper-chapter-01-concept-3-zh" x="-5%" y="-5%" width="110%" height="110%">
      <feTurbulence type="fractalNoise" baseFrequency="0.85" numOctaves="2" stitchTiles="stitch" result="noise" />
      <feColorMatrix type="saturate" values="0" />
      <feComponentTransfer>
        <feFuncA type="table" tableValues="0 0.045" />
      </feComponentTransfer>
    </filter>
  </defs>
  <rect x="0" y="0" width="1280" height="700" rx="30" fill="#fffdf7" />
  <path d="M 49.7 19.8 L 1228.3 23.9 L 1257.0 51.8 L 1259.0 649.8 L 1229.6 675.7 L 50.5 675.8 L 23.9 650.6 L 21.4 47.9 Z" fill="none" stroke="#171717" stroke-width="2" opacity="0.18" />
  <rect x="0" y="0" width="1280" height="700" filter="url(#paper-chapter-01-concept-3-zh)" />
  <g font-family="Virgil, 'Comic Sans MS', 'Segoe Print', 'LXGW WenKai', 'Noto Sans CJK SC', cursive" letter-spacing="0">
    <text x="66" y="95" font-size="31" fill="#171717" font-weight="800">Turn 像系统调用</text>
    <path d="M 64.0 166.0 C 452.4 181.3, 856.9 149.4, 1210.0 160.0" fill="none" stroke="#171717" stroke-width="2" opacity="0.22" />
    <path d="M 640.0 380.0 C 656.7 387.4, 636.9 155.0, 640.0 157.0" fill="none" stroke="#d97757" stroke-width="3" stroke-linecap="round" stroke-dasharray="8 9" marker-end="url(#arrow)" opacity="0.72" />
<path d="M 640.0 380.0 C 778.9 384.9, 922.6 279.6, 1029.7 267.0" fill="none" stroke="#3b82f6" stroke-width="3" stroke-linecap="round" stroke-dasharray="8 9" marker-end="url(#arrow)" opacity="0.72" />
<path d="M 640.0 380.0 C 780.9 377.3, 919.9 502.9, 1029.7 487.0" fill="none" stroke="#2f855a" stroke-width="3" stroke-linecap="round" stroke-dasharray="8 9" marker-end="url(#arrow)" opacity="0.72" />
<path d="M 640.0 380.0 C 647.8 389.5, 650.0 584.9, 640.0 597.0" fill="none" stroke="#be4456" stroke-width="3" stroke-linecap="round" stroke-dasharray="8 9" marker-end="url(#arrow)" opacity="0.72" />
<path d="M 640.0 380.0 C 491.8 386.3, 381.2 480.6, 250.3 487.0" fill="none" stroke="#8b5cf6" stroke-width="3" stroke-linecap="round" stroke-dasharray="8 9" marker-end="url(#arrow)" opacity="0.72" />
<path d="M 640.0 380.0 C 517.6 390.0, 355.4 282.3, 250.3 267.0" fill="none" stroke="#b7791f" stroke-width="3" stroke-linecap="round" stroke-dasharray="8 9" marker-end="url(#arrow)" opacity="0.72" />
<g>
    <path d="M 544.4 123.5 L 735.0 123.6 L 751.7 140.3 L 751.0 176.4 L 733.3 192.7 L 544.2 192.6 L 527.0 172.5 L 529.0 138.1 Z" fill="#e9f4ff" stroke="#3b82f6" stroke-width="2.4" />
    <path d="M 546.7 126.1 L 733.8 126.5 L 747.3 141.9 L 746.7 171.9 L 731.4 187.9 L 547.7 189.3 L 533.4 174.8 L 531.7 143.2 Z" fill="none" stroke="#3b82f6" stroke-width="1.1" opacity="0.28" />
    <text x="546" y="154" font-size="18" fill="#171717" font-weight="750">用户意图操作</text>
  </g>
<g>
    <path d="M 938.2 233.7 L 1124.1 230.6 L 1142.8 251.1 L 1142.3 284.6 L 1121.8 301.7 L 934.3 299.7 L 920.1 283.6 L 920.1 251.6 Z" fill="#ecfdf3" stroke="#2f855a" stroke-width="2.4" />
    <path d="M 936.9 236.4 L 1124.5 236.5 L 1137.8 252.6 L 1138.0 282.7 L 1120.9 299.3 L 935.4 295.7 L 920.7 281.7 L 923.0 250.1 Z" fill="none" stroke="#2f855a" stroke-width="1.1" opacity="0.28" />
    <text x="935.7114317029973" y="264" font-size="18" fill="#171717" font-weight="750">运行时受理</text>
  </g>
<g>
    <path d="M 937.5 453.6 L 1124.3 451.5 L 1141.5 468.1 L 1144.0 503.3 L 1121.6 520.8 L 933.3 523.1 L 916.9 503.1 L 920.1 470.6 Z" fill="#fff1f2" stroke="#be4456" stroke-width="2.4" />
    <path d="M 937.1 454.5 L 1122.4 457.8 L 1138.1 469.0 L 1139.4 502.6 L 1120.3 517.7 L 937.1 516.6 L 921.4 503.6 L 920.7 469.9 Z" fill="none" stroke="#be4456" stroke-width="1.1" opacity="0.28" />
    <text x="935.7114317029973" y="483.99999999999994" font-size="18" fill="#171717" font-weight="750">副作用门</text>
  </g>
<g>
    <path d="M 543.9 562.0 L 734.6 559.5 L 752.0 579.5 L 751.6 615.3 L 732.7 632.6 L 544.6 631.5 L 530.0 612.5 L 526.2 580.5 Z" fill="#f3e8ff" stroke="#8b5cf6" stroke-width="2.4" />
    <path d="M 545.2 563.9 L 731.6 566.0 L 745.9 578.9 L 750.4 611.4 L 730.9 629.1 L 549.3 625.8 L 529.9 613.5 L 532.0 579.4 Z" fill="none" stroke="#8b5cf6" stroke-width="1.1" opacity="0.28" />
    <text x="546" y="594" font-size="18" fill="#171717" font-weight="750">工具副作用请求</text>
  </g>
<g>
    <path d="M 158.4 454.3 L 342.3 453.9 L 362.0 471.4 L 364.6 505.5 L 342.7 519.5 L 158.6 520.1 L 139.4 502.0 L 139.1 467.8 Z" fill="#fef3c7" stroke="#b7791f" stroke-width="2.4" />
    <path d="M 158.2 454.3 L 341.6 455.4 L 356.8 468.9 L 358.5 503.4 L 345.5 518.3 L 156.4 518.0 L 144.0 500.7 L 141.0 471.6 Z" fill="none" stroke="#b7791f" stroke-width="1.1" opacity="0.28" />
    <text x="156.28856829700266" y="484.00000000000006" font-size="18" fill="#171717" font-weight="750">已接受事件</text>
  </g>
<g>
    <path d="M 155.0 234.4 L 346.3 231.8 L 362.6 251.1 L 361.8 284.9 L 345.1 304.5 L 154.8 300.1 L 140.5 284.7 L 137.2 251.6 Z" fill="#eef2ff" stroke="#4f46e5" stroke-width="2.4" />
    <path d="M 157.6 233.7 L 342.2 237.5 L 360.3 249.9 L 360.4 283.8 L 344.1 296.3 L 155.0 299.5 L 141.4 283.6 L 144.2 249.2 Z" fill="none" stroke="#4f46e5" stroke-width="1.1" opacity="0.28" />
    <text x="156.28856829700266" y="264" font-size="18" fill="#171717" font-weight="750">回放证据</text>
  </g>
<g>
    <path d="M 506.9 319.8 L 769.7 319.9 L 790.3 340.5 L 791.2 413.0 L 774.0 431.7 L 505.7 430.9 L 487.7 413.2 L 488.8 338.1 Z" fill="#fff7d6" stroke="#d97757" stroke-width="2.4" stroke-dasharray="8 8" />
    <path d="M 508.7 325.6 L 770.4 326.3 L 786.4 338.9 L 785.3 412.8 L 769.7 426.7 L 511.1 426.9 L 493.2 413.2 L 492.6 339.0 Z" fill="none" stroke="#d97757" stroke-width="1.1" opacity="0.28" />
    <text x="508" y="354" font-size="18" fill="#171717" font-weight="750">Turn 像系统调用</text>
  </g>
  </g>
</svg>
