<?xml version="1.0" encoding="UTF-8"?>
<svg xmlns="http://www.w3.org/2000/svg" width="1280" height="740" viewBox="0 0 1280 740" role="img" aria-labelledby="title-chapter-22-02-zh desc-chapter-22-02-zh">
  <title id="title-chapter-22-02-zh">引用把记忆连回证据</title>
  <desc id="desc-chapter-22-02-zh">引用把记忆连回证据的手绘白板图，展示记忆摘要或文件摘录、引用块、引用解析器、rollout 与线程 ids、使用计量之间的关系。</desc>
  <defs>
    <marker id="arrow" markerWidth="12" markerHeight="12" refX="10" refY="6" orient="auto" markerUnits="strokeWidth">
      <path d="M 1 1 L 11 6 L 1 11 z" fill="#d97757" />
    </marker>
    <filter id="paper-chapter-22-02-zh" x="-5%" y="-5%" width="110%" height="110%">
      <feTurbulence type="fractalNoise" baseFrequency="0.85" numOctaves="2" stitchTiles="stitch" result="noise" />
      <feColorMatrix type="saturate" values="0" />
      <feComponentTransfer>
        <feFuncA type="table" tableValues="0 0.045" />
      </feComponentTransfer>
    </filter>
  </defs>
  <rect x="0" y="0" width="1280" height="740" rx="30" fill="#fffdf7" />
  <path d="M 48.2 19.9 L 1232.0 22.7 L 1257.9 47.7 L 1255.8 689.3 L 1232.0 715.6 L 49.2 718.5 L 21.4 689.4 L 24.5 51.3 Z" fill="none" stroke="#171717" stroke-width="2" opacity="0.18" />
  <rect x="0" y="0" width="1280" height="740" filter="url(#paper-chapter-22-02-zh)" />
  <g font-family="Virgil, 'Comic Sans MS', 'Segoe Print', 'LXGW WenKai', 'Noto Sans CJK SC', cursive" letter-spacing="0">
    <text x="66" y="95" font-size="31" fill="#171717" font-weight="800">引用把记忆连回证据</text>
    <path d="M 64.0 166.0 C 467.1 151.4, 866.5 152.0, 1210.0 160.0" fill="none" stroke="#171717" stroke-width="2" opacity="0.22" />
    <g>
    <path d="M 102.1 212.3 L 353.5 212.4 L 379.5 245.0 L 381.4 542.8 L 352.3 576.5 L 103.1 572.3 L 70.2 541.8 L 72.0 242.2 Z" fill="#f8fafc" stroke="#475569" stroke-width="2.2" opacity="0.66" />
    <text x="96" y="252" font-size="17" fill="#475569" font-weight="800">活动 turn</text>
  </g>
<g>
    <path d="M 516.6 179.1 L 765.9 180.9 L 794.0 208.2 L 794.0 577.9 L 766.0 611.3 L 517.2 608.2 L 485.3 580.3 L 484.2 209.9 Z" fill="#fff7d6" stroke="#d97757" stroke-width="2.2" opacity="0.66" />
    <text x="510" y="218" font-size="17" fill="#475569" font-weight="800">证据与引用</text>
  </g>
<g>
    <path d="M 928.6 215.0 L 1179.4 215.8 L 1210.6 243.0 L 1212.2 545.9 L 1177.8 572.9 L 928.5 574.5 L 899.0 542.3 L 898.5 246.1 Z" fill="#f8fafc" stroke="#475569" stroke-width="2.2" opacity="0.66" />
    <text x="924" y="252" font-size="17" fill="#475569" font-weight="800">后台写路径</text>
  </g>
<path d="M 227.0 339.0 C 386.8 332.5, 524.0 306.5, 642.0 314.0" fill="none" stroke="#3b82f6" stroke-width="3" stroke-linecap="round" marker-end="url(#arrow)" opacity="0.72" />
<path d="M 642.0 314.0 C 498.8 327.1, 351.6 464.4, 227.0 469.0" fill="none" stroke="#3b82f6" stroke-width="3" stroke-linecap="round" marker-end="url(#arrow)" opacity="0.72" />
<path d="M 1057.0 339.0 C 906.4 339.5, 754.9 469.7, 642.0 469.0" fill="none" stroke="#2f855a" stroke-width="3" stroke-linecap="round" marker-end="url(#arrow)" opacity="0.72" />
<path d="M 642.0 469.0 C 770.5 455.1, 923.7 475.1, 1057.0 469.0" fill="none" stroke="#2f855a" stroke-width="3" stroke-linecap="round" marker-end="url(#arrow)" opacity="0.72" />
<path d="M 1057.0 469.0 C 766.3 475.3, 489.1 347.6, 227.0 339.0" fill="none" stroke="#d97757" stroke-width="3" stroke-linecap="round" stroke-dasharray="8 9" marker-end="url(#arrow)" opacity="0.72" />
<g>
    <path d="M 124.6 300.1 L 332.1 301.8 L 351.3 317.9 L 346.7 357.7 L 331.7 377.1 L 121.9 377.8 L 105.0 358.2 L 107.3 318.2 Z" fill="#fff7d6" stroke="#d97757" stroke-width="2.4" />
    <path d="M 123.5 301.8 L 328.0 303.7 L 343.9 319.4 L 344.0 358.9 L 330.8 375.6 L 122.6 375.9 L 109.7 360.4 L 106.9 318.8 Z" fill="none" stroke="#d97757" stroke-width="1.1" opacity="0.28" />
    <text x="123" y="332" font-size="18" fill="#171717" font-weight="750">记忆摘要或文件摘录</text>
  </g>
<g>
    <path d="M 121.8 428.3 L 333.1 430.1 L 347.4 445.6 L 349.7 488.1 L 333.2 508.1 L 123.0 507.8 L 103.8 491.8 L 106.1 445.5 Z" fill="#e9f4ff" stroke="#3b82f6" stroke-width="2.4" />
    <path d="M 125.0 434.5 L 331.9 435.1 L 344.0 447.2 L 343.3 488.8 L 331.7 502.2 L 125.0 502.7 L 110.7 489.2 L 110.3 446.9 Z" fill="none" stroke="#3b82f6" stroke-width="1.1" opacity="0.28" />
    <text x="123" y="462" font-size="18" fill="#171717" font-weight="750">引用块</text>
  </g>
<g>
    <path d="M 536.5 276.2 L 747.6 275.1 L 763.2 295.0 L 766.3 336.4 L 747.7 350.5 L 536.3 354.2 L 520.0 333.9 L 521.0 295.3 Z" fill="#ecfdf3" stroke="#2f855a" stroke-width="2.4" />
    <path d="M 537.6 279.7 L 745.9 278.9 L 762.3 293.0 L 761.1 331.7 L 745.7 349.4 L 537.9 351.4 L 521.5 334.5 L 523.6 291.9 Z" fill="none" stroke="#2f855a" stroke-width="1.1" opacity="0.28" />
    <text x="538" y="307" font-size="18" fill="#171717" font-weight="750">引用解析器</text>
  </g>
<g>
    <path d="M 536.6 428.5 L 746.3 430.1 L 763.4 445.8 L 764.5 489.3 L 746.9 506.8 L 535.6 509.6 L 522.0 491.2 L 520.6 446.2 Z" fill="#fff1f2" stroke="#be4456" stroke-width="2.4" />
    <path d="M 540.1 435.1 L 746.5 434.8 L 762.5 448.8 L 757.6 491.0 L 747.4 505.2 L 536.7 501.8 L 522.3 486.8 L 525.9 446.9 Z" fill="none" stroke="#be4456" stroke-width="1.1" opacity="0.28" />
    <text x="538" y="462" font-size="18" fill="#171717" font-weight="750">rollout 与线程</text>
<text x="538" y="484.5" font-size="18" fill="#171717" font-weight="750">ids</text>
  </g>
<g>
    <path d="M 954.4 301.4 L 1163.3 298.4 L 1177.0 319.1 L 1177.0 360.3 L 1158.7 378.4 L 953.6 378.6 L 933.9 361.4 L 933.4 316.3 Z" fill="#f3e8ff" stroke="#8b5cf6" stroke-width="2.4" />
    <path d="M 955.8 304.9 L 1158.8 306.0 L 1177.5 321.1 L 1176.9 361.0 L 1162.1 374.8 L 955.1 372.8 L 939.8 356.8 L 939.0 319.8 Z" fill="none" stroke="#8b5cf6" stroke-width="1.1" opacity="0.28" />
    <text x="953" y="332" font-size="18" fill="#171717" font-weight="750">使用计量</text>
  </g>
<g>
    <path d="M 952.0 428.6 L 1162.1 431.8 L 1176.9 447.3 L 1177.0 488.0 L 1162.1 510.1 L 955.1 510.0 L 935.3 487.7 L 932.6 447.2 Z" fill="#fef3c7" stroke="#b7791f" stroke-width="2.4" />
    <path d="M 954.7 436.0 L 1158.4 432.3 L 1175.6 450.9 L 1173.2 491.0 L 1157.9 506.1 L 952.6 504.2 L 938.9 489.9 L 941.3 451.0 Z" fill="none" stroke="#b7791f" stroke-width="1.1" opacity="0.28" />
    <text x="953" y="462" font-size="18" fill="#171717" font-weight="750">未来 Stage 2</text>
<text x="953" y="484.5" font-size="18" fill="#171717" font-weight="750">选择</text>
  </g>
  </g>
</svg>
