<?xml version="1.0" encoding="UTF-8"?>
<svg xmlns="http://www.w3.org/2000/svg" width="1280" height="740" viewBox="0 0 1280 740" role="img" aria-labelledby="title-chapter-25-03-en desc-chapter-25-03-en">
  <title id="title-chapter-25-03-en">Generated Drift State Machine</title>
  <desc id="desc-chapter-25-03-en">Hand-drawn whiteboard figure for Generated Drift State Machine, showing the relationship between Source changed, Generator run, Drift detected, CI blocked, Reviewable diff.</desc>
  <defs>
    <marker id="arrow" markerWidth="12" markerHeight="12" refX="10" refY="6" orient="auto" markerUnits="strokeWidth">
      <path d="M 1 1 L 11 6 L 1 11 z" fill="#d97757" />
    </marker>
    <filter id="paper-chapter-25-03-en" x="-5%" y="-5%" width="110%" height="110%">
      <feTurbulence type="fractalNoise" baseFrequency="0.85" numOctaves="2" stitchTiles="stitch" result="noise" />
      <feColorMatrix type="saturate" values="0" />
      <feComponentTransfer>
        <feFuncA type="table" tableValues="0 0.045" />
      </feComponentTransfer>
    </filter>
  </defs>
  <rect x="0" y="0" width="1280" height="740" rx="30" fill="#fffdf7" />
  <path d="M 51.9 23.8 L 1229.1 23.3 L 1257.4 51.5 L 1258.9 687.9 L 1228.1 718.1 L 48.3 718.2 L 23.2 692.1 L 20.9 51.0 Z" fill="none" stroke="#171717" stroke-width="2" opacity="0.18" />
  <rect x="0" y="0" width="1280" height="740" filter="url(#paper-chapter-25-03-en)" />
  <g font-family="Virgil, 'Comic Sans MS', 'Segoe Print', 'LXGW WenKai', 'Noto Sans CJK SC', cursive" letter-spacing="0">
    <text x="66" y="95" font-size="33" fill="#171717" font-weight="800">Generated Drift State Machine</text>
    <path d="M 64.0 166.0 C 455.9 163.7, 866.3 173.9, 1210.0 160.0" fill="none" stroke="#171717" stroke-width="2" opacity="0.22" />
    <g>
      <path d="M 104.4 167.0 L 1174.1 167.0 L 1197.8 191.8 L 1196.3 256.0 L 1174.8 277.7 L 107.7 281.0 L 83.7 258.4 L 83.9 194.0 Z" fill="#fff7d6" stroke="#d97757" stroke-width="2" opacity="0.58" />
      <text x="110" y="212" font-size="19" fill="#171717" font-weight="800">Policy</text>
    </g>
<g>
      <path d="M 104.7 297.4 L 1174.6 297.5 L 1196.2 318.1 L 1198.5 384.7 L 1176.1 406.2 L 107.0 407.9 L 79.9 382.5 L 83.3 317.9 Z" fill="#e9f4ff" stroke="#3b82f6" stroke-width="2" opacity="0.58" />
      <text x="110" y="340" font-size="19" fill="#171717" font-weight="800">Verification</text>
    </g>
<g>
      <path d="M 104.0 423.8 L 1176.0 422.3 L 1197.5 447.6 L 1195.6 510.5 L 1175.8 535.6 L 104.5 535.2 L 84.0 511.4 L 80.2 447.2 Z" fill="#ecfdf3" stroke="#2f855a" stroke-width="2" opacity="0.58" />
      <text x="110" y="468" font-size="19" fill="#171717" font-weight="800">Release</text>
    </g>
<g>
      <path d="M 104.9 550.3 L 1172.4 552.4 L 1197.8 573.8 L 1196.6 641.1 L 1173.2 665.1 L 104.7 661.6 L 80.1 642.4 L 81.9 575.3 Z" fill="#fff1f2" stroke="#be4456" stroke-width="2" opacity="0.58" />
      <text x="110" y="596" font-size="19" fill="#171717" font-weight="800">Rollback</text>
    </g>
<path d="M 480.0 224.0 C 402.3 231.3, 302.1 342.8, 250.0 352.0" fill="none" stroke="#d97757" stroke-width="3" stroke-linecap="round" marker-end="url(#arrow)" opacity="0.72" />
<path d="M 480.0 352.0 C 409.4 336.1, 303.1 488.9, 250.0 480.0" fill="none" stroke="#3b82f6" stroke-width="3" stroke-linecap="round" marker-end="url(#arrow)" opacity="0.72" />
<path d="M 480.0 480.0 C 388.2 474.3, 314.7 601.4, 250.0 608.0" fill="none" stroke="#2f855a" stroke-width="3" stroke-linecap="round" marker-end="url(#arrow)" opacity="0.72" />
<path d="M 480.0 608.0 C 506.8 607.6, 531.9 222.4, 550.0 224.0" fill="none" stroke="#be4456" stroke-width="3" stroke-linecap="round" stroke-dasharray="8 9" marker-end="url(#arrow)" opacity="0.72" />
<path d="M 780.0 224.0 C 713.4 219.1, 632.0 357.8, 550.0 352.0" fill="none" stroke="#8b5cf6" stroke-width="3" stroke-linecap="round" marker-end="url(#arrow)" opacity="0.72" />
<path d="M 780.0 352.0 C 683.1 356.7, 608.9 466.2, 550.0 480.0" fill="none" stroke="#b7791f" stroke-width="3" stroke-linecap="round" marker-end="url(#arrow)" opacity="0.72" />
<g>
    <path d="M 268.9 189.4 L 463.3 189.8 L 482.2 205.2 L 482.4 242.5 L 463.5 261.8 L 270.2 260.9 L 251.9 239.9 L 252.2 206.3 Z" fill="#fff7d6" stroke="#d97757" stroke-width="2.4" />
    <path d="M 271.1 191.3 L 463.1 190.2 L 477.9 208.6 L 475.6 239.7 L 459.8 258.0 L 268.9 257.1 L 251.8 238.5 L 256.2 207.8 Z" fill="none" stroke="#d97757" stroke-width="1.1" opacity="0.28" />
    <text x="268" y="220" font-size="18" fill="#171717" font-weight="750">Source changed</text>
  </g>
<g>
    <path d="M 269.2 315.6 L 461.1 317.0 L 478.4 336.3 L 479.3 371.7 L 462.7 390.3 L 269.0 386.6 L 247.8 370.1 L 249.3 333.4 Z" fill="#e9f4ff" stroke="#3b82f6" stroke-width="2.4" />
    <path d="M 267.1 318.0 L 459.7 318.8 L 475.6 336.3 L 473.8 366.8 L 463.4 382.6 L 271.0 384.9 L 251.9 370.1 L 252.4 335.3 Z" fill="none" stroke="#3b82f6" stroke-width="1.1" opacity="0.28" />
    <text x="268" y="348" font-size="18" fill="#171717" font-weight="750">Generator run</text>
  </g>
<g>
    <path d="M 269.4 441.8 L 463.2 443.7 L 481.6 461.8 L 478.5 500.3 L 460.4 518.2 L 267.2 515.2 L 251.1 496.4 L 249.6 460.0 Z" fill="#ecfdf3" stroke="#2f855a" stroke-width="2.4" />
    <path d="M 268.6 448.9 L 459.8 449.4 L 477.1 461.4 L 476.6 497.5 L 460.5 512.7 L 269.8 512.6 L 252.4 495.5 L 255.7 462.9 Z" fill="none" stroke="#2f855a" stroke-width="1.1" opacity="0.28" />
    <text x="268" y="476" font-size="18" fill="#171717" font-weight="750">Drift detected</text>
  </g>
<g>
    <path d="M 265.5 574.1 L 464.1 572.1 L 478.1 592.1 L 479.2 625.7 L 461.8 642.1 L 267.4 645.3 L 248.4 626.2 L 250.1 592.0 Z" fill="#fff1f2" stroke="#be4456" stroke-width="2.4" />
    <path d="M 269.7 577.3 L 461.3 577.9 L 474.3 590.8 L 475.6 625.3 L 463.1 642.4 L 268.1 640.6 L 253.3 625.5 L 254.6 592.7 Z" fill="none" stroke="#be4456" stroke-width="1.1" opacity="0.28" />
    <text x="268" y="604" font-size="18" fill="#171717" font-weight="750">CI blocked</text>
  </g>
<g>
    <path d="M 569.9 185.6 L 763.8 187.1 L 781.1 208.4 L 779.1 241.1 L 763.3 261.5 L 566.9 258.9 L 549.3 240.6 L 550.8 203.6 Z" fill="#f3e8ff" stroke="#8b5cf6" stroke-width="2.4" />
    <path d="M 569.3 189.6 L 759.8 193.5 L 778.3 209.0 L 774.6 242.7 L 762.0 253.9 L 569.6 258.1 L 554.4 240.4 L 553.9 209.1 Z" fill="none" stroke="#8b5cf6" stroke-width="1.1" opacity="0.28" />
    <text x="568" y="220" font-size="18" fill="#171717" font-weight="750">Reviewable diff</text>
  </g>
<g>
    <path d="M 569.7 316.0 L 763.3 317.3 L 781.6 335.2 L 782.3 370.3 L 762.8 390.4 L 567.7 386.8 L 549.6 371.9 L 551.7 332.8 Z" fill="#fef3c7" stroke="#b7791f" stroke-width="2.4" />
    <path d="M 568.1 321.7 L 761.4 320.8 L 775.1 333.9 L 777.5 369.3 L 760.3 382.0 L 568.7 384.0 L 555.3 371.0 L 552.3 334.1 Z" fill="none" stroke="#b7791f" stroke-width="1.1" opacity="0.28" />
    <text x="568" y="348" font-size="18" fill="#171717" font-weight="750">Accepted</text>
  </g>
<g>
    <path d="M 566.4 445.7 L 762.0 443.0 L 780.6 463.8 L 779.5 499.5 L 762.1 514.9 L 570.1 515.1 L 552.4 500.0 L 552.3 459.6 Z" fill="#eef2ff" stroke="#4f46e5" stroke-width="2.4" />
    <path d="M 569.7 447.1 L 762.5 449.7 L 774.8 465.1 L 776.8 495.9 L 759.9 512.0 L 571.2 513.8 L 556.5 498.5 L 553.1 464.7 Z" fill="none" stroke="#4f46e5" stroke-width="1.1" opacity="0.28" />
    <text x="568" y="476" font-size="18" fill="#171717" font-weight="750">Reworked loop</text>
  </g>
  </g>
</svg>
