<?xml version="1.0" encoding="UTF-8"?>
<svg xmlns="http://www.w3.org/2000/svg" width="1280" height="700" viewBox="0 0 1280 700" role="img" aria-labelledby="title-chapter-09-01-en desc-chapter-09-01-en">
  <title id="title-chapter-09-01-en">The Two Planes</title>
  <desc id="desc-chapter-09-01-en">Hand-drawn whiteboard figure for The Two Planes, showing the relationship between Config and capabilities, Tool spec plan, Model-visible specs, Handler registry, Model tool call.</desc>
  <defs>
    <marker id="arrow" markerWidth="12" markerHeight="12" refX="10" refY="6" orient="auto" markerUnits="strokeWidth">
      <path d="M 1 1 L 11 6 L 1 11 z" fill="#d97757" />
    </marker>
    <filter id="paper-chapter-09-01-en" x="-5%" y="-5%" width="110%" height="110%">
      <feTurbulence type="fractalNoise" baseFrequency="0.85" numOctaves="2" stitchTiles="stitch" result="noise" />
      <feColorMatrix type="saturate" values="0" />
      <feComponentTransfer>
        <feFuncA type="table" tableValues="0 0.045" />
      </feComponentTransfer>
    </filter>
  </defs>
  <rect x="0" y="0" width="1280" height="700" rx="30" fill="#fffdf7" />
  <path d="M 51.9 19.9 L 1228.1 23.3 L 1259.4 52.4 L 1256.1 647.7 L 1229.7 676.9 L 50.0 679.1 L 22.0 651.8 L 20.6 51.9 Z" fill="none" stroke="#171717" stroke-width="2" opacity="0.18" />
  <rect x="0" y="0" width="1280" height="700" filter="url(#paper-chapter-09-01-en)" />
  <g font-family="Virgil, 'Comic Sans MS', 'Segoe Print', 'LXGW WenKai', 'Noto Sans CJK SC', cursive" letter-spacing="0">
    <text x="66" y="95" font-size="33" fill="#171717" font-weight="800">The Two Planes</text>
    <path d="M 64.0 166.0 C 456.8 178.5, 871.8 147.2, 1210.0 160.0" fill="none" stroke="#171717" stroke-width="2" opacity="0.22" />
    <path d="M 260.0 150.0 C 267.3 134.9, 247.9 607.2, 260.0 610.0" fill="none" stroke="#3b82f6" stroke-width="2" stroke-dasharray="10 12" opacity="0.25" />
    <path d="M 1020.0 150.0 C 1011.8 144.4, 1027.9 619.7, 1020.0 610.0" fill="none" stroke="#2f855a" stroke-width="2" stroke-dasharray="10 12" opacity="0.25" />
<path d="M 640.0 208.0 C 626.3 217.0, 650.1 238.1, 640.0 224.0" fill="none" stroke="#d97757" stroke-width="3" stroke-linecap="round" marker-end="url(#arrow)" opacity="0.72" />
<path d="M 640.0 272.0 C 630.3 277.9, 651.1 277.1, 640.0 288.0" fill="none" stroke="#d97757" stroke-width="3" stroke-linecap="round" marker-end="url(#arrow)" opacity="0.72" />
<path d="M 640.0 336.0 C 623.9 330.0, 624.8 352.4, 640.0 352.0" fill="none" stroke="#d97757" stroke-width="3" stroke-linecap="round" marker-end="url(#arrow)" opacity="0.72" />
<path d="M 640.0 400.0 C 648.6 401.9, 629.7 427.4, 640.0 416.0" fill="none" stroke="#d97757" stroke-width="3" stroke-linecap="round" marker-end="url(#arrow)" opacity="0.72" />
<path d="M 640.0 464.0 C 629.8 448.8, 631.1 470.0, 640.0 480.0" fill="none" stroke="#d97757" stroke-width="3" stroke-linecap="round" marker-end="url(#arrow)" opacity="0.72" />
<path d="M 640.0 528.0 C 644.2 512.2, 623.4 549.8, 640.0 544.0" fill="none" stroke="#d97757" stroke-width="3" stroke-linecap="round" marker-end="url(#arrow)" opacity="0.72" />
<g>
    <path d="M 279.0 158.4 L 1003.6 159.3 L 1018.8 179.6 L 1020.1 190.9 L 1004.3 209.0 L 276.2 209.9 L 259.0 188.9 L 261.8 176.7 Z" fill="#fff7d6" stroke="#d97757" stroke-width="2.4" />
    <path d="M 278.7 166.5 L 1001.0 166.5 L 1017.6 177.9 L 1016.0 188.5 L 999.6 205.7 L 278.3 204.9 L 262.6 189.3 L 261.6 177.5 Z" fill="none" stroke="#d97757" stroke-width="1.1" opacity="0.28" />
    <text x="278" y="192" font-size="17" fill="#171717" font-weight="750">Config and capabilities</text>
  </g>
<g>
    <path d="M 324.4 221.7 L 957.3 226.4 L 974.1 241.0 L 975.1 251.6 L 955.1 270.8 L 326.7 271.4 L 306.4 252.7 L 305.1 243.4 Z" fill="#e9f4ff" stroke="#3b82f6" stroke-width="2.4" />
    <path d="M 326.7 226.3 L 955.6 227.0 L 967.9 240.6 L 969.8 253.3 L 952.7 268.1 L 328.4 267.1 L 313.0 254.8 L 312.5 244.0 Z" fill="none" stroke="#3b82f6" stroke-width="1.1" opacity="0.28" />
    <text x="325" y="256" font-size="18" fill="#171717" font-weight="750">Tool spec plan</text>
  </g>
<g>
    <path d="M 337.7 285.9 L 942.5 287.7 L 963.3 306.3 L 962.8 316.2 L 943.5 337.8 L 337.0 338.5 L 320.0 318.4 L 320.6 304.8 Z" fill="#ecfdf3" stroke="#2f855a" stroke-width="2.4" />
    <path d="M 340.3 290.7 L 944.2 293.6 L 955.7 305.5 L 956.6 316.7 L 939.9 332.6 L 340.0 331.2 L 320.5 316.4 L 322.0 309.4 Z" fill="none" stroke="#2f855a" stroke-width="1.1" opacity="0.28" />
    <text x="337" y="320" font-size="18" fill="#171717" font-weight="750">Model visible specs</text>
  </g>
<g>
    <path d="M 348.0 349.7 L 931.3 352.9 L 950.1 368.6 L 949.2 382.7 L 929.6 398.0 L 349.5 400.1 L 331.6 381.7 L 330.1 370.7 Z" fill="#fff1f2" stroke="#be4456" stroke-width="2.4" />
    <path d="M 351.4 356.8 L 930.6 358.0 L 944.8 369.5 L 943.2 380.9 L 928.8 397.1 L 348.9 397.6 L 334.5 378.8 L 332.6 371.3 Z" fill="none" stroke="#be4456" stroke-width="1.1" opacity="0.28" />
    <text x="349" y="384" font-size="18" fill="#171717" font-weight="750">Handler registry</text>
  </g>
<g>
    <path d="M 360.5 414.6 L 917.9 418.5 L 939.5 432.5 L 935.7 447.3 L 921.5 465.4 L 361.9 461.8 L 341.0 447.2 L 341.7 432.4 Z" fill="#f3e8ff" stroke="#8b5cf6" stroke-width="2.4" />
    <path d="M 363.3 418.2 L 916.3 418.0 L 932.0 432.6 L 933.8 447.3 L 919.5 461.6 L 362.0 460.8 L 346.3 445.6 L 347.8 433.4 Z" fill="none" stroke="#8b5cf6" stroke-width="1.1" opacity="0.28" />
    <text x="361" y="448" font-size="18" fill="#171717" font-weight="750">Model tool call</text>
  </g>
<g>
    <path d="M 372.5 479.5 L 907.8 482.1 L 925.1 499.6 L 926.2 511.2 L 906.1 527.8 L 373.8 530.1 L 353.7 508.1 L 353.5 497.4 Z" fill="#fef3c7" stroke="#b7791f" stroke-width="2.4" />
    <path d="M 374.6 485.9 L 907.7 484.4 L 920.5 499.4 L 922.7 509.5 L 905.4 524.2 L 374.0 525.4 L 357.0 507.3 L 360.3 500.2 Z" fill="none" stroke="#b7791f" stroke-width="1.1" opacity="0.28" />
    <text x="373" y="512" font-size="18" fill="#171717" font-weight="750">Runtime router</text>
  </g>
<g>
    <path d="M 278.4 546.1 L 1002.9 545.5 L 1019.1 560.9 L 1020.3 571.6 L 1003.4 591.1 L 279.2 593.5 L 260.4 573.1 L 261.8 560.3 Z" fill="#eef2ff" stroke="#4f46e5" stroke-width="2.4" />
    <path d="M 281.1 545.8 L 1002.5 546.7 L 1013.7 564.7 L 1014.6 575.3 L 1002.8 585.9 L 280.8 587.8 L 264.7 572.5 L 265.4 561.1 Z" fill="none" stroke="#4f46e5" stroke-width="1.1" opacity="0.28" />
    <text x="278" y="576" font-size="18" fill="#171717" font-weight="750">Events and result</text>
  </g>
  </g>
</svg>
