<?xml version="1.0" encoding="UTF-8"?>
<svg xmlns="http://www.w3.org/2000/svg" width="1280" height="700" viewBox="0 0 1280 700" role="img" aria-labelledby="title-chapter-15-03-en desc-chapter-15-03-en">
  <title id="title-chapter-15-03-en">Remote Control</title>
  <desc id="desc-chapter-15-03-en">Hand-drawn whiteboard figure for Remote Control, showing the relationship between Remote client, Backend stream, Local remote bridge, app-server, open logical connection.</desc>
  <defs>
    <marker id="arrow" markerWidth="12" markerHeight="12" refX="10" refY="6" orient="auto" markerUnits="strokeWidth">
      <path d="M 1 1 L 11 6 L 1 11 z" fill="#d97757" />
    </marker>
    <filter id="paper-chapter-15-03-en" x="-5%" y="-5%" width="110%" height="110%">
      <feTurbulence type="fractalNoise" baseFrequency="0.85" numOctaves="2" stitchTiles="stitch" result="noise" />
      <feColorMatrix type="saturate" values="0" />
      <feComponentTransfer>
        <feFuncA type="table" tableValues="0 0.045" />
      </feComponentTransfer>
    </filter>
  </defs>
  <rect x="0" y="0" width="1280" height="700" rx="30" fill="#fffdf7" />
  <path d="M 52.1 20.8 L 1230.5 21.1 L 1259.8 51.0 L 1256.1 650.3 L 1227.8 679.7 L 49.7 680.2 L 21.2 648.6 L 20.0 51.8 Z" fill="none" stroke="#171717" stroke-width="2" opacity="0.18" />
  <rect x="0" y="0" width="1280" height="700" filter="url(#paper-chapter-15-03-en)" />
  <g font-family="Virgil, 'Comic Sans MS', 'Segoe Print', 'LXGW WenKai', 'Noto Sans CJK SC', cursive" letter-spacing="0">
    <text x="66" y="95" font-size="33" fill="#171717" font-weight="800">Remote Control</text>
    <path d="M 64.0 166.0 C 469.3 176.0, 862.7 157.1, 1210.0 160.0" fill="none" stroke="#171717" stroke-width="2" opacity="0.22" />
    <g>
      <path d="M 92.2 150.2 L 395.9 151.8 L 422.1 171.7 L 418.1 596.7 L 395.0 621.8 L 96.3 620.1 L 68.5 594.4 L 68.6 174.3 Z" fill="#f8fafc" stroke="#475569" stroke-width="1.8" stroke-dasharray="8 10" opacity="0.72" />
      <text x="90" y="184" font-size="16" fill="#475569" font-weight="800">External surface</text>
    </g>
<g>
      <path d="M 488.1 150.7 L 789.9 151.2 L 816.5 175.8 L 817.4 595.7 L 791.9 617.5 L 488.9 620.5 L 465.6 594.8 L 466.9 175.4 Z" fill="#fffdf7" stroke="#475569" stroke-width="1.8" stroke-dasharray="0" opacity="0.72" />
      <text x="485" y="184" font-size="16" fill="#475569" font-weight="800">Runtime contract</text>
    </g>
<g>
      <path d="M 884.4 149.2 L 1186.6 152.5 L 1208.3 172.4 L 1208.5 594.6 L 1188.2 618.0 L 881.8 618.4 L 862.2 594.6 L 861.8 175.1 Z" fill="#f8fafc" stroke="#475569" stroke-width="1.8" stroke-dasharray="8 10" opacity="0.72" />
      <text x="880" y="184" font-size="16" fill="#475569" font-weight="800">Execution boundary</text>
    </g>
<path d="M 396.0 253.0 C 437.4 238.6, 445.1 265.6, 489.0 253.0" fill="none" stroke="#d97757" stroke-width="3" stroke-linecap="round" marker-end="url(#arrow)" opacity="0.72" />
<path d="M 791.0 253.0 C 815.9 243.3, 853.0 264.6, 884.0 253.0" fill="none" stroke="#d97757" stroke-width="3" stroke-linecap="round" marker-end="url(#arrow)" opacity="0.72" />
<path d="M 1186.0 253.0 C 788.4 259.7, 426.5 379.4, 94.0 365.0" fill="none" stroke="#d97757" stroke-width="3" stroke-linecap="round" stroke-dasharray="8 9" marker-end="url(#arrow)" opacity="0.72" />
<path d="M 396.0 365.0 C 429.5 360.8, 467.3 369.7, 489.0 365.0" fill="none" stroke="#d97757" stroke-width="3" stroke-linecap="round" marker-end="url(#arrow)" opacity="0.72" />
<path d="M 791.0 365.0 C 815.1 374.6, 860.6 374.5, 884.0 365.0" fill="none" stroke="#d97757" stroke-width="3" stroke-linecap="round" marker-end="url(#arrow)" opacity="0.72" />
<path d="M 1186.0 365.0 C 791.8 350.9, 417.4 479.9, 94.0 477.0" fill="none" stroke="#d97757" stroke-width="3" stroke-linecap="round" stroke-dasharray="8 9" marker-end="url(#arrow)" opacity="0.72" />
<g>
    <path d="M 110.9 214.3 L 377.0 216.6 L 396.7 235.9 L 395.1 271.0 L 376.4 288.3 L 109.7 291.8 L 94.9 272.5 L 96.4 235.7 Z" fill="#fff7d6" stroke="#d97757" stroke-width="2.4" />
    <path d="M 113.7 218.0 L 375.9 218.3 L 393.0 236.8 L 392.7 272.5 L 375.2 286.0 L 110.8 288.2 L 96.0 272.3 L 95.9 233.5 Z" fill="none" stroke="#d97757" stroke-width="1.1" opacity="0.28" />
    <text x="112" y="248" font-size="18" fill="#171717" font-weight="750">Remote client</text>
  </g>
<g>
    <path d="M 506.4 214.1 L 773.2 216.8 L 790.9 232.4 L 793.1 269.8 L 775.2 288.0 L 508.5 289.9 L 491.2 273.6 L 489.0 233.7 Z" fill="#e9f4ff" stroke="#3b82f6" stroke-width="2.4" />
    <path d="M 508.8 220.7 L 773.8 217.8 L 787.5 233.3 L 785.9 268.6 L 772.6 286.5 L 510.4 287.5 L 494.9 270.0 L 492.5 237.4 Z" fill="none" stroke="#3b82f6" stroke-width="1.1" opacity="0.28" />
    <text x="507" y="248" font-size="18" fill="#171717" font-weight="750">Backend stream</text>
  </g>
<g>
    <path d="M 899.8 215.3 L 1166.9 214.3 L 1183.6 235.2 L 1186.9 273.9 L 1166.5 288.7 L 901.7 288.1 L 883.6 271.6 L 883.4 235.3 Z" fill="#ecfdf3" stroke="#2f855a" stroke-width="2.4" />
    <path d="M 901.5 218.8 L 1167.0 221.4 L 1184.5 232.6 L 1179.6 271.9 L 1168.7 285.8 L 901.1 285.0 L 888.7 271.3 L 887.9 234.4 Z" fill="none" stroke="#2f855a" stroke-width="1.1" opacity="0.28" />
    <text x="902" y="248" font-size="18" fill="#171717" font-weight="750">Local remote bridge</text>
  </g>
<g>
    <path d="M 111.2 325.8 L 380.3 330.1 L 397.7 343.8 L 394.0 382.3 L 376.5 403.6 L 112.5 404.3 L 96.0 384.9 L 92.6 345.1 Z" fill="#fff1f2" stroke="#be4456" stroke-width="2.4" />
    <path d="M 113.8 332.9 L 376.4 334.5 L 394.0 346.3 L 392.7 383.5 L 375.0 397.8 L 112.1 399.4 L 97.5 383.9 L 97.6 344.8 Z" fill="none" stroke="#be4456" stroke-width="1.1" opacity="0.28" />
    <text x="112" y="360" font-size="18" fill="#171717" font-weight="750">app-server</text>
  </g>
<g>
    <path d="M 509.1 329.5 L 773.6 327.9 L 791.0 346.2 L 790.4 384.6 L 774.9 401.1 L 508.5 404.0 L 487.6 383.8 L 490.8 347.9 Z" fill="#f3e8ff" stroke="#8b5cf6" stroke-width="2.4" />
    <path d="M 509.3 333.4 L 774.3 333.6 L 785.4 346.3 L 786.6 380.7 L 772.0 396.1 L 507.2 399.5 L 492.4 384.0 L 494.3 347.4 Z" fill="none" stroke="#8b5cf6" stroke-width="1.1" opacity="0.28" />
    <text x="507" y="360" font-size="17" fill="#171717" font-weight="750">open logical connection</text>
  </g>
<g>
    <path d="M 899.9 329.9 L 1168.5 329.7 L 1185.9 345.3 L 1187.6 385.8 L 1169.6 402.7 L 903.1 400.8 L 885.9 386.4 L 883.2 344.1 Z" fill="#fef3c7" stroke="#b7791f" stroke-width="2.4" />
    <path d="M 904.4 333.5 L 1166.9 332.0 L 1183.4 348.6 L 1183.1 383.8 L 1167.3 399.1 L 903.3 399.5 L 886.7 384.4 L 890.3 347.9 Z" fill="none" stroke="#b7791f" stroke-width="1.1" opacity="0.28" />
    <text x="902" y="360" font-size="17" fill="#171717" font-weight="750">deliver connection metadata</text>
  </g>
<g>
    <path d="M 112.0 442.3 L 375.8 440.9 L 397.6 459.1 L 393.6 497.2 L 377.7 512.9 L 112.0 513.2 L 93.5 495.6 L 96.3 458.9 Z" fill="#eef2ff" stroke="#4f46e5" stroke-width="2.4" />
    <path d="M 112.8 442.0 L 376.9 442.9 L 393.1 458.5 L 393.9 493.5 L 375.9 508.3 L 115.4 510.7 L 97.1 492.8 L 98.2 460.9 Z" fill="none" stroke="#4f46e5" stroke-width="1.1" opacity="0.28" />
    <text x="112" y="472" font-size="17" fill="#171717" font-weight="750">create app-server</text>
<text x="112" y="493.25" font-size="17" fill="#171717" font-weight="750">connection</text>
  </g>
  </g>
</svg>
