<?xml version="1.0" encoding="UTF-8"?>
<svg xmlns="http://www.w3.org/2000/svg" width="1280" height="700" viewBox="0 0 1280 700" role="img" aria-labelledby="title-chapter-11-concept-1-zh desc-chapter-11-concept-1-zh">
  <title id="title-chapter-11-concept-1-zh">Patch 语法与校验</title>
  <desc id="desc-chapter-11-concept-1-zh">Patch 语法与校验的手绘白板图，展示Patch 语法、意图恢复、文件系统校验、权限门、执行器应用之间的关系。</desc>
  <defs>
    <marker id="arrow" markerWidth="12" markerHeight="12" refX="10" refY="6" orient="auto" markerUnits="strokeWidth">
      <path d="M 1 1 L 11 6 L 1 11 z" fill="#d97757" />
    </marker>
    <filter id="paper-chapter-11-concept-1-zh" x="-5%" y="-5%" width="110%" height="110%">
      <feTurbulence type="fractalNoise" baseFrequency="0.85" numOctaves="2" stitchTiles="stitch" result="noise" />
      <feColorMatrix type="saturate" values="0" />
      <feComponentTransfer>
        <feFuncA type="table" tableValues="0 0.045" />
      </feComponentTransfer>
    </filter>
  </defs>
  <rect x="0" y="0" width="1280" height="700" rx="30" fill="#fffdf7" />
  <path d="M 51.6 20.9 L 1230.0 20.1 L 1259.0 50.9 L 1259.0 651.6 L 1230.8 679.9 L 50.5 677.8 L 24.2 649.0 L 21.6 51.6 Z" fill="none" stroke="#171717" stroke-width="2" opacity="0.18" />
  <rect x="0" y="0" width="1280" height="700" filter="url(#paper-chapter-11-concept-1-zh)" />
  <g font-family="Virgil, 'Comic Sans MS', 'Segoe Print', 'LXGW WenKai', 'Noto Sans CJK SC', cursive" letter-spacing="0">
    <text x="66" y="95" font-size="31" fill="#171717" font-weight="800">Patch 语法与校验</text>
    <path d="M 64.0 166.0 C 450.2 156.1, 853.3 157.1, 1210.0 160.0" fill="none" stroke="#171717" stroke-width="2" opacity="0.22" />
    <path d="M 260.0 150.0 C 272.1 145.0, 267.1 607.7, 260.0 610.0" fill="none" stroke="#3b82f6" stroke-width="2" stroke-dasharray="10 12" opacity="0.25" />
    <path d="M 1020.0 150.0 C 1016.2 159.1, 1009.6 622.8, 1020.0 610.0" fill="none" stroke="#2f855a" stroke-width="2" stroke-dasharray="10 12" opacity="0.25" />
<path d="M 640.0 208.0 C 652.4 211.7, 656.2 223.4, 640.0 224.0" fill="none" stroke="#d97757" stroke-width="3" stroke-linecap="round" marker-end="url(#arrow)" opacity="0.72" />
<path d="M 640.0 272.0 C 644.5 283.0, 637.2 273.8, 640.0 288.0" fill="none" stroke="#d97757" stroke-width="3" stroke-linecap="round" marker-end="url(#arrow)" opacity="0.72" />
<path d="M 640.0 336.0 C 627.8 331.8, 635.4 345.0, 640.0 352.0" fill="none" stroke="#d97757" stroke-width="3" stroke-linecap="round" marker-end="url(#arrow)" opacity="0.72" />
<path d="M 640.0 400.0 C 648.4 394.7, 624.8 411.0, 640.0 416.0" fill="none" stroke="#d97757" stroke-width="3" stroke-linecap="round" marker-end="url(#arrow)" opacity="0.72" />
<path d="M 640.0 464.0 C 648.9 471.9, 654.1 490.5, 640.0 480.0" fill="none" stroke="#d97757" stroke-width="3" stroke-linecap="round" marker-end="url(#arrow)" opacity="0.72" />
<g>
    <path d="M 279.9 160.8 L 1003.5 160.2 L 1017.6 178.1 L 1019.6 190.5 L 1002.7 206.6 L 276.6 205.7 L 262.5 190.3 L 261.0 180.2 Z" fill="#fff7d6" stroke="#d97757" stroke-width="2.4" />
    <path d="M 279.1 163.9 L 999.1 164.4 L 1018.0 178.8 L 1014.1 187.3 L 1003.3 202.8 L 277.9 204.2 L 266.2 188.2 L 266.2 179.7 Z" fill="none" stroke="#d97757" stroke-width="1.1" opacity="0.28" />
    <text x="278" y="192" font-size="18" fill="#171717" font-weight="750">Patch 语法</text>
  </g>
<g>
    <path d="M 324.4 224.6 L 954.9 223.5 L 970.6 242.5 L 971.6 255.8 L 952.9 272.9 L 327.4 273.7 L 307.4 252.2 L 308.3 242.7 Z" fill="#e9f4ff" stroke="#3b82f6" stroke-width="2.4" />
    <path d="M 328.1 230.5 L 954.5 229.0 L 968.5 241.4 L 969.2 253.5 L 952.6 270.1 L 324.3 269.9 L 310.0 251.0 L 310.8 243.5 Z" fill="none" stroke="#3b82f6" stroke-width="1.1" opacity="0.28" />
    <text x="325" y="256" font-size="18" fill="#171717" font-weight="750">意图恢复</text>
  </g>
<g>
    <path d="M 334.9 288.8 L 942.5 290.0 L 963.0 303.8 L 958.8 317.6 L 941.7 333.8 L 336.4 337.0 L 318.9 317.0 L 320.7 306.4 Z" fill="#ecfdf3" stroke="#2f855a" stroke-width="2.4" />
    <path d="M 338.8 292.3 L 941.9 292.3 L 955.4 309.3 L 958.4 317.6 L 940.5 334.5 L 339.0 332.0 L 325.1 315.0 L 323.5 309.1 Z" fill="none" stroke="#2f855a" stroke-width="1.1" opacity="0.28" />
    <text x="337" y="320" font-size="18" fill="#171717" font-weight="750">文件系统校验</text>
  </g>
<g>
    <path d="M 346.8 353.7 L 929.3 351.6 L 946.7 370.8 L 946.8 380.7 L 930.2 400.0 L 347.0 402.5 L 331.9 379.6 L 329.6 370.2 Z" fill="#fff1f2" stroke="#be4456" stroke-width="2.4" />
    <path d="M 352.0 355.4 L 928.5 358.3 L 946.0 373.3 L 942.8 379.3 L 928.1 395.0 L 352.4 396.2 L 335.1 381.4 L 335.8 371.5 Z" fill="none" stroke="#be4456" stroke-width="1.1" opacity="0.28" />
    <text x="349" y="384" font-size="18" fill="#171717" font-weight="750">权限门</text>
  </g>
<g>
    <path d="M 362.6 415.2 L 917.0 414.4 L 937.2 433.3 L 936.1 447.6 L 920.9 462.9 L 362.3 464.1 L 344.7 446.7 L 342.7 432.5 Z" fill="#f3e8ff" stroke="#8b5cf6" stroke-width="2.4" />
    <path d="M 363.1 417.9 L 919.2 421.5 L 930.5 434.2 L 933.8 442.7 L 917.9 460.7 L 362.4 462.0 L 345.4 442.6 L 349.5 437.3 Z" fill="none" stroke="#8b5cf6" stroke-width="1.1" opacity="0.28" />
    <text x="361" y="448" font-size="18" fill="#171717" font-weight="750">执行器应用</text>
  </g>
<g>
    <path d="M 278.2 480.0 L 1002.9 479.6 L 1022.3 496.3 L 1021.7 509.8 L 1001.8 526.2 L 280.3 529.9 L 260.4 510.9 L 260.9 499.8 Z" fill="#fef3c7" stroke="#b7791f" stroke-width="2.4" />
    <path d="M 277.3 483.4 L 1001.0 483.2 L 1015.8 499.1 L 1015.9 508.6 L 1001.1 522.3 L 280.6 522.2 L 264.5 508.2 L 261.7 497.6 Z" fill="none" stroke="#b7791f" stroke-width="1.1" opacity="0.28" />
    <text x="278" y="512" font-size="18" fill="#171717" font-weight="750">记录 diff</text>
  </g>
  </g>
</svg>
