<?xml version="1.0" encoding="UTF-8"?>
<svg xmlns="http://www.w3.org/2000/svg" width="1280" height="740" viewBox="0 0 1280 740" role="img" aria-labelledby="title-chapter-23-concept-1-zh desc-chapter-23-concept-1-zh">
  <title id="title-chapter-23-concept-1-zh">构建属于架构</title>
  <desc id="desc-chapter-23-concept-1-zh">构建属于架构的手绘白板图，展示Cargo 图、生成 schema、Bazel 镜像、发布验证、打包边界之间的关系。</desc>
  <defs>
    <marker id="arrow" markerWidth="12" markerHeight="12" refX="10" refY="6" orient="auto" markerUnits="strokeWidth">
      <path d="M 1 1 L 11 6 L 1 11 z" fill="#d97757" />
    </marker>
    <filter id="paper-chapter-23-concept-1-zh" x="-5%" y="-5%" width="110%" height="110%">
      <feTurbulence type="fractalNoise" baseFrequency="0.85" numOctaves="2" stitchTiles="stitch" result="noise" />
      <feColorMatrix type="saturate" values="0" />
      <feComponentTransfer>
        <feFuncA type="table" tableValues="0 0.045" />
      </feComponentTransfer>
    </filter>
  </defs>
  <rect x="0" y="0" width="1280" height="740" rx="30" fill="#fffdf7" />
  <path d="M 47.7 24.0 L 1229.4 23.1 L 1256.1 51.5 L 1259.2 691.8 L 1229.2 716.5 L 50.7 720.2 L 21.9 689.6 L 20.4 49.5 Z" fill="none" stroke="#171717" stroke-width="2" opacity="0.18" />
  <rect x="0" y="0" width="1280" height="740" filter="url(#paper-chapter-23-concept-1-zh)" />
  <g font-family="Virgil, 'Comic Sans MS', 'Segoe Print', 'LXGW WenKai', 'Noto Sans CJK SC', cursive" letter-spacing="0">
    <text x="66" y="95" font-size="31" fill="#171717" font-weight="800">构建属于架构</text>
    <path d="M 64.0 166.0 C 480.9 179.1, 851.5 168.3, 1210.0 160.0" fill="none" stroke="#171717" stroke-width="2" opacity="0.22" />
    <path d="M 922.3 170.1 L 1181.9 169.8 L 1208.2 198.6 L 1207.9 532.7 L 1181.9 559.9 L 921.2 561.2 L 896.3 529.5 L 896.2 199.6 Z" fill="#fffdf7" stroke="#475569" stroke-width="2" stroke-dasharray="10 10" opacity="0.62" />
<path d="M 452.4 206.7 L 808.0 206.4 L 840.0 236.8 L 838.1 469.7 L 803.6 506.6 L 452.4 502.5 L 421.5 468.9 L 420.7 240.0 Z" fill="#eef2ff" stroke="#4f46e5" stroke-width="2.5" />
    <path d="M 460.0 310.0 C 575.8 314.4, 683.7 315.9, 800.0 310.0" fill="none" stroke="#4f46e5" stroke-width="2" opacity="0.34" />
    <text x="464" y="269" font-size="20" fill="#171717" font-weight="800">契约生成工厂</text>
<path d="M 315.0 373.0 C 356.9 376.6, 398.3 388.6, 420.0 375.0" fill="none" stroke="#d97757" stroke-width="3" stroke-linecap="round" marker-end="url(#arrow)" opacity="0.72" />
<path d="M 840.0 303.0 C 870.0 315.3, 912.4 235.2, 930.0 242.0" fill="none" stroke="#3b82f6" stroke-width="3" stroke-linecap="round" marker-end="url(#arrow)" opacity="0.72" />
<path d="M 840.0 361.0 C 878.7 359.8, 911.8 373.6, 930.0 362.0" fill="none" stroke="#3b82f6" stroke-width="3" stroke-linecap="round" marker-end="url(#arrow)" opacity="0.72" />
<path d="M 840.0 419.0 C 863.3 433.4, 887.3 477.2, 930.0 482.0" fill="none" stroke="#3b82f6" stroke-width="3" stroke-linecap="round" stroke-dasharray="8 9" marker-end="url(#arrow)" opacity="0.72" />
<g>
    <path d="M 89.9 330.7 L 295.8 332.1 L 316.4 348.3 L 313.4 398.3 L 297.8 415.4 L 85.6 416.8 L 69.0 400.2 L 70.7 347.4 Z" fill="#fff7d6" stroke="#d97757" stroke-width="2.4" />
    <path d="M 90.6 335.0 L 297.6 332.1 L 310.6 351.1 L 312.1 397.6 L 298.5 414.3 L 89.2 414.0 L 74.7 399.4 L 74.4 351.2 Z" fill="none" stroke="#d97757" stroke-width="1.1" opacity="0.28" />
    <text x="88" y="362" font-size="18" fill="#171717" font-weight="750">Cargo 图</text>
  </g>
<g>
    <path d="M 481.6 329.4 L 598.5 329.1 L 619.4 345.7 L 619.2 385.2 L 596.7 404.3 L 479.9 404.1 L 461.4 384.9 L 462.9 348.5 Z" fill="#e9f4ff" stroke="#3b82f6" stroke-width="2.4" />
    <path d="M 479.2 331.6 L 597.6 334.4 L 615.4 350.1 L 611.7 383.7 L 598.9 399.5 L 480.2 399.7 L 465.4 383.3 L 464.3 347.9 Z" fill="none" stroke="#3b82f6" stroke-width="1.1" opacity="0.28" />
    <text x="480" y="362" font-size="18" fill="#171717" font-weight="750">生成</text>
<text x="480" y="384.5" font-size="18" fill="#171717" font-weight="750">schema</text>
  </g>
<g>
    <path d="M 669.9 331.6 L 787.7 332.3 L 804.0 346.5 L 806.1 386.2 L 785.5 403.4 L 669.7 399.5 L 651.9 385.9 L 650.2 345.6 Z" fill="#ecfdf3" stroke="#2f855a" stroke-width="2.4" />
    <path d="M 668.0 332.1 L 785.5 335.8 L 801.2 349.0 L 800.8 383.8 L 788.2 397.3 L 669.1 396.9 L 653.4 382.1 L 652.4 347.1 Z" fill="none" stroke="#2f855a" stroke-width="1.1" opacity="0.28" />
    <text x="668" y="362" font-size="18" fill="#171717" font-weight="750">Bazel</text>
<text x="668" y="384.5" font-size="18" fill="#171717" font-weight="750">镜像</text>
  </g>
<g>
    <path d="M 949.2 203.1 L 1155.2 202.7 L 1176.6 222.0 L 1175.7 263.5 L 1157.8 279.6 L 947.6 278.4 L 929.3 260.3 L 929.5 222.9 Z" fill="#fff1f2" stroke="#be4456" stroke-width="2.4" />
    <path d="M 951.5 210.6 L 1158.4 208.0 L 1171.8 226.5 L 1169.8 260.0 L 1156.0 276.9 L 949.1 274.0 L 936.3 262.3 L 936.4 221.7 Z" fill="none" stroke="#be4456" stroke-width="1.1" opacity="0.28" />
    <text x="948" y="237" font-size="18" fill="#171717" font-weight="750">发布验证</text>
  </g>
<g>
    <path d="M 947.2 324.6 L 1158.2 324.2 L 1174.6 344.6 L 1176.9 380.0 L 1159.4 397.2 L 949.3 401.5 L 927.9 381.5 L 929.2 344.2 Z" fill="#f3e8ff" stroke="#8b5cf6" stroke-width="2.4" />
    <path d="M 947.7 330.3 L 1155.1 330.4 L 1170.6 342.4 L 1169.8 379.2 L 1158.2 394.9 L 951.4 393.5 L 931.9 381.4 L 934.4 346.2 Z" fill="none" stroke="#8b5cf6" stroke-width="1.1" opacity="0.28" />
    <text x="948" y="357" font-size="18" fill="#171717" font-weight="750">打包边界</text>
  </g>
<g>
    <path d="M 950.0 444.2 L 1155.5 443.5 L 1175.8 462.5 L 1175.8 499.0 L 1156.2 521.1 L 950.2 518.4 L 931.5 499.5 L 928.8 465.3 Z" fill="#fef3c7" stroke="#b7791f" stroke-width="2.4" />
    <path d="M 949.3 447.3 L 1156.9 449.8 L 1171.0 462.1 L 1171.1 502.2 L 1154.3 516.3 L 948.0 517.1 L 934.6 497.7 L 934.2 461.7 Z" fill="none" stroke="#b7791f" stroke-width="1.1" opacity="0.28" />
    <text x="948" y="477" font-size="18" fill="#171717" font-weight="750">已交付契约</text>
  </g>
  </g>
</svg>
