<?xml version="1.0" encoding="UTF-8"?>
<svg xmlns="http://www.w3.org/2000/svg" width="1280" height="740" viewBox="0 0 1280 740" role="img" aria-labelledby="title-chapter-20-02-en desc-chapter-20-02-en">
  <title id="title-chapter-20-02-en">Live Graph Versus Trace Graph</title>
  <desc id="desc-chapter-20-02-en">Hand-drawn whiteboard figure for Live Graph Versus Trace Graph, showing the relationship between ordered raw events and payload refs, offline reducer, live graph store open / closed descendants, reduced trace graph interaction edges, debugger or client projection.</desc>
  <defs>
    <marker id="arrow" markerWidth="12" markerHeight="12" refX="10" refY="6" orient="auto" markerUnits="strokeWidth">
      <path d="M 1 1 L 11 6 L 1 11 z" fill="#d97757" />
    </marker>
    <filter id="paper-chapter-20-02-en" x="-5%" y="-5%" width="110%" height="110%">
      <feTurbulence type="fractalNoise" baseFrequency="0.85" numOctaves="2" stitchTiles="stitch" result="noise" />
      <feColorMatrix type="saturate" values="0" />
      <feComponentTransfer>
        <feFuncA type="table" tableValues="0 0.045" />
      </feComponentTransfer>
    </filter>
  </defs>
  <rect x="0" y="0" width="1280" height="740" rx="30" fill="#fffdf7" />
  <path d="M 52.0 23.8 L 1229.5 24.2 L 1258.4 49.4 L 1259.7 691.7 L 1231.4 718.4 L 50.5 718.3 L 24.3 690.5 L 22.5 51.8 Z" fill="none" stroke="#171717" stroke-width="2" opacity="0.18" />
  <rect x="0" y="0" width="1280" height="740" filter="url(#paper-chapter-20-02-en)" />
  <g font-family="Virgil, 'Comic Sans MS', 'Segoe Print', 'LXGW WenKai', 'Noto Sans CJK SC', cursive" letter-spacing="0">
    <text x="66" y="95" font-size="33" fill="#171717" font-weight="800">Live Graph Versus Trace Graph</text>
    <path d="M 64.0 166.0 C 448.4 156.7, 863.8 159.7, 1210.0 160.0" fill="none" stroke="#171717" stroke-width="2" opacity="0.22" />
    <ellipse cx="640" cy="448" rx="520" ry="238" fill="#eef2ff" stroke="#4f46e5" stroke-width="2" stroke-dasharray="14 12" opacity="0.28" />
    <text x="500" y="345" font-size="19" fill="#475569" font-weight="800">Live Graph Versus Trace</text>
<text x="500" y="368.75" font-size="19" fill="#475569" font-weight="800">Graph</text>
<path d="M 213.0 258.0 C 374.0 267.5, 530.8 239.3, 648.0 228.0" fill="none" stroke="#d97757" stroke-width="3" stroke-linecap="round" marker-end="url(#arrow)" opacity="0.72" />
<path d="M 648.0 228.0 C 793.5 224.7, 939.3 273.0, 1040.0 260.0" fill="none" stroke="#3b82f6" stroke-width="3" stroke-linecap="round" marker-end="url(#arrow)" opacity="0.72" />
<path d="M 648.0 228.0 C 537.7 234.7, 394.6 459.6, 300.0 473.0" fill="none" stroke="#2f855a" stroke-width="3" stroke-linecap="round" marker-end="url(#arrow)" opacity="0.72" />
<path d="M 648.0 228.0 C 651.9 231.3, 644.3 551.4, 640.0 543.0" fill="none" stroke="#8b5cf6" stroke-width="3" stroke-linecap="round" marker-end="url(#arrow)" opacity="0.72" />
<path d="M 648.0 228.0 C 770.2 214.5, 886.4 468.8, 965.0 473.0" fill="none" stroke="#be4456" stroke-width="3" stroke-linecap="round" marker-end="url(#arrow)" opacity="0.72" />
<path d="M 300.0 473.0 C 426.0 488.9, 555.5 647.2, 645.0 655.0" fill="none" stroke="#475569" stroke-width="3" stroke-linecap="round" stroke-dasharray="8 9" marker-end="url(#arrow)" opacity="0.72" />
<path d="M 640.0 543.0 C 654.0 555.7, 643.6 667.9, 645.0 655.0" fill="none" stroke="#475569" stroke-width="3" stroke-linecap="round" stroke-dasharray="8 9" marker-end="url(#arrow)" opacity="0.72" />
<path d="M 965.0 473.0 C 844.6 464.8, 741.4 649.2, 645.0 655.0" fill="none" stroke="#475569" stroke-width="3" stroke-linecap="round" stroke-dasharray="8 9" marker-end="url(#arrow)" opacity="0.72" />
<g>
    <path d="M 94.2 213.3 L 328.8 214.4 L 348.2 231.7 L 349.1 286.0 L 329.4 305.7 L 94.3 301.6 L 79.4 288.3 L 78.9 231.2 Z" fill="#fff7d6" stroke="#d97757" stroke-width="2.4" />
    <path d="M 97.6 214.3 L 328.1 214.8 L 341.9 232.3 L 342.1 285.1 L 330.8 299.3 L 95.3 301.5 L 81.5 285.0 L 80.7 231.3 Z" fill="none" stroke="#d97757" stroke-width="1.1" opacity="0.28" />
    <text x="96" y="244" font-size="17" fill="#171717" font-weight="750">ordered raw events and payload</text>
<text x="96" y="265.25" font-size="17" fill="#171717" font-weight="750">refs</text>
  </g>
<g>
    <path d="M 515.1 179.9 L 779.9 179.1 L 798.9 200.4 L 795.7 257.3 L 777.9 277.4 L 515.1 276.5 L 496.5 257.7 L 498.8 197.2 Z" fill="#e9f4ff" stroke="#3b82f6" stroke-width="2.4" />
    <path d="M 517.1 183.6 L 778.5 185.0 L 793.1 201.3 L 792.1 257.9 L 780.3 272.5 L 516.1 270.2 L 503.2 257.5 L 502.0 196.8 Z" fill="none" stroke="#3b82f6" stroke-width="1.1" opacity="0.28" />
    <text x="516" y="212" font-size="18" fill="#171717" font-weight="750">offline reducer</text>
  </g>
<g>
    <path d="M 925.1 215.5 L 1155.3 215.7 L 1174.1 232.0 L 1176.5 288.3 L 1157.8 303.5 L 922.6 306.3 L 904.3 287.7 L 907.3 236.2 Z" fill="#ecfdf3" stroke="#2f855a" stroke-width="2.4" />
    <path d="M 921.9 218.3 L 1155.1 222.3 L 1170.9 235.1 L 1173.1 285.4 L 1158.2 299.5 L 924.8 301.2 L 908.9 287.2 L 910.6 233.2 Z" fill="none" stroke="#2f855a" stroke-width="1.1" opacity="0.28" />
    <text x="923" y="248" font-size="17" fill="#171717" font-weight="750">live graph store open</text>
<text x="923" y="269.25" font-size="17" fill="#171717" font-weight="750">closed descendants</text>
  </g>
<g>
    <path d="M 197.7 429.5 L 404.4 431.1 L 420.9 449.7 L 421.3 496.3 L 401.9 516.0 L 197.5 518.0 L 181.9 499.9 L 177.6 447.4 Z" fill="#fff1f2" stroke="#be4456" stroke-width="2.4" />
    <path d="M 201.4 432.2 L 401.6 432.6 L 415.5 450.7 L 416.7 496.1 L 400.4 513.8 L 198.7 513.8 L 183.9 496.0 L 184.0 451.2 Z" fill="none" stroke="#be4456" stroke-width="1.1" opacity="0.28" />
    <text x="198" y="462" font-size="17" fill="#171717" font-weight="750">reduced trace graph</text>
<text x="198" y="483.25" font-size="17" fill="#171717" font-weight="750">interaction edges</text>
  </g>
<g>
    <path d="M 539.2 499.1 L 743.0 502.1 L 757.6 517.1 L 760.5 565.6 L 743.8 583.5 L 537.2 586.2 L 520.7 567.7 L 520.9 516.4 Z" fill="#f3e8ff" stroke="#8b5cf6" stroke-width="2.4" />
    <path d="M 538.8 502.2 L 741.9 505.5 L 757.2 519.1 L 755.8 566.9 L 742.5 582.3 L 540.3 582.8 L 525.5 565.1 L 523.8 520.4 Z" fill="none" stroke="#8b5cf6" stroke-width="1.1" opacity="0.28" />
    <text x="538" y="532" font-size="17" fill="#171717" font-weight="750">debugger or client</text>
<text x="538" y="553.25" font-size="17" fill="#171717" font-weight="750">projection</text>
  </g>
<g>
    <path d="M 862.2 430.7 L 1064.5 429.2 L 1083.2 448.0 L 1084.5 499.6 L 1067.8 518.0 L 861.3 514.2 L 845.9 498.1 L 844.4 449.8 Z" fill="#fef3c7" stroke="#b7791f" stroke-width="2.4" />
    <path d="M 863.2 432.6 L 1064.9 432.2 L 1081.0 450.3 L 1081.5 495.6 L 1064.7 512.0 L 863.8 513.7 L 849.5 496.4 L 850.5 451.3 Z" fill="none" stroke="#b7791f" stroke-width="1.1" opacity="0.28" />
    <text x="863" y="462" font-size="18" fill="#171717" font-weight="750">runtime</text>
<text x="863" y="484.5" font-size="18" fill="#171717" font-weight="750">coordination</text>
  </g>
<g>
    <path d="M 450.0 614.8 L 839.6 613.5 L 858.0 635.5 L 859.3 676.0 L 842.9 695.2 L 445.7 695.9 L 430.4 679.3 L 427.9 631.8 Z" fill="#eef2ff" stroke="#4f46e5" stroke-width="2.4" />
    <path d="M 448.0 617.8 L 839.9 620.9 L 855.6 635.8 L 854.3 676.5 L 841.2 690.8 L 447.1 692.9 L 434.8 674.2 L 434.2 635.7 Z" fill="none" stroke="#4f46e5" stroke-width="1.1" opacity="0.28" />
    <text x="448" y="647" font-size="18" fill="#171717" font-weight="750">Runtime</text>
  </g>
  </g>
</svg>
