<?xml version="1.0" encoding="UTF-8"?>
<svg xmlns="http://www.w3.org/2000/svg" width="1280" height="700" viewBox="0 0 1280 700" role="img" aria-labelledby="title-chapter-09-01-zh desc-chapter-09-01-zh">
  <title id="title-chapter-09-01-zh">两个平面</title>
  <desc id="desc-chapter-09-01-zh">两个平面的手绘白板图，展示配置与能力、工具规格计划、模型可见规格、处理器注册表、模型工具调用之间的关系。</desc>
  <defs>
    <marker id="arrow" markerWidth="12" markerHeight="12" refX="10" refY="6" orient="auto" markerUnits="strokeWidth">
      <path d="M 1 1 L 11 6 L 1 11 z" fill="#d97757" />
    </marker>
    <filter id="paper-chapter-09-01-zh" x="-5%" y="-5%" width="110%" height="110%">
      <feTurbulence type="fractalNoise" baseFrequency="0.85" numOctaves="2" stitchTiles="stitch" result="noise" />
      <feColorMatrix type="saturate" values="0" />
      <feComponentTransfer>
        <feFuncA type="table" tableValues="0 0.045" />
      </feComponentTransfer>
    </filter>
  </defs>
  <rect x="0" y="0" width="1280" height="700" rx="30" fill="#fffdf7" />
  <path d="M 49.8 19.6 L 1231.9 23.5 L 1259.4 48.0 L 1259.8 651.2 L 1231.1 678.1 L 47.9 676.1 L 24.1 649.2 L 22.1 51.7 Z" fill="none" stroke="#171717" stroke-width="2" opacity="0.18" />
  <rect x="0" y="0" width="1280" height="700" filter="url(#paper-chapter-09-01-zh)" />
  <g font-family="Virgil, 'Comic Sans MS', 'Segoe Print', 'LXGW WenKai', 'Noto Sans CJK SC', cursive" letter-spacing="0">
    <text x="66" y="95" font-size="31" fill="#171717" font-weight="800">两个平面</text>
    <path d="M 64.0 166.0 C 471.7 156.8, 852.3 156.2, 1210.0 160.0" fill="none" stroke="#171717" stroke-width="2" opacity="0.22" />
    <path d="M 260.0 150.0 C 260.0 164.1, 259.4 616.3, 260.0 610.0" fill="none" stroke="#3b82f6" stroke-width="2" stroke-dasharray="10 12" opacity="0.25" />
    <path d="M 1020.0 150.0 C 1022.2 140.5, 1032.1 624.8, 1020.0 610.0" fill="none" stroke="#2f855a" stroke-width="2" stroke-dasharray="10 12" opacity="0.25" />
<path d="M 640.0 208.0 C 647.1 206.9, 646.8 224.9, 640.0 224.0" fill="none" stroke="#d97757" stroke-width="3" stroke-linecap="round" marker-end="url(#arrow)" opacity="0.72" />
<path d="M 640.0 272.0 C 651.7 274.4, 640.6 275.1, 640.0 288.0" fill="none" stroke="#d97757" stroke-width="3" stroke-linecap="round" marker-end="url(#arrow)" opacity="0.72" />
<path d="M 640.0 336.0 C 652.6 324.8, 650.2 366.5, 640.0 352.0" fill="none" stroke="#d97757" stroke-width="3" stroke-linecap="round" marker-end="url(#arrow)" opacity="0.72" />
<path d="M 640.0 400.0 C 625.6 409.6, 632.3 419.4, 640.0 416.0" fill="none" stroke="#d97757" stroke-width="3" stroke-linecap="round" marker-end="url(#arrow)" opacity="0.72" />
<path d="M 640.0 464.0 C 648.6 461.7, 643.3 491.3, 640.0 480.0" fill="none" stroke="#d97757" stroke-width="3" stroke-linecap="round" marker-end="url(#arrow)" opacity="0.72" />
<path d="M 640.0 528.0 C 645.2 512.6, 635.1 539.3, 640.0 544.0" fill="none" stroke="#d97757" stroke-width="3" stroke-linecap="round" marker-end="url(#arrow)" opacity="0.72" />
<g>
    <path d="M 279.2 162.3 L 1004.0 162.0 L 1021.3 177.0 L 1021.3 189.3 L 1003.9 207.9 L 276.7 208.7 L 260.0 191.4 L 261.6 179.5 Z" fill="#fff7d6" stroke="#d97757" stroke-width="2.4" />
    <path d="M 280.3 163.2 L 1001.6 163.5 L 1014.8 179.0 L 1015.1 190.5 L 999.7 202.7 L 280.0 205.6 L 262.7 186.9 L 261.8 178.2 Z" fill="none" stroke="#d97757" stroke-width="1.1" opacity="0.28" />
    <text x="278" y="192" font-size="18" fill="#171717" font-weight="750">配置与能力</text>
  </g>
<g>
    <path d="M 325.8 224.1 L 955.8 225.9 L 972.4 242.2 L 973.6 253.2 L 955.2 273.5 L 323.6 270.9 L 305.8 252.2 L 305.3 244.1 Z" fill="#e9f4ff" stroke="#3b82f6" stroke-width="2.4" />
    <path d="M 328.0 226.4 L 953.4 226.4 L 967.5 241.1 L 967.6 252.4 L 956.3 266.6 L 327.7 265.8 L 311.1 255.0 L 313.5 243.5 Z" fill="none" stroke="#3b82f6" stroke-width="1.1" opacity="0.28" />
    <text x="325" y="256" font-size="18" fill="#171717" font-weight="750">工具规格计划</text>
  </g>
<g>
    <path d="M 337.4 289.5 L 945.0 287.1 L 961.5 306.0 L 962.6 316.7 L 941.2 336.5 L 338.7 334.0 L 319.9 318.8 L 321.4 308.2 Z" fill="#ecfdf3" stroke="#2f855a" stroke-width="2.4" />
    <path d="M 337.5 293.6 L 940.2 292.6 L 956.1 307.0 L 955.0 318.3 L 943.2 331.5 L 335.7 334.5 L 324.7 317.9 L 322.6 306.3 Z" fill="none" stroke="#2f855a" stroke-width="1.1" opacity="0.28" />
    <text x="337" y="320" font-size="18" fill="#171717" font-weight="750">模型可见规格</text>
  </g>
<g>
    <path d="M 350.2 353.0 L 933.2 354.5 L 951.1 368.3 L 947.9 382.5 L 933.2 399.1 L 350.9 400.2 L 332.9 381.0 L 330.2 372.1 Z" fill="#fff1f2" stroke="#be4456" stroke-width="2.4" />
    <path d="M 351.9 356.6 L 932.0 356.1 L 943.8 373.1 L 946.9 383.4 L 931.4 398.2 L 349.0 393.9 L 334.8 382.8 L 336.9 370.6 Z" fill="none" stroke="#be4456" stroke-width="1.1" opacity="0.28" />
    <text x="349" y="384" font-size="18" fill="#171717" font-weight="750">处理器注册表</text>
  </g>
<g>
    <path d="M 362.5 416.1 L 918.7 415.5 L 935.9 435.5 L 936.3 444.3 L 919.3 465.1 L 362.2 462.9 L 344.3 446.2 L 342.7 434.9 Z" fill="#f3e8ff" stroke="#8b5cf6" stroke-width="2.4" />
    <path d="M 362.3 422.5 L 919.3 419.0 L 933.9 434.7 L 931.6 444.4 L 916.6 459.5 L 360.8 461.5 L 348.5 447.0 L 349.3 436.4 Z" fill="none" stroke="#8b5cf6" stroke-width="1.1" opacity="0.28" />
    <text x="361" y="448" font-size="18" fill="#171717" font-weight="750">模型工具调用</text>
  </g>
<g>
    <path d="M 370.7 480.0 L 908.6 479.9 L 923.7 498.7 L 924.0 507.5 L 906.5 528.8 L 374.2 526.7 L 353.3 509.4 L 356.9 498.3 Z" fill="#fef3c7" stroke="#b7791f" stroke-width="2.4" />
    <path d="M 371.8 482.8 L 906.8 483.0 L 923.2 499.6 L 919.1 507.5 L 905.9 522.6 L 375.0 526.2 L 357.9 507.8 L 358.9 501.1 Z" fill="none" stroke="#b7791f" stroke-width="1.1" opacity="0.28" />
    <text x="373" y="512" font-size="18" fill="#171717" font-weight="750">运行时路由</text>
  </g>
<g>
    <path d="M 278.2 543.3 L 1002.0 542.1 L 1018.5 562.4 L 1017.8 573.7 L 1004.4 590.1 L 280.3 590.8 L 261.3 572.0 L 258.1 563.2 Z" fill="#eef2ff" stroke="#4f46e5" stroke-width="2.4" />
    <path d="M 279.0 547.3 L 1001.3 546.7 L 1017.9 561.1 L 1017.1 570.8 L 1002.0 588.8 L 279.2 588.7 L 262.2 575.2 L 263.9 561.6 Z" fill="none" stroke="#4f46e5" stroke-width="1.1" opacity="0.28" />
    <text x="278" y="576" font-size="18" fill="#171717" font-weight="750">事件与结果</text>
  </g>
  </g>
</svg>
