<?xml version="1.0" encoding="UTF-8"?>
<svg xmlns="http://www.w3.org/2000/svg" width="1280" height="740" viewBox="0 0 1280 740" role="img" aria-labelledby="title-chapter-24-03-zh desc-chapter-24-03-zh">
  <title id="title-chapter-24-03-zh">原生依赖应该被隔离</title>
  <desc id="desc-chapter-24-03-zh">原生依赖应该被隔离的手绘白板图，展示产品代码、稳定原生能力、构建/发布边界、第三方元数据、供应商补丁之间的关系。</desc>
  <defs>
    <marker id="arrow" markerWidth="12" markerHeight="12" refX="10" refY="6" orient="auto" markerUnits="strokeWidth">
      <path d="M 1 1 L 11 6 L 1 11 z" fill="#d97757" />
    </marker>
    <filter id="paper-chapter-24-03-zh" x="-5%" y="-5%" width="110%" height="110%">
      <feTurbulence type="fractalNoise" baseFrequency="0.85" numOctaves="2" stitchTiles="stitch" result="noise" />
      <feColorMatrix type="saturate" values="0" />
      <feComponentTransfer>
        <feFuncA type="table" tableValues="0 0.045" />
      </feComponentTransfer>
    </filter>
  </defs>
  <rect x="0" y="0" width="1280" height="740" rx="30" fill="#fffdf7" />
  <path d="M 51.7 20.5 L 1231.8 20.0 L 1260.1 49.9 L 1258.0 689.6 L 1229.8 718.3 L 52.1 717.0 L 20.3 688.8 L 24.4 50.4 Z" fill="none" stroke="#171717" stroke-width="2" opacity="0.18" />
  <rect x="0" y="0" width="1280" height="740" filter="url(#paper-chapter-24-03-zh)" />
  <g font-family="Virgil, 'Comic Sans MS', 'Segoe Print', 'LXGW WenKai', 'Noto Sans CJK SC', cursive" letter-spacing="0">
    <text x="66" y="95" font-size="31" fill="#171717" font-weight="800">原生依赖应该被隔离</text>
    <path d="M 64.0 166.0 C 471.1 162.8, 867.5 170.0, 1210.0 160.0" fill="none" stroke="#171717" stroke-width="2" opacity="0.22" />
    <ellipse cx="640" cy="392" rx="475" ry="210" fill="#f8fafc" stroke="#475569" stroke-width="2" stroke-dasharray="16 12" opacity="0.38" />
    <ellipse cx="640" cy="392" rx="250" ry="114" fill="#fff7d6" stroke="#d97757" stroke-width="2" opacity="0.42" />
<path d="M 640.0 268.0 C 511.4 282.0, 370.3 245.0, 245.0 245.0" fill="none" stroke="#d97757" stroke-width="3" stroke-linecap="round" marker-end="url(#arrow)" opacity="0.72" />
<path d="M 640.0 268.0 C 769.1 276.0, 905.9 249.7, 1033.0 245.0" fill="none" stroke="#3b82f6" stroke-width="3" stroke-linecap="round" marker-end="url(#arrow)" opacity="0.72" />
<path d="M 640.0 268.0 C 485.1 258.9, 364.0 430.4, 245.0 433.0" fill="none" stroke="#2f855a" stroke-width="3" stroke-linecap="round" marker-end="url(#arrow)" opacity="0.72" />
<path d="M 640.0 268.0 C 773.8 273.6, 914.0 430.3, 1033.0 433.0" fill="none" stroke="#be4456" stroke-width="3" stroke-linecap="round" marker-end="url(#arrow)" opacity="0.72" />
<path d="M 640.0 268.0 C 583.7 263.8, 483.0 627.4, 435.0 621.0" fill="none" stroke="#8b5cf6" stroke-width="3" stroke-linecap="round" stroke-dasharray="8 9" marker-end="url(#arrow)" opacity="0.72" />
<path d="M 640.0 268.0 C 708.8 263.0, 777.6 614.9, 845.0 621.0" fill="none" stroke="#b7791f" stroke-width="3" stroke-linecap="round" stroke-dasharray="8 9" marker-end="url(#arrow)" opacity="0.72" />
<g>
    <path d="M 491.9 221.0 L 789.3 217.8 L 803.6 235.6 L 806.4 298.8 L 788.0 315.2 L 494.4 315.7 L 475.9 296.7 L 477.2 238.6 Z" fill="#fff7d6" stroke="#d97757" stroke-width="2.4" />
    <path d="M 493.3 225.6 L 787.1 225.0 L 799.2 237.0 L 803.0 295.1 L 785.1 312.7 L 492.8 313.7 L 479.8 295.4 L 479.4 240.3 Z" fill="none" stroke="#d97757" stroke-width="1.1" opacity="0.28" />
    <text x="493" y="252" font-size="18" fill="#171717" font-weight="750">产品代码</text>
  </g>
<g>
    <path d="M 146.1 203.5 L 341.1 208.3 L 358.9 224.2 L 359.0 268.2 L 341.0 285.7 L 146.7 283.2 L 131.6 266.3 L 129.8 223.1 Z" fill="#e9f4ff" stroke="#3b82f6" stroke-width="2.4" />
    <path d="M 150.2 211.0 L 342.1 208.5 L 355.1 223.9 L 357.0 263.8 L 341.4 282.0 L 148.4 278.8 L 133.8 263.5 L 134.4 226.2 Z" fill="none" stroke="#3b82f6" stroke-width="1.1" opacity="0.28" />
    <text x="148" y="238" font-size="18" fill="#171717" font-weight="750">稳定原生能力</text>
  </g>
<g>
    <path d="M 935.1 206.4 L 1131.2 203.7 L 1146.5 225.9 L 1149.0 264.9 L 1130.8 285.2 L 936.9 283.5 L 918.1 266.0 L 918.9 225.1 Z" fill="#ecfdf3" stroke="#2f855a" stroke-width="2.4" />
    <path d="M 939.5 210.3 L 1128.8 208.8 L 1145.2 222.6 L 1145.1 265.3 L 1129.9 280.8 L 934.9 277.7 L 922.5 266.6 L 922.8 226.0 Z" fill="none" stroke="#2f855a" stroke-width="1.1" opacity="0.28" />
    <text x="936" y="238" font-size="18" fill="#171717" font-weight="750">构建/发布边界</text>
  </g>
<g>
    <path d="M 146.1 396.1 L 339.9 394.4 L 361.5 413.2 L 362.3 454.1 L 343.8 471.4 L 149.2 473.5 L 131.6 454.0 L 129.5 413.1 Z" fill="#fff1f2" stroke="#be4456" stroke-width="2.4" />
    <path d="M 150.1 399.0 L 340.9 395.9 L 357.6 412.6 L 356.3 454.0 L 339.1 469.5 L 147.4 466.2 L 134.6 452.4 L 132.4 413.7 Z" fill="none" stroke="#be4456" stroke-width="1.1" opacity="0.28" />
    <text x="148" y="426" font-size="18" fill="#171717" font-weight="750">第三方元数据</text>
  </g>
<g>
    <path d="M 935.8 393.5 L 1130.3 396.2 L 1149.9 411.5 L 1146.0 456.2 L 1131.2 473.2 L 936.7 472.8 L 915.6 456.2 L 915.9 413.3 Z" fill="#f3e8ff" stroke="#8b5cf6" stroke-width="2.4" />
    <path d="M 938.3 400.0 L 1130.6 397.3 L 1142.9 414.7 L 1144.9 453.4 L 1128.3 467.1 L 938.9 466.2 L 921.3 450.7 L 920.4 413.5 Z" fill="none" stroke="#8b5cf6" stroke-width="1.1" opacity="0.28" />
    <text x="936" y="426" font-size="18" fill="#171717" font-weight="750">供应商补丁</text>
  </g>
<g>
    <path d="M 326.4 582.1 L 542.9 581.2 L 561.9 599.9 L 561.3 639.6 L 541.3 660.8 L 326.7 661.7 L 309.0 640.4 L 309.6 598.5 Z" fill="#fef3c7" stroke="#b7791f" stroke-width="2.4" />
    <path d="M 328.0 584.9 L 543.1 587.6 L 556.4 599.6 L 556.3 643.1 L 538.9 656.3 L 327.0 655.1 L 315.6 643.4 L 315.5 600.5 Z" fill="none" stroke="#b7791f" stroke-width="1.1" opacity="0.28" />
    <text x="328" y="614" font-size="18" fill="#171717" font-weight="750">完整性记录</text>
  </g>
<g>
    <path d="M 738.8 582.3 L 952.9 582.6 L 971.7 597.7 L 969.7 639.7 L 950.5 657.6 L 739.1 657.9 L 718.0 644.4 L 718.5 599.2 Z" fill="#eef2ff" stroke="#4f46e5" stroke-width="2.4" />
    <path d="M 739.6 584.2 L 952.3 585.1 L 965.2 602.1 L 964.7 640.7 L 950.6 655.8 L 739.6 653.9 L 723.4 640.3 L 726.4 599.8 Z" fill="none" stroke="#4f46e5" stroke-width="1.1" opacity="0.28" />
    <text x="738" y="614" font-size="18" fill="#171717" font-weight="750">内置 helper</text>
  </g>
  </g>
</svg>
