<?xml version="1.0" encoding="UTF-8"?>
<svg xmlns="http://www.w3.org/2000/svg" width="1280" height="700" viewBox="0 0 1280 700" role="img" aria-labelledby="title-chapter-09-concept-2-zh desc-chapter-09-concept-2-zh">
  <title id="title-chapter-09-concept-2-zh">路由一次工具调用：结构白板</title>
  <desc id="desc-chapter-09-concept-2-zh">路由一次工具调用：结构白板的手绘白板图，展示模型工具调用、载荷验证、处理器查找、策略门、受监督执行之间的关系。</desc>
  <defs>
    <marker id="arrow" markerWidth="12" markerHeight="12" refX="10" refY="6" orient="auto" markerUnits="strokeWidth">
      <path d="M 1 1 L 11 6 L 1 11 z" fill="#d97757" />
    </marker>
    <filter id="paper-chapter-09-concept-2-zh" x="-5%" y="-5%" width="110%" height="110%">
      <feTurbulence type="fractalNoise" baseFrequency="0.85" numOctaves="2" stitchTiles="stitch" result="noise" />
      <feColorMatrix type="saturate" values="0" />
      <feComponentTransfer>
        <feFuncA type="table" tableValues="0 0.045" />
      </feComponentTransfer>
    </filter>
  </defs>
  <rect x="0" y="0" width="1280" height="700" rx="30" fill="#fffdf7" />
  <path d="M 49.3 23.0 L 1231.9 23.3 L 1260.1 51.2 L 1259.1 651.7 L 1231.1 679.4 L 51.8 679.6 L 22.4 648.7 L 24.5 49.3 Z" fill="none" stroke="#171717" stroke-width="2" opacity="0.18" />
  <rect x="0" y="0" width="1280" height="700" filter="url(#paper-chapter-09-concept-2-zh)" />
  <g font-family="Virgil, 'Comic Sans MS', 'Segoe Print', 'LXGW WenKai', 'Noto Sans CJK SC', cursive" letter-spacing="0">
    <text x="66" y="95" font-size="31" fill="#171717" font-weight="800">路由一次工具调用：结构白板</text>
    <path d="M 64.0 166.0 C 452.1 163.3, 873.7 170.7, 1210.0 160.0" fill="none" stroke="#171717" stroke-width="2" opacity="0.22" />
    <path d="M 260.0 150.0 C 264.4 143.2, 250.6 623.7, 260.0 610.0" fill="none" stroke="#3b82f6" stroke-width="2" stroke-dasharray="10 12" opacity="0.25" />
    <path d="M 1020.0 150.0 C 1016.2 136.0, 1012.9 619.6, 1020.0 610.0" fill="none" stroke="#2f855a" stroke-width="2" stroke-dasharray="10 12" opacity="0.25" />
<path d="M 640.0 208.0 C 653.4 211.4, 644.8 213.0, 640.0 224.0" fill="none" stroke="#d97757" stroke-width="3" stroke-linecap="round" marker-end="url(#arrow)" opacity="0.72" />
<path d="M 640.0 272.0 C 639.3 260.3, 655.7 290.7, 640.0 288.0" fill="none" stroke="#d97757" stroke-width="3" stroke-linecap="round" marker-end="url(#arrow)" opacity="0.72" />
<path d="M 640.0 336.0 C 626.3 342.0, 644.0 339.0, 640.0 352.0" fill="none" stroke="#d97757" stroke-width="3" stroke-linecap="round" marker-end="url(#arrow)" opacity="0.72" />
<path d="M 640.0 400.0 C 646.9 406.6, 647.6 421.1, 640.0 416.0" fill="none" stroke="#d97757" stroke-width="3" stroke-linecap="round" marker-end="url(#arrow)" opacity="0.72" />
<path d="M 640.0 464.0 C 631.8 459.3, 648.2 482.6, 640.0 480.0" fill="none" stroke="#d97757" stroke-width="3" stroke-linecap="round" marker-end="url(#arrow)" opacity="0.72" />
<g>
    <path d="M 279.6 162.5 L 1001.1 158.8 L 1021.6 175.5 L 1020.2 190.6 L 1001.7 210.4 L 276.3 206.1 L 260.9 190.6 L 260.9 176.2 Z" fill="#fff7d6" stroke="#d97757" stroke-width="2.4" />
    <path d="M 278.9 162.4 L 1001.5 166.4 L 1016.2 180.0 L 1017.3 187.1 L 1002.2 205.1 L 276.5 204.7 L 265.3 191.2 L 265.6 177.8 Z" fill="none" stroke="#d97757" stroke-width="1.1" opacity="0.28" />
    <text x="278" y="192" font-size="18" fill="#171717" font-weight="750">模型工具调用</text>
  </g>
<g>
    <path d="M 323.7 223.1 L 957.3 222.5 L 974.2 243.7 L 972.8 252.3 L 955.7 273.1 L 326.8 273.4 L 305.5 253.1 L 308.2 241.0 Z" fill="#e9f4ff" stroke="#3b82f6" stroke-width="2.4" />
    <path d="M 326.2 227.8 L 952.7 226.9 L 971.0 243.3 L 967.6 251.4 L 953.0 266.4 L 326.0 265.6 L 311.4 253.4 L 309.1 245.2 Z" fill="none" stroke="#3b82f6" stroke-width="1.1" opacity="0.28" />
    <text x="325" y="256" font-size="18" fill="#171717" font-weight="750">载荷验证</text>
  </g>
<g>
    <path d="M 337.8 289.7 L 944.4 287.6 L 959.4 308.3 L 960.8 319.9 L 943.7 334.6 L 335.7 336.4 L 320.4 319.8 L 318.7 305.9 Z" fill="#ecfdf3" stroke="#2f855a" stroke-width="2.4" />
    <path d="M 340.4 289.8 L 942.3 292.6 L 959.3 306.2 L 957.5 317.8 L 944.4 333.5 L 338.0 331.7 L 323.1 317.7 L 320.7 305.0 Z" fill="none" stroke="#2f855a" stroke-width="1.1" opacity="0.28" />
    <text x="337" y="320" font-size="18" fill="#171717" font-weight="750">处理器查找</text>
  </g>
<g>
    <path d="M 349.5 352.6 L 933.1 354.0 L 947.9 367.8 L 949.1 383.7 L 932.7 398.3 L 347.6 400.9 L 330.2 382.2 L 330.4 367.9 Z" fill="#fff1f2" stroke="#be4456" stroke-width="2.4" />
    <path d="M 348.2 354.2 L 928.7 354.1 L 943.3 371.7 L 944.0 382.2 L 929.8 398.3 L 352.3 394.4 L 335.8 378.9 L 334.8 369.7 Z" fill="none" stroke="#be4456" stroke-width="1.1" opacity="0.28" />
    <text x="349" y="384" font-size="18" fill="#171717" font-weight="750">策略门</text>
  </g>
<g>
    <path d="M 363.5 414.4 L 920.8 418.4 L 935.5 434.0 L 939.5 447.8 L 918.3 463.8 L 358.9 464.7 L 344.6 444.7 L 341.6 435.7 Z" fill="#f3e8ff" stroke="#8b5cf6" stroke-width="2.4" />
    <path d="M 359.8 421.0 L 918.7 418.3 L 932.9 437.0 L 932.4 445.5 L 920.3 460.1 L 361.3 461.8 L 347.9 442.8 L 347.3 434.7 Z" fill="none" stroke="#8b5cf6" stroke-width="1.1" opacity="0.28" />
    <text x="361" y="448" font-size="18" fill="#171717" font-weight="750">受监督执行</text>
  </g>
<g>
    <path d="M 278.6 478.1 L 1002.6 480.4 L 1021.5 500.2 L 1018.8 508.6 L 1003.6 529.7 L 276.0 528.3 L 257.5 510.7 L 257.7 498.9 Z" fill="#fef3c7" stroke="#b7791f" stroke-width="2.4" />
    <path d="M 280.0 482.7 L 1003.2 481.5 L 1017.4 498.8 L 1014.4 511.5 L 1003.0 521.6 L 280.9 522.4 L 263.5 509.6 L 265.1 497.0 Z" fill="none" stroke="#b7791f" stroke-width="1.1" opacity="0.28" />
    <text x="278" y="512" font-size="18" fill="#171717" font-weight="750">模型可见结果</text>
  </g>
  </g>
</svg>
