<?xml version="1.0" encoding="UTF-8"?>
<svg xmlns="http://www.w3.org/2000/svg" width="1280" height="700" viewBox="0 0 1280 700" role="img" aria-labelledby="title-chapter-18-concept-3-zh desc-chapter-18-concept-3-zh">
  <title id="title-chapter-18-concept-3-zh">编译期扩展贡献</title>
  <desc id="desc-chapter-18-concept-3-zh">编译期扩展贡献的手绘白板图，展示编译期贡献者、窄 API、线程启动状态、提示片段、插件边界之间的关系。</desc>
  <defs>
    <marker id="arrow" markerWidth="12" markerHeight="12" refX="10" refY="6" orient="auto" markerUnits="strokeWidth">
      <path d="M 1 1 L 11 6 L 1 11 z" fill="#d97757" />
    </marker>
    <filter id="paper-chapter-18-concept-3-zh" x="-5%" y="-5%" width="110%" height="110%">
      <feTurbulence type="fractalNoise" baseFrequency="0.85" numOctaves="2" stitchTiles="stitch" result="noise" />
      <feColorMatrix type="saturate" values="0" />
      <feComponentTransfer>
        <feFuncA type="table" tableValues="0 0.045" />
      </feComponentTransfer>
    </filter>
  </defs>
  <rect x="0" y="0" width="1280" height="700" rx="30" fill="#fffdf7" />
  <path d="M 48.7 20.2 L 1231.6 20.4 L 1258.6 50.1 L 1258.6 652.0 L 1229.1 680.3 L 49.0 676.3 L 20.4 649.3 L 23.1 48.9 Z" fill="none" stroke="#171717" stroke-width="2" opacity="0.18" />
  <rect x="0" y="0" width="1280" height="700" filter="url(#paper-chapter-18-concept-3-zh)" />
  <g font-family="Virgil, 'Comic Sans MS', 'Segoe Print', 'LXGW WenKai', 'Noto Sans CJK SC', cursive" letter-spacing="0">
    <text x="66" y="95" font-size="31" fill="#171717" font-weight="800">编译期扩展贡献</text>
    <path d="M 64.0 166.0 C 464.1 167.5, 872.3 149.0, 1210.0 160.0" fill="none" stroke="#171717" stroke-width="2" opacity="0.22" />
    <g>
      <path d="M 87.6 148.6 L 386.3 150.8 L 409.8 178.2 L 411.1 587.6 L 385.8 615.5 L 89.4 615.0 L 62.3 591.2 L 63.0 176.7 Z" fill="#fffdf7" stroke="#475569" stroke-width="2" opacity="0.65" />
      <text x="82" y="184" font-size="16" fill="#475569" font-weight="800">输入/来源</text>
    </g>
<g>
      <path d="M 469.9 147.9 L 767.9 148.6 L 793.7 174.8 L 793.3 588.0 L 770.8 614.2 L 473.0 615.7 L 442.5 590.3 L 446.2 176.5 Z" fill="#fff7d6" stroke="#d97757" stroke-width="2" opacity="0.65" />
      <text x="465" y="184" font-size="16" fill="#475569" font-weight="800">运行时边界</text>
    </g>
<g>
      <path d="M 851.7 149.1 L 1151.0 147.9 L 1180.1 178.1 L 1179.4 586.9 L 1152.5 614.1 L 856.5 614.3 L 828.4 587.6 L 830.0 176.2 Z" fill="#fffdf7" stroke="#475569" stroke-width="2" opacity="0.65" />
      <text x="848" y="184" font-size="16" fill="#475569" font-weight="800">输出/证据</text>
    </g>
<path d="M 384.0 253.0 C 401.6 265.9, 446.7 241.8, 473.0 253.0" fill="none" stroke="#d97757" stroke-width="3" stroke-linecap="round" marker-end="url(#arrow)" opacity="0.72" />
<path d="M 767.0 253.0 C 809.9 240.9, 840.3 263.1, 856.0 253.0" fill="none" stroke="#2f855a" stroke-width="3" stroke-linecap="round" marker-end="url(#arrow)" opacity="0.72" />
<path d="M 1150.0 253.0 C 785.1 241.7, 406.7 364.5, 90.0 351.0" fill="none" stroke="#d97757" stroke-width="3" stroke-linecap="round" marker-end="url(#arrow)" opacity="0.72" />
<path d="M 384.0 351.0 C 424.8 337.2, 460.1 351.1, 473.0 351.0" fill="none" stroke="#d97757" stroke-width="3" stroke-linecap="round" marker-end="url(#arrow)" opacity="0.72" />
<path d="M 767.0 351.0 C 800.6 363.6, 828.3 365.8, 856.0 351.0" fill="none" stroke="#2f855a" stroke-width="3" stroke-linecap="round" marker-end="url(#arrow)" opacity="0.72" />
<g>
    <path d="M 108.6 219.0 L 364.3 217.9 L 382.9 239.1 L 383.9 266.0 L 367.1 287.2 L 109.3 287.2 L 87.7 267.7 L 91.6 237.9 Z" fill="#fff7d6" stroke="#d97757" stroke-width="2.4" />
    <path d="M 107.4 226.3 L 364.1 221.6 L 380.2 239.2 L 381.4 266.1 L 364.1 283.9 L 107.9 283.9 L 93.7 265.6 L 91.8 236.5 Z" fill="none" stroke="#d97757" stroke-width="1.1" opacity="0.28" />
    <text x="108" y="252" font-size="18" fill="#171717" font-weight="750">编译期贡献者</text>
  </g>
<g>
    <path d="M 492.7 219.4 L 750.6 219.0 L 766.4 236.9 L 765.4 268.6 L 746.8 287.8 L 491.7 283.7 L 470.9 265.5 L 470.8 239.1 Z" fill="#e9f4ff" stroke="#3b82f6" stroke-width="2.4" />
    <path d="M 491.4 222.1 L 748.4 221.5 L 761.5 241.4 L 764.7 266.1 L 747.3 279.6 L 489.8 282.8 L 478.6 265.6 L 476.9 238.3 Z" fill="none" stroke="#3b82f6" stroke-width="1.1" opacity="0.28" />
    <text x="491" y="252" font-size="18" fill="#171717" font-weight="750">窄 API</text>
  </g>
<g>
    <path d="M 875.3 222.1 L 1131.6 219.9 L 1148.6 236.5 L 1152.0 268.3 L 1133.7 285.0 L 875.5 288.3 L 855.5 270.5 L 855.9 237.8 Z" fill="#ecfdf3" stroke="#2f855a" stroke-width="2.4" stroke-dasharray="8 8" />
    <path d="M 874.6 226.2 L 1128.6 222.2 L 1143.7 238.5 L 1145.4 269.3 L 1131.1 283.5 L 873.1 280.7 L 860.7 265.3 L 858.8 237.3 Z" fill="none" stroke="#2f855a" stroke-width="1.1" opacity="0.28" />
    <text x="874" y="252" font-size="18" fill="#171717" font-weight="750">线程启动状态</text>
  </g>
<g>
    <path d="M 108.1 315.9 L 365.3 318.7 L 385.2 336.6 L 385.2 364.3 L 364.4 384.6 L 106.4 384.8 L 87.8 367.8 L 90.8 338.4 Z" fill="#fff1f2" stroke="#be4456" stroke-width="2.4" />
    <path d="M 110.1 322.2 L 365.6 319.7 L 382.5 335.4 L 381.9 367.1 L 366.6 379.0 L 109.0 379.7 L 94.3 364.9 L 93.0 336.0 Z" fill="none" stroke="#be4456" stroke-width="1.1" opacity="0.28" />
    <text x="108" y="350" font-size="18" fill="#171717" font-weight="750">提示片段</text>
  </g>
<g>
    <path d="M 492.6 318.2 L 747.8 319.2 L 767.7 336.1 L 765.7 363.8 L 748.7 384.9 L 492.6 384.5 L 471.3 368.3 L 471.8 338.5 Z" fill="#f3e8ff" stroke="#8b5cf6" stroke-width="2.4" />
    <path d="M 490.5 320.0 L 745.8 320.8 L 763.1 335.3 L 765.3 366.0 L 746.7 379.5 L 489.9 380.4 L 478.0 362.6 L 475.6 336.6 Z" fill="none" stroke="#8b5cf6" stroke-width="1.1" opacity="0.28" />
    <text x="491" y="350" font-size="18" fill="#171717" font-weight="750">插件边界</text>
  </g>
<g>
    <path d="M 873.9 317.1 L 1130.7 318.7 L 1147.6 333.7 L 1148.8 367.9 L 1133.1 384.5 L 875.2 381.7 L 856.5 366.0 L 854.5 333.5 Z" fill="#fef3c7" stroke="#b7791f" stroke-width="2.4" stroke-dasharray="8 8" />
    <path d="M 874.9 323.5 L 1130.2 321.1 L 1144.1 336.9 L 1148.4 366.5 L 1131.8 379.4 L 876.6 378.3 L 862.3 367.3 L 860.0 336.2 Z" fill="none" stroke="#b7791f" stroke-width="1.1" opacity="0.28" />
    <text x="874" y="350" font-size="18" fill="#171717" font-weight="750">不做运行时加载</text>
  </g>
  </g>
</svg>
