<?xml version="1.0" encoding="UTF-8"?>
<svg xmlns="http://www.w3.org/2000/svg" width="1280" height="760" viewBox="0 0 1280 760" role="img" aria-labelledby="title-chapter-13-01-en desc-chapter-13-01-en">
  <title id="title-chapter-13-01-en">Policy, Transform, Enforcement</title>
  <desc id="desc-chapter-13-01-en">Hand-drawn whiteboard figure for Policy, Transform, Enforcement, showing the relationship between Permission profile, Filesystem and network policy, Select sandbox type, Transform command and environment, macOS Seatbelt.</desc>
  <defs>
    <marker id="arrow" markerWidth="12" markerHeight="12" refX="10" refY="6" orient="auto" markerUnits="strokeWidth">
      <path d="M 1 1 L 11 6 L 1 11 z" fill="#d97757" />
    </marker>
    <filter id="paper-chapter-13-01-en" x="-5%" y="-5%" width="110%" height="110%">
      <feTurbulence type="fractalNoise" baseFrequency="0.85" numOctaves="2" stitchTiles="stitch" result="noise" />
      <feColorMatrix type="saturate" values="0" />
      <feComponentTransfer>
        <feFuncA type="table" tableValues="0 0.045" />
      </feComponentTransfer>
    </filter>
  </defs>
  <rect x="0" y="0" width="1280" height="760" rx="30" fill="#fffdf7" />
  <path d="M 47.6 20.1 L 1231.2 24.2 L 1258.2 51.6 L 1258.8 712.4 L 1230.4 739.9 L 52.4 738.2 L 24.1 709.2 L 21.5 49.3 Z" fill="none" stroke="#171717" stroke-width="2" opacity="0.18" />
  <rect x="0" y="0" width="1280" height="760" filter="url(#paper-chapter-13-01-en)" />
  <g font-family="Virgil, 'Comic Sans MS', 'Segoe Print', 'LXGW WenKai', 'Noto Sans CJK SC', cursive" letter-spacing="0">
    <text x="66" y="95" font-size="33" fill="#171717" font-weight="800">Policy, Transform, Enforcement</text>
    <path d="M 64.0 166.0 C 457.3 157.5, 859.0 148.4, 1210.0 160.0" fill="none" stroke="#171717" stroke-width="2" opacity="0.22" />
    <path d="M 260.0 150.0 C 255.5 140.5, 271.9 678.6, 260.0 670.0" fill="none" stroke="#3b82f6" stroke-width="2" stroke-dasharray="10 12" opacity="0.25" />
    <path d="M 1020.0 150.0 C 1012.7 140.4, 1003.8 685.9, 1020.0 670.0" fill="none" stroke="#2f855a" stroke-width="2" stroke-dasharray="10 12" opacity="0.25" />
<path d="M 640.0 208.0 C 633.9 210.0, 625.2 219.6, 640.0 215.0" fill="none" stroke="#d97757" stroke-width="3" stroke-linecap="round" marker-end="url(#arrow)" opacity="0.72" />
<path d="M 640.0 263.0 C 648.3 250.5, 641.8 264.2, 640.0 270.0" fill="none" stroke="#d97757" stroke-width="3" stroke-linecap="round" marker-end="url(#arrow)" opacity="0.72" />
<path d="M 640.0 318.0 C 648.1 303.6, 641.7 335.8, 640.0 325.0" fill="none" stroke="#d97757" stroke-width="3" stroke-linecap="round" marker-end="url(#arrow)" opacity="0.72" />
<path d="M 640.0 373.0 C 644.6 381.9, 632.0 369.0, 640.0 380.0" fill="none" stroke="#d97757" stroke-width="3" stroke-linecap="round" marker-end="url(#arrow)" opacity="0.72" />
<path d="M 640.0 428.0 C 650.4 435.9, 624.4 448.3, 640.0 435.0" fill="none" stroke="#d97757" stroke-width="3" stroke-linecap="round" marker-end="url(#arrow)" opacity="0.72" />
<path d="M 640.0 483.0 C 637.6 481.8, 637.1 487.7, 640.0 490.0" fill="none" stroke="#d97757" stroke-width="3" stroke-linecap="round" marker-end="url(#arrow)" opacity="0.72" />
<path d="M 640.0 538.0 C 639.5 549.5, 644.3 533.1, 640.0 545.0" fill="none" stroke="#d97757" stroke-width="3" stroke-linecap="round" marker-end="url(#arrow)" opacity="0.72" />
<path d="M 640.0 593.0 C 630.6 607.5, 646.2 594.7, 640.0 600.0" fill="none" stroke="#d97757" stroke-width="3" stroke-linecap="round" marker-end="url(#arrow)" opacity="0.72" />
<g>
    <path d="M 277.8 160.3 L 1004.1 160.9 L 1020.9 180.4 L 1018.4 188.5 L 1001.8 205.5 L 276.8 206.8 L 262.4 191.0 L 261.5 176.5 Z" fill="#fff7d6" stroke="#d97757" stroke-width="2.4" />
    <path d="M 277.9 166.5 L 1002.7 162.8 L 1014.5 178.4 L 1017.2 191.1 L 1000.8 202.9 L 277.7 205.8 L 265.4 188.2 L 262.9 177.1 Z" fill="none" stroke="#d97757" stroke-width="1.1" opacity="0.28" />
    <text x="278" y="192" font-size="18" fill="#171717" font-weight="750">Permission profile</text>
  </g>
<g>
    <path d="M 325.7 213.4 L 953.8 213.1 L 971.3 235.1 L 975.3 244.6 L 956.2 263.6 L 324.4 262.0 L 306.8 243.0 L 309.1 234.1 Z" fill="#e9f4ff" stroke="#3b82f6" stroke-width="2.4" />
    <path d="M 326.3 216.8 L 952.5 220.7 L 968.4 234.5 L 968.3 243.6 L 953.9 260.4 L 323.9 260.8 L 311.4 245.8 L 309.5 232.2 Z" fill="none" stroke="#3b82f6" stroke-width="1.1" opacity="0.28" />
    <text x="325" y="247" font-size="17" fill="#171717" font-weight="750">Filesystem and network policy</text>
  </g>
<g>
    <path d="M 337.8 272.4 L 944.7 270.7 L 962.0 288.5 L 963.5 300.6 L 941.5 319.1 L 338.7 318.9 L 316.8 299.6 L 319.9 290.4 Z" fill="#ecfdf3" stroke="#2f855a" stroke-width="2.4" />
    <path d="M 337.4 271.5 L 942.1 275.8 L 959.0 287.0 L 957.2 299.0 L 941.8 312.8 L 340.0 314.5 L 320.9 298.5 L 324.5 290.1 Z" fill="none" stroke="#2f855a" stroke-width="1.1" opacity="0.28" />
    <text x="337" y="302" font-size="18" fill="#171717" font-weight="750">Select sandbox type</text>
  </g>
<g>
    <path d="M 347.8 326.4 L 930.3 323.8 L 947.0 341.3 L 948.8 356.0 L 930.6 375.0 L 347.2 371.0 L 329.9 353.2 L 330.1 345.5 Z" fill="#fff1f2" stroke="#be4456" stroke-width="2.4" />
    <path d="M 350.7 327.1 L 931.2 330.5 L 944.3 345.9 L 944.1 354.5 L 929.9 368.9 L 350.2 366.6 L 333.2 352.8 L 337.2 345.3 Z" fill="none" stroke="#be4456" stroke-width="1.1" opacity="0.28" />
    <text x="349" y="357" font-size="17" fill="#171717" font-weight="750">Transform command and environment</text>
  </g>
<g>
    <path d="M 363.4 380.1 L 919.7 378.1 L 938.7 398.6 L 937.9 411.1 L 917.5 426.4 L 362.1 426.7 L 344.8 409.7 L 342.2 396.9 Z" fill="#f3e8ff" stroke="#8b5cf6" stroke-width="2.4" />
    <path d="M 363.9 386.3 L 919.0 382.3 L 934.8 401.4 L 932.7 408.2 L 916.8 425.7 L 362.2 421.8 L 347.6 408.0 L 344.5 398.4 Z" fill="none" stroke="#8b5cf6" stroke-width="1.1" opacity="0.28" />
    <text x="361" y="412" font-size="18" fill="#171717" font-weight="750">macOS Seatbelt</text>
  </g>
<g>
    <path d="M 375.0 435.7 L 909.2 432.5 L 925.1 452.2 L 927.1 466.4 L 907.5 481.8 L 375.1 481.0 L 353.5 466.8 L 353.9 453.1 Z" fill="#fef3c7" stroke="#b7791f" stroke-width="2.4" />
    <path d="M 371.7 440.3 L 904.6 438.1 L 919.5 456.4 L 920.0 463.5 L 905.0 479.9 L 376.0 480.8 L 357.5 462.1 L 358.5 453.8 Z" fill="none" stroke="#b7791f" stroke-width="1.1" opacity="0.28" />
    <text x="373" y="467" font-size="17" fill="#171717" font-weight="750">Linux bwrap, namespaces, seccomp</text>
  </g>
<g>
    <path d="M 383.1 492.0 L 895.7 489.8 L 912.3 509.5 L 911.9 521.2 L 893.8 536.1 L 385.6 536.7 L 365.9 522.2 L 366.4 508.9 Z" fill="#eef2ff" stroke="#4f46e5" stroke-width="2.4" />
    <path d="M 384.3 494.9 L 894.0 492.2 L 910.8 509.6 L 909.4 517.7 L 895.4 536.1 L 383.5 531.8 L 370.5 521.4 L 371.3 509.2 Z" fill="none" stroke="#4f46e5" stroke-width="1.1" opacity="0.28" />
    <text x="385" y="522" font-size="17" fill="#171717" font-weight="750">Windows token, ACL, firewall, WFP</text>
  </g>
<g>
    <path d="M 395.7 545.2 L 884.7 546.3 L 899.1 560.7 L 900.1 573.0 L 884.7 591.9 L 395.9 590.8 L 377.2 572.6 L 377.3 561.0 Z" fill="#f1f5f9" stroke="#475569" stroke-width="2.4" />
    <path d="M 396.5 547.5 L 880.6 549.2 L 897.9 562.7 L 895.4 573.9 L 883.3 591.0 L 396.0 591.1 L 383.7 574.1 L 380.7 563.1 Z" fill="none" stroke="#475569" stroke-width="1.1" opacity="0.28" />
    <text x="397" y="577" font-size="18" fill="#171717" font-weight="750">No platform sandbox</text>
  </g>
<g>
    <path d="M 279.9 598.6 L 1003.2 599.7 L 1019.6 616.4 L 1021.1 631.3 L 1003.4 647.4 L 280.4 647.7 L 262.0 628.8 L 259.2 617.3 Z" fill="#fff7d6" stroke="#d97757" stroke-width="2.4" />
    <path d="M 277.2 604.4 L 1001.9 602.7 L 1017.2 619.0 L 1017.4 626.8 L 1001.9 645.4 L 277.5 641.6 L 265.3 628.5 L 265.4 617.0 Z" fill="none" stroke="#d97757" stroke-width="1.1" opacity="0.28" />
    <text x="278" y="632" font-size="17" fill="#171717" font-weight="750">Execution metadata and result</text>
  </g>
  </g>
</svg>
