<?xml version="1.0" encoding="UTF-8"?>
<svg xmlns="http://www.w3.org/2000/svg" width="1280" height="700" viewBox="0 0 1280 700" role="img" aria-labelledby="title-chapter-04-04-zh desc-chapter-04-04-zh">
  <title id="title-chapter-04-04-zh">什么能进入，什么能离开</title>
  <desc id="desc-chapter-04-04-zh">什么能进入，什么能离开的手绘白板图，展示安装后的命令、Rust 路由、已解析运行时信封、协议边界、会话运行时之间的关系。</desc>
  <defs>
    <marker id="arrow" markerWidth="12" markerHeight="12" refX="10" refY="6" orient="auto" markerUnits="strokeWidth">
      <path d="M 1 1 L 11 6 L 1 11 z" fill="#d97757" />
    </marker>
    <filter id="paper-chapter-04-04-zh" x="-5%" y="-5%" width="110%" height="110%">
      <feTurbulence type="fractalNoise" baseFrequency="0.85" numOctaves="2" stitchTiles="stitch" result="noise" />
      <feColorMatrix type="saturate" values="0" />
      <feComponentTransfer>
        <feFuncA type="table" tableValues="0 0.045" />
      </feComponentTransfer>
    </filter>
  </defs>
  <rect x="0" y="0" width="1280" height="700" rx="30" fill="#fffdf7" />
  <path d="M 50.9 20.6 L 1232.3 19.6 L 1255.9 50.1 L 1255.8 650.4 L 1228.7 677.0 L 48.6 680.3 L 20.7 650.2 L 20.1 51.4 Z" fill="none" stroke="#171717" stroke-width="2" opacity="0.18" />
  <rect x="0" y="0" width="1280" height="700" filter="url(#paper-chapter-04-04-zh)" />
  <g font-family="Virgil, 'Comic Sans MS', 'Segoe Print', 'LXGW WenKai', 'Noto Sans CJK SC', cursive" letter-spacing="0">
    <text x="66" y="95" font-size="31" fill="#171717" font-weight="800">什么能进入，什么能离开</text>
    <path d="M 64.0 166.0 C 467.5 174.6, 882.2 149.6, 1210.0 160.0" fill="none" stroke="#171717" stroke-width="2" opacity="0.22" />
    <g>
      <path d="M 91.8 149.1 L 397.5 151.5 L 422.3 175.3 L 422.1 597.4 L 398.4 620.0 L 93.9 622.1 L 68.1 598.5 L 72.4 173.7 Z" fill="#f8fafc" stroke="#475569" stroke-width="1.8" stroke-dasharray="8 10" opacity="0.72" />
      <text x="90" y="184" font-size="16" fill="#475569" font-weight="800">外部表面</text>
    </g>
<g>
      <path d="M 488.3 150.8 L 789.8 149.6 L 814.8 172.1 L 815.3 595.7 L 790.2 621.4 L 488.7 621.5 L 465.0 597.8 L 463.4 175.6 Z" fill="#fffdf7" stroke="#475569" stroke-width="1.8" stroke-dasharray="0" opacity="0.72" />
      <text x="485" y="184" font-size="16" fill="#475569" font-weight="800">运行时契约</text>
    </g>
<g>
      <path d="M 883.4 151.2 L 1185.3 152.2 L 1210.5 172.3 L 1209.2 596.4 L 1184.6 620.3 L 885.6 619.3 L 857.9 596.6 L 858.5 172.3 Z" fill="#f8fafc" stroke="#475569" stroke-width="1.8" stroke-dasharray="8 10" opacity="0.72" />
      <text x="880" y="184" font-size="16" fill="#475569" font-weight="800">执行边界</text>
    </g>
<path d="M 396.0 253.0 C 431.4 267.5, 444.5 255.0, 489.0 253.0" fill="none" stroke="#d97757" stroke-width="3" stroke-linecap="round" marker-end="url(#arrow)" opacity="0.72" />
<path d="M 791.0 253.0 C 812.3 258.3, 852.5 251.5, 884.0 253.0" fill="none" stroke="#d97757" stroke-width="3" stroke-linecap="round" marker-end="url(#arrow)" opacity="0.72" />
<path d="M 1186.0 253.0 C 806.7 237.1, 431.9 367.2, 94.0 365.0" fill="none" stroke="#d97757" stroke-width="3" stroke-linecap="round" stroke-dasharray="8 9" marker-end="url(#arrow)" opacity="0.72" />
<path d="M 396.0 365.0 C 426.2 378.1, 459.0 366.4, 489.0 365.0" fill="none" stroke="#d97757" stroke-width="3" stroke-linecap="round" marker-end="url(#arrow)" opacity="0.72" />
<path d="M 791.0 365.0 C 826.0 359.3, 859.5 371.8, 884.0 365.0" fill="none" stroke="#d97757" stroke-width="3" stroke-linecap="round" marker-end="url(#arrow)" opacity="0.72" />
<path d="M 1186.0 365.0 C 800.7 378.8, 414.4 486.4, 94.0 477.0" fill="none" stroke="#d97757" stroke-width="3" stroke-linecap="round" stroke-dasharray="8 9" marker-end="url(#arrow)" opacity="0.72" />
<g>
    <path d="M 111.2 215.9 L 379.6 217.1 L 395.6 233.2 L 396.4 271.5 L 378.3 291.7 L 111.8 290.3 L 92.3 273.7 L 96.5 235.2 Z" fill="#fff7d6" stroke="#d97757" stroke-width="2.4" />
    <path d="M 114.4 218.7 L 376.5 221.3 L 394.2 235.9 L 393.3 268.8 L 376.3 288.4 L 114.1 286.5 L 98.9 272.0 L 99.7 234.6 Z" fill="none" stroke="#d97757" stroke-width="1.1" opacity="0.28" />
    <text x="112" y="248" font-size="18" fill="#171717" font-weight="750">安装后的命令</text>
  </g>
<g>
    <path d="M 505.0 217.4 L 771.5 215.0 L 791.1 232.6 L 790.1 271.6 L 772.5 291.6 L 508.4 292.4 L 487.7 274.0 L 490.6 234.4 Z" fill="#e9f4ff" stroke="#3b82f6" stroke-width="2.4" />
    <path d="M 507.6 219.9 L 772.0 217.9 L 788.7 237.2 L 789.2 271.0 L 772.2 284.9 L 508.4 287.4 L 492.8 270.8 L 493.2 233.8 Z" fill="none" stroke="#3b82f6" stroke-width="1.1" opacity="0.28" />
    <text x="507" y="248" font-size="18" fill="#171717" font-weight="750">Rust 路由</text>
  </g>
<g>
    <path d="M 904.3 215.1 L 1168.7 216.2 L 1183.5 232.8 L 1184.1 273.6 L 1165.9 287.8 L 900.6 288.9 L 882.2 273.6 L 884.9 232.6 Z" fill="#ecfdf3" stroke="#2f855a" stroke-width="2.4" />
    <path d="M 900.5 217.9 L 1168.2 218.3 L 1180.4 236.9 L 1181.2 273.5 L 1165.9 286.3 L 904.4 287.7 L 887.0 271.8 L 887.3 237.3 Z" fill="none" stroke="#2f855a" stroke-width="1.1" opacity="0.28" />
    <text x="902" y="248" font-size="18" fill="#171717" font-weight="750">已解析运行时信封</text>
  </g>
<g>
    <path d="M 113.2 329.0 L 377.7 327.6 L 398.3 346.1 L 394.7 385.4 L 380.0 404.5 L 110.2 403.2 L 95.2 382.0 L 96.3 346.8 Z" fill="#fff1f2" stroke="#be4456" stroke-width="2.4" />
    <path d="M 114.9 330.5 L 377.9 330.3 L 393.3 348.3 L 390.5 382.9 L 378.4 399.8 L 112.4 400.2 L 97.8 383.3 L 96.2 346.8 Z" fill="none" stroke="#be4456" stroke-width="1.1" opacity="0.28" />
    <text x="112" y="360" font-size="18" fill="#171717" font-weight="750">协议边界</text>
  </g>
<g>
    <path d="M 506.9 326.6 L 772.1 329.7 L 789.6 344.0 L 790.7 385.6 L 772.8 402.2 L 507.5 402.9 L 488.5 385.5 L 488.6 344.7 Z" fill="#f3e8ff" stroke="#8b5cf6" stroke-width="2.4" />
    <path d="M 505.5 332.1 L 771.8 332.2 L 785.2 349.4 L 787.3 383.4 L 771.2 397.3 L 507.9 400.2 L 491.0 380.6 L 491.6 347.2 Z" fill="none" stroke="#8b5cf6" stroke-width="1.1" opacity="0.28" />
    <text x="507" y="360" font-size="18" fill="#171717" font-weight="750">会话运行时</text>
  </g>
<g>
    <path d="M 903.3 329.3 L 1169.4 325.9 L 1184.4 345.6 L 1188.0 386.4 L 1167.5 402.1 L 902.7 402.1 L 885.9 382.8 L 883.4 346.7 Z" fill="#fef3c7" stroke="#b7791f" stroke-width="2.4" />
    <path d="M 903.7 333.9 L 1166.5 330.2 L 1183.2 346.1 L 1183.2 382.6 L 1167.2 398.7 L 901.2 397.3 L 890.1 381.6 L 888.6 347.5 Z" fill="none" stroke="#b7791f" stroke-width="1.1" opacity="0.28" />
    <text x="902" y="360" font-size="18" fill="#171717" font-weight="750">可进入:操作、审批、工具响应</text>
<text x="902" y="382.5" font-size="18" fill="#171717" font-weight="750">Turn 输入</text>
  </g>
<g>
    <path d="M 111.7 439.2 L 378.9 442.5 L 395.3 460.1 L 395.1 495.2 L 380.5 515.4 L 109.9 514.0 L 92.2 494.2 L 92.4 455.7 Z" fill="#eef2ff" stroke="#4f46e5" stroke-width="2.4" />
    <path d="M 112.2 445.1 L 378.0 443.3 L 393.1 457.3 L 394.5 495.5 L 377.8 509.7 L 113.7 511.6 L 96.8 494.9 L 98.7 460.1 Z" fill="none" stroke="#4f46e5" stroke-width="1.1" opacity="0.28" />
    <text x="112" y="472" font-size="18" fill="#171717" font-weight="750">可离开:事件、条目、状态</text>
<text x="112" y="494.5" font-size="18" fill="#171717" font-weight="750">请求、错误</text>
  </g>
  </g>
</svg>
