<?xml version="1.0" encoding="UTF-8"?>
<svg xmlns="http://www.w3.org/2000/svg" width="1280" height="700" viewBox="0 0 1280 700" role="img" aria-labelledby="title-epilogue-concept-2-zh desc-epilogue-concept-2-zh">
  <title id="title-epilogue-concept-2-zh">这套架构的成本</title>
  <desc id="desc-epilogue-concept-2-zh">这套架构的成本的手绘白板图，展示兼容负担、迁移责任、运行时纪律、策略摩擦、信任维护之间的关系。</desc>
  <defs>
    <marker id="arrow" markerWidth="12" markerHeight="12" refX="10" refY="6" orient="auto" markerUnits="strokeWidth">
      <path d="M 1 1 L 11 6 L 1 11 z" fill="#d97757" />
    </marker>
    <filter id="paper-epilogue-concept-2-zh" x="-5%" y="-5%" width="110%" height="110%">
      <feTurbulence type="fractalNoise" baseFrequency="0.85" numOctaves="2" stitchTiles="stitch" result="noise" />
      <feColorMatrix type="saturate" values="0" />
      <feComponentTransfer>
        <feFuncA type="table" tableValues="0 0.045" />
      </feComponentTransfer>
    </filter>
  </defs>
  <rect x="0" y="0" width="1280" height="700" rx="30" fill="#fffdf7" />
  <path d="M 48.8 24.1 L 1230.5 21.0 L 1258.2 48.8 L 1258.4 650.8 L 1229.6 676.4 L 48.4 677.2 L 21.3 648.1 L 23.1 47.8 Z" fill="none" stroke="#171717" stroke-width="2" opacity="0.18" />
  <rect x="0" y="0" width="1280" height="700" filter="url(#paper-epilogue-concept-2-zh)" />
  <g font-family="Virgil, 'Comic Sans MS', 'Segoe Print', 'LXGW WenKai', 'Noto Sans CJK SC', cursive" letter-spacing="0">
    <text x="66" y="95" font-size="31" fill="#171717" font-weight="800">这套架构的成本</text>
    <path d="M 64.0 166.0 C 463.2 168.4, 871.4 175.2, 1210.0 160.0" fill="none" stroke="#171717" stroke-width="2" opacity="0.22" />
    <path d="M 640.0 380.0 C 624.4 375.2, 639.6 157.8, 640.0 157.0" fill="none" stroke="#d97757" stroke-width="3" stroke-linecap="round" stroke-dasharray="8 9" marker-end="url(#arrow)" opacity="0.72" />
<path d="M 640.0 380.0 C 805.6 379.0, 952.2 303.0, 1068.0 309.0" fill="none" stroke="#3b82f6" stroke-width="3" stroke-linecap="round" stroke-dasharray="8 9" marker-end="url(#arrow)" opacity="0.72" />
<path d="M 640.0 380.0 C 746.1 380.2, 835.3 544.4, 904.5 555.0" fill="none" stroke="#2f855a" stroke-width="3" stroke-linecap="round" stroke-dasharray="8 9" marker-end="url(#arrow)" opacity="0.72" />
<path d="M 640.0 380.0 C 543.4 382.6, 447.4 552.2, 375.5 555.0" fill="none" stroke="#be4456" stroke-width="3" stroke-linecap="round" stroke-dasharray="8 9" marker-end="url(#arrow)" opacity="0.72" />
<path d="M 640.0 380.0 C 503.3 390.8, 333.5 315.7, 212.0 309.0" fill="none" stroke="#8b5cf6" stroke-width="3" stroke-linecap="round" stroke-dasharray="8 9" marker-end="url(#arrow)" opacity="0.72" />
<g>
    <path d="M 548.1 121.9 L 734.2 122.9 L 753.5 141.3 L 751.1 173.0 L 735.1 192.2 L 546.4 189.7 L 529.1 171.9 L 530.2 139.9 Z" fill="#e9f4ff" stroke="#3b82f6" stroke-width="2.4" />
    <path d="M 547.8 126.2 L 731.1 124.4 L 746.1 142.3 L 749.2 172.5 L 732.4 187.1 L 548.4 188.9 L 532.6 173.4 L 530.4 139.8 Z" fill="none" stroke="#3b82f6" stroke-width="1.1" opacity="0.28" />
    <text x="546" y="154" font-size="18" fill="#171717" font-weight="750">兼容负担</text>
  </g>
<g>
    <path d="M 976.4 275.1 L 1161.5 275.0 L 1177.8 289.8 L 1180.6 324.8 L 1160.8 345.6 L 972.9 345.2 L 954.7 325.4 L 956.5 290.5 Z" fill="#ecfdf3" stroke="#2f855a" stroke-width="2.4" />
    <path d="M 975.0 277.8 L 1159.6 277.1 L 1175.8 293.0 L 1177.7 325.9 L 1161.2 341.3 L 977.1 339.8 L 958.3 322.9 L 960.8 294.2 Z" fill="none" stroke="#2f855a" stroke-width="1.1" opacity="0.28" />
    <text x="973.9754323328191" y="306.01626123751157" font-size="18" fill="#171717" font-weight="750">迁移责任</text>
  </g>
<g>
    <path d="M 808.7 521.6 L 997.4 518.0 L 1015.4 535.8 L 1014.5 570.0 L 998.0 590.9 L 810.2 588.0 L 792.9 571.8 L 792.0 536.5 Z" fill="#fff1f2" stroke="#be4456" stroke-width="2.4" />
    <path d="M 809.9 525.7 L 996.8 524.2 L 1011.4 537.5 L 1014.1 571.2 L 995.2 587.4 L 813.2 584.7 L 796.7 573.3 L 795.9 539.0 Z" fill="none" stroke="#be4456" stroke-width="1.1" opacity="0.28" />
    <text x="810.5033635316129" y="551.9837387624884" font-size="18" fill="#171717" font-weight="750">运行时纪律</text>
  </g>
<g>
    <path d="M 283.0 521.1 L 471.4 522.3 L 485.2 538.3 L 488.7 572.3 L 470.9 590.6 L 281.8 590.8 L 262.3 572.1 L 262.5 536.8 Z" fill="#f3e8ff" stroke="#8b5cf6" stroke-width="2.4" />
    <path d="M 281.3 523.8 L 468.0 523.6 L 482.7 537.1 L 484.9 569.2 L 470.9 586.3 L 283.3 587.8 L 268.0 573.1 L 266.9 539.2 Z" fill="none" stroke="#8b5cf6" stroke-width="1.1" opacity="0.28" />
    <text x="281.4966364683871" y="551.9837387624884" font-size="18" fill="#171717" font-weight="750">策略摩擦</text>
  </g>
<g>
    <path d="M 117.8 273.1 L 304.9 272.9 L 325.2 289.8 L 322.2 323.8 L 307.9 342.7 L 117.2 344.4 L 99.4 324.2 L 98.6 292.5 Z" fill="#fef3c7" stroke="#b7791f" stroke-width="2.4" />
    <path d="M 117.3 276.8 L 305.7 278.5 L 322.0 291.3 L 320.0 326.4 L 304.6 340.6 L 120.2 337.7 L 105.5 324.8 L 103.9 294.9 Z" fill="none" stroke="#b7791f" stroke-width="1.1" opacity="0.28" />
    <text x="118.02456766718086" y="306.01626123751157" font-size="18" fill="#171717" font-weight="750">信任维护</text>
  </g>
<g>
    <path d="M 507.9 319.5 L 771.9 322.2 L 788.7 342.1 L 792.0 410.1 L 774.1 431.4 L 508.5 431.4 L 487.8 411.0 L 491.5 339.6 Z" fill="#fff7d6" stroke="#d97757" stroke-width="2.4" stroke-dasharray="8 8" />
    <path d="M 508.7 327.5 L 769.1 324.3 L 787.0 338.9 L 785.0 410.5 L 770.9 424.8 L 511.3 424.5 L 495.4 412.4 L 495.5 339.7 Z" fill="none" stroke="#d97757" stroke-width="1.1" opacity="0.28" />
    <text x="508" y="354" font-size="18" fill="#171717" font-weight="750">这套架构的成本</text>
  </g>
  </g>
</svg>
