<?xml version="1.0" encoding="UTF-8"?>
<svg xmlns="http://www.w3.org/2000/svg" width="1280" height="700" viewBox="0 0 1280 700" role="img" aria-labelledby="title-epilogue-concept-3-zh desc-epilogue-concept-3-zh">
  <title id="title-epilogue-concept-3-zh">最终运行模型</title>
  <desc id="desc-epilogue-concept-3-zh">最终运行模型的手绘白板图，展示客户端词汇、共享运行时、协商后的副作用、回放证据、失败契约之间的关系。</desc>
  <defs>
    <marker id="arrow" markerWidth="12" markerHeight="12" refX="10" refY="6" orient="auto" markerUnits="strokeWidth">
      <path d="M 1 1 L 11 6 L 1 11 z" fill="#d97757" />
    </marker>
    <filter id="paper-epilogue-concept-3-zh" x="-5%" y="-5%" width="110%" height="110%">
      <feTurbulence type="fractalNoise" baseFrequency="0.85" numOctaves="2" stitchTiles="stitch" result="noise" />
      <feColorMatrix type="saturate" values="0" />
      <feComponentTransfer>
        <feFuncA type="table" tableValues="0 0.045" />
      </feComponentTransfer>
    </filter>
  </defs>
  <rect x="0" y="0" width="1280" height="700" rx="30" fill="#fffdf7" />
  <path d="M 49.4 23.5 L 1229.4 20.0 L 1260.3 51.7 L 1260.1 650.3 L 1229.0 675.6 L 52.0 677.9 L 22.4 649.8 L 21.6 52.4 Z" fill="none" stroke="#171717" stroke-width="2" opacity="0.18" />
  <rect x="0" y="0" width="1280" height="700" filter="url(#paper-epilogue-concept-3-zh)" />
  <g font-family="Virgil, 'Comic Sans MS', 'Segoe Print', 'LXGW WenKai', 'Noto Sans CJK SC', cursive" letter-spacing="0">
    <text x="66" y="95" font-size="31" fill="#171717" font-weight="800">最终运行模型</text>
    <path d="M 64.0 166.0 C 448.6 162.5, 851.2 146.7, 1210.0 160.0" fill="none" stroke="#171717" stroke-width="2" opacity="0.22" />
    <path d="M 640.0 380.0 C 649.9 377.8, 629.3 167.4, 640.0 157.0" fill="none" stroke="#d97757" stroke-width="3" stroke-linecap="round" stroke-dasharray="8 9" marker-end="url(#arrow)" opacity="0.72" />
<path d="M 640.0 380.0 C 784.2 370.3, 916.5 271.2, 1029.7 267.0" fill="none" stroke="#3b82f6" stroke-width="3" stroke-linecap="round" stroke-dasharray="8 9" marker-end="url(#arrow)" opacity="0.72" />
<path d="M 640.0 380.0 C 764.1 389.7, 899.3 473.9, 1029.7 487.0" fill="none" stroke="#2f855a" stroke-width="3" stroke-linecap="round" stroke-dasharray="8 9" marker-end="url(#arrow)" opacity="0.72" />
<path d="M 640.0 380.0 C 644.0 389.1, 642.8 598.7, 640.0 597.0" fill="none" stroke="#be4456" stroke-width="3" stroke-linecap="round" stroke-dasharray="8 9" marker-end="url(#arrow)" opacity="0.72" />
<path d="M 640.0 380.0 C 515.7 388.8, 382.3 478.1, 250.3 487.0" fill="none" stroke="#8b5cf6" stroke-width="3" stroke-linecap="round" stroke-dasharray="8 9" marker-end="url(#arrow)" opacity="0.72" />
<path d="M 640.0 380.0 C 518.7 372.5, 360.9 266.7, 250.3 267.0" fill="none" stroke="#b7791f" stroke-width="3" stroke-linecap="round" stroke-dasharray="8 9" marker-end="url(#arrow)" opacity="0.72" />
<g>
    <path d="M 546.0 120.8 L 735.7 121.4 L 752.0 137.7 L 750.0 176.2 L 732.1 194.2 L 546.8 190.0 L 530.2 173.5 L 529.6 138.0 Z" fill="#e9f4ff" stroke="#3b82f6" stroke-width="2.4" />
    <path d="M 546.5 124.7 L 734.0 124.2 L 750.5 141.3 L 748.1 175.3 L 731.5 188.8 L 545.7 187.0 L 532.6 172.1 L 534.4 138.9 Z" fill="none" stroke="#3b82f6" stroke-width="1.1" opacity="0.28" />
    <text x="546" y="154" font-size="18" fill="#171717" font-weight="750">客户端词汇</text>
  </g>
<g>
    <path d="M 937.1 233.5 L 1125.0 231.0 L 1143.4 252.5 L 1141.8 282.1 L 1124.2 302.6 L 933.3 299.6 L 918.8 285.3 L 916.4 251.8 Z" fill="#ecfdf3" stroke="#2f855a" stroke-width="2.4" />
    <path d="M 938.5 237.2 L 1120.3 236.3 L 1138.7 251.7 L 1136.9 280.6 L 1121.8 298.6 L 938.3 298.1 L 923.8 281.0 L 921.7 251.0 Z" fill="none" stroke="#2f855a" stroke-width="1.1" opacity="0.28" />
    <text x="935.7114317029973" y="264" font-size="18" fill="#171717" font-weight="750">共享运行时</text>
  </g>
<g>
    <path d="M 934.2 453.3 L 1125.1 451.8 L 1143.9 471.2 L 1142.7 504.2 L 1121.9 524.3 L 935.8 521.3 L 920.0 504.7 L 919.0 469.3 Z" fill="#fff1f2" stroke="#be4456" stroke-width="2.4" />
    <path d="M 938.3 454.3 L 1123.8 455.4 L 1135.8 469.4 L 1136.4 503.6 L 1125.0 516.8 L 934.8 517.2 L 921.6 504.7 L 921.6 469.3 Z" fill="none" stroke="#be4456" stroke-width="1.1" opacity="0.28" />
    <text x="935.7114317029973" y="483.99999999999994" font-size="18" fill="#171717" font-weight="750">协商后的副作用</text>
  </g>
<g>
    <path d="M 547.2 563.0 L 734.1 561.2 L 752.4 578.0 L 750.1 615.1 L 732.6 629.5 L 546.4 632.2 L 528.0 612.7 L 527.5 580.1 Z" fill="#f3e8ff" stroke="#8b5cf6" stroke-width="2.4" />
    <path d="M 547.2 566.1 L 735.2 564.5 L 745.9 579.3 L 749.6 611.0 L 734.2 629.8 L 549.1 628.3 L 533.8 614.1 L 530.5 582.7 Z" fill="none" stroke="#8b5cf6" stroke-width="1.1" opacity="0.28" />
    <text x="546" y="594" font-size="18" fill="#171717" font-weight="750">回放证据</text>
  </g>
<g>
    <path d="M 155.8 452.5 L 344.6 451.7 L 361.2 470.2 L 364.2 506.3 L 345.7 522.1 L 154.3 521.8 L 138.4 504.6 L 139.5 470.3 Z" fill="#fef3c7" stroke="#b7791f" stroke-width="2.4" />
    <path d="M 159.4 456.7 L 344.4 455.6 L 357.9 468.7 L 355.8 501.6 L 341.7 519.8 L 159.6 517.3 L 143.5 504.6 L 143.8 470.7 Z" fill="none" stroke="#b7791f" stroke-width="1.1" opacity="0.28" />
    <text x="156.28856829700266" y="484.00000000000006" font-size="18" fill="#171717" font-weight="750">失败契约</text>
  </g>
<g>
    <path d="M 157.4 233.9 L 343.2 230.9 L 361.5 251.6 L 364.7 283.7 L 344.4 300.2 L 155.4 301.7 L 138.2 285.8 L 140.2 251.6 Z" fill="#eef2ff" stroke="#4f46e5" stroke-width="2.4" />
    <path d="M 155.5 236.3 L 344.9 236.9 L 356.1 249.9 L 356.6 284.9 L 345.3 296.9 L 158.0 297.0 L 142.7 282.5 L 140.7 253.4 Z" fill="none" stroke="#4f46e5" stroke-width="1.1" opacity="0.28" />
    <text x="156.28856829700266" y="264" font-size="18" fill="#171717" font-weight="750">已外放能力</text>
  </g>
<g>
    <path d="M 506.6 324.4 L 771.5 322.2 L 791.4 342.0 L 788.4 414.0 L 771.0 430.1 L 507.1 428.0 L 491.3 414.1 L 489.2 338.0 Z" fill="#fff7d6" stroke="#d97757" stroke-width="2.4" stroke-dasharray="8 8" />
    <path d="M 507.0 327.2 L 769.4 325.6 L 784.6 338.8 L 787.9 410.5 L 771.0 425.1 L 506.5 426.7 L 492.3 409.6 L 494.0 343.0 Z" fill="none" stroke="#d97757" stroke-width="1.1" opacity="0.28" />
    <text x="508" y="354" font-size="18" fill="#171717" font-weight="750">最终运行模型</text>
  </g>
  </g>
</svg>
